<mxfile host="app.diagrams.net" agent="Mozilla/5.0 (Windows NT 10.0; Win64; x64) AppleWebKit/537.36 (KHTML, like Gecko) Chrome/134.0.0.0 Safari/537.36 Edg/134.0.0.0" version="26.1.0">
  <diagram name="Seite-1" id="72rQkxH_CIftWf6vLic1">
    <mxGraphModel dx="1426" dy="755" grid="0" gridSize="10" guides="1" tooltips="1" connect="1" arrows="1" fold="1" page="0" pageScale="1" pageWidth="1169" pageHeight="827" math="0" shadow="0">
      <root>
        <mxCell id="0" />
        <mxCell id="1" parent="0" />
        <mxCell id="iHLhnHPvlaSQ4wRw5yS0-1" value="" style="rounded=0;whiteSpace=wrap;html=1;fillColor=light-dark(#a3a5a4, #202121);fontColor=#FFFF00;" parent="1" vertex="1">
          <mxGeometry x="10" y="40" width="320" height="240" as="geometry" />
        </mxCell>
        <mxCell id="iHLhnHPvlaSQ4wRw5yS0-2" value="STARTUP" style="text;html=1;align=center;verticalAlign=middle;whiteSpace=wrap;rounded=0;fontColor=#000000;" parent="1" vertex="1">
          <mxGeometry x="10" y="10" width="60" height="30" as="geometry" />
        </mxCell>
        <mxCell id="iHLhnHPvlaSQ4wRw5yS0-3" value="" style="rounded=0;whiteSpace=wrap;html=1;fontColor=#FFFF00;fillColor=#000000;" parent="1" vertex="1">
          <mxGeometry x="10" y="330" width="320" height="240" as="geometry" />
        </mxCell>
        <mxCell id="iHLhnHPvlaSQ4wRw5yS0-4" value="MANUAL_L" style="text;html=1;align=center;verticalAlign=middle;whiteSpace=wrap;rounded=0;fontColor=#000000;" parent="1" vertex="1">
          <mxGeometry x="10" y="300" width="60" height="30" as="geometry" />
        </mxCell>
        <mxCell id="iHLhnHPvlaSQ4wRw5yS0-5" value="" style="rounded=0;whiteSpace=wrap;html=1;fontColor=#FFFF00;fillColor=#000000;" parent="1" vertex="1">
          <mxGeometry x="370" y="40" width="320" height="240" as="geometry" />
        </mxCell>
        <mxCell id="iHLhnHPvlaSQ4wRw5yS0-6" value="INIT" style="text;html=1;align=center;verticalAlign=middle;whiteSpace=wrap;rounded=0;fontColor=#000000;" parent="1" vertex="1">
          <mxGeometry x="370" y="10" width="60" height="30" as="geometry" />
        </mxCell>
        <mxCell id="iHLhnHPvlaSQ4wRw5yS0-7" value="" style="rounded=0;whiteSpace=wrap;html=1;fontColor=#FFFF00;fillColor=#000000;" parent="1" vertex="1">
          <mxGeometry x="1450" y="40" width="320" height="240" as="geometry" />
        </mxCell>
        <mxCell id="iHLhnHPvlaSQ4wRw5yS0-8" value="SEMI" style="text;html=1;align=center;verticalAlign=middle;whiteSpace=wrap;rounded=0;fontColor=#000000;" parent="1" vertex="1">
          <mxGeometry x="1450" y="10" width="60" height="30" as="geometry" />
        </mxCell>
        <mxCell id="iHLhnHPvlaSQ4wRw5yS0-9" value="" style="rounded=0;whiteSpace=wrap;html=1;fontColor=#FFFF00;fillColor=#000000;" parent="1" vertex="1">
          <mxGeometry x="730" y="40" width="320" height="240" as="geometry" />
        </mxCell>
        <mxCell id="iHLhnHPvlaSQ4wRw5yS0-10" value="CALIB" style="text;html=1;align=center;verticalAlign=middle;whiteSpace=wrap;rounded=0;fontColor=#000000;" parent="1" vertex="1">
          <mxGeometry x="730" y="10" width="60" height="30" as="geometry" />
        </mxCell>
        <mxCell id="iHLhnHPvlaSQ4wRw5yS0-11" value="" style="rounded=0;whiteSpace=wrap;html=1;fontColor=#FFFF00;fillColor=#000000;" parent="1" vertex="1">
          <mxGeometry x="1450" y="330" width="320" height="240" as="geometry" />
        </mxCell>
        <mxCell id="iHLhnHPvlaSQ4wRw5yS0-12" value="AUTO" style="text;html=1;align=center;verticalAlign=middle;whiteSpace=wrap;rounded=0;fontColor=#000000;" parent="1" vertex="1">
          <mxGeometry x="1450" y="300" width="60" height="30" as="geometry" />
        </mxCell>
        <mxCell id="iHLhnHPvlaSQ4wRw5yS0-13" value="" style="rounded=0;whiteSpace=wrap;html=1;fontColor=#FFFF00;fillColor=#000000;" parent="1" vertex="1">
          <mxGeometry x="1090" y="40" width="320" height="240" as="geometry" />
        </mxCell>
        <mxCell id="iHLhnHPvlaSQ4wRw5yS0-14" value="ERROR" style="text;html=1;align=center;verticalAlign=middle;whiteSpace=wrap;rounded=0;fontColor=#000000;" parent="1" vertex="1">
          <mxGeometry x="1090" y="10" width="60" height="30" as="geometry" />
        </mxCell>
        <mxCell id="iHLhnHPvlaSQ4wRw5yS0-15" value="" style="rounded=0;whiteSpace=wrap;html=1;fontColor=#FFFF00;fillColor=#000000;" parent="1" vertex="1">
          <mxGeometry x="730" y="330" width="320" height="240" as="geometry" />
        </mxCell>
        <mxCell id="iHLhnHPvlaSQ4wRw5yS0-16" value="EDGE_L" style="text;html=1;align=center;verticalAlign=middle;whiteSpace=wrap;rounded=0;fontColor=#000000;" parent="1" vertex="1">
          <mxGeometry x="730" y="300" width="60" height="30" as="geometry" />
        </mxCell>
        <mxCell id="iHLhnHPvlaSQ4wRw5yS0-17" value="+" style="text;html=1;align=right;verticalAlign=middle;whiteSpace=wrap;rounded=0;fontSize=35;fontColor=#FFFF00;" parent="1" vertex="1">
          <mxGeometry x="970" y="60" width="60" height="30" as="geometry" />
        </mxCell>
        <mxCell id="iHLhnHPvlaSQ4wRw5yS0-18" value="-" style="text;html=1;align=right;verticalAlign=middle;whiteSpace=wrap;rounded=0;fontSize=35;fontColor=#FFFF00;" parent="1" vertex="1">
          <mxGeometry x="970" y="110" width="60" height="30" as="geometry" />
        </mxCell>
        <mxCell id="iHLhnHPvlaSQ4wRw5yS0-20" value="abdrehen" style="text;html=1;align=right;verticalAlign=middle;whiteSpace=wrap;rounded=0;fontSize=35;fontColor=#FFFF00;" parent="1" vertex="1">
          <mxGeometry x="970" y="230" width="60" height="30" as="geometry" />
        </mxCell>
        <mxCell id="iHLhnHPvlaSQ4wRw5yS0-23" value="" style="shape=image;verticalLabelPosition=bottom;labelBackgroundColor=default;verticalAlign=top;aspect=fixed;imageAspect=0;image=data:image/png,iVBORw0KGgoAAAANSUhEUgAAAPEAAABQCAYAAADIi5NCAAAAAXNSR0IArs4c6QAAAARnQU1BAACxjwv8YQUAAAAJcEhZcwAADsMAAA7DAcdvqGQAAD1dSURBVHhe7Z35kiTHkd49r7qrjznAIUguyeXKZPpDZnoWSQ+kV5HtpbeRVktb2S5JkFwAA2DOvurIW7/Po7K7piergGlM9wDD9hnvrMojDg///IiMzIr+9h//obUfEcWb7btS27bOfRRFkfNNqNls+6hp9h29p3t6P3RTTNzTPd3TD4Tim3qgHyJ13nYX76O+878v3wZdL7uLIj7UOG7Xf533Ud/5Hd/Tforj2JIk8c/ShY/KE3cK3sf7qO/898F/CdQHwo73Ud/5Hd/Tt9O2nO7D6Xu6px8ZbTsJgfkexPd0Tz8yEoA1aaqw2nmz/57u6Z5+JNR54nsQ39M9/Uipy4e7Ca6Pa2IL1p3Z/ruzjTVRDTdW+7dAcYtA4O571DYWNbUlTWlZXdpAzOe0qTiXs95hvkqi3sU3pe186J7+8qhv4i/6h//1j3s1Yp/C6MhtqFO0p859s5eFoMil8eZyWaiujVFbg1VAzN6GMhL+ZXUMOCOrotZKwJ0A7xSgZm0FiPVZ0/eAhmLLOLFmMLY156ueCCsYcd2+YEaWchd1RuNdabVauQzSNA1WmDo0RsqRtH+XfPaBf991oo9h0cr36eNteLp9ElUrd7ZUfbjWjx+kJ+4E3sf7aPvo9TMTlD2NUt0Yl0YzaAAaYAuhUVlYVqxtXFU2Y794jgce50sbLi4sPYfz3AEeJ1xPGQ6Kph8Ut0kC7bYcOmB+F/nc08dJP0gQ35RwjJfgva7OUYvPFIPbCPDFmt3D88Z45xle+CHe97BY2fD81KLnz636/Atb/+nPtvj9H+3ssz/Z8tlzK1ZLq+XRky4XuXvx+UTGNSDf0182fVQgVhidwH2daqrW6gIPzDatW/LcBq5t0JY2K5Y2P31t6TdPrf3TZ5b/7ne2/Lffsf2DlZ/90eyLpxa9em1RkRNGYwAcxJllyXBT+t1RB+DrIL4H9V8ufVyeWCxvHCLMNwj/6aFnyuch22Fd2yhf22CxsPrrp7b6/b9a+cfPrP7ic0u++cbGr09sfrGwo2VuB3ltU7z3APBGMGkx4TiV1HefKwqsAvI93VNHP0ht6CZh+ngfdQDe5kuSpyKfTdmMwd6kIOddKnw+swYQF3/+s7Vff23D0zNAm9sRID3ivJm89rqwpCwBbWUV3rsid66q2upS89x3S9c9cSeTe0/8l0sfbHZ6LyD3zBTuU9ZYnpFiu6t196ijAuBlHDyIE5uXhcWEx+unT23x9Vc2On1ph3VuKXlu2mreurWIskiXaUpsq9HUlr/+1Ir//J/s5PFDWxSNZXWKR8crZ7vbuo/qPf3/MQFyX1Swd8b3htd9CLoNT7evh5p89QnYHmrQG/E2/SA9cedp+vhdSVeIB1Fjo7i2Ybm0+OS1tYTMybMXhMwrO0YMsyS1DO/b4m3LqrEyiq1OU6sGmeVxZCVK11K/hJuwX7d4Uq65KfX1reN7uqd3oY8MxLJQ2DgAK9YSDi3QEM8Ts4O6sPTkxMqvvrLq6VeWnp6yD2BzekXYXEcJnnVg1XBkq2xop/BJltrFOLN1mlghLw/AvRXE6gTV+nQj6utbx/d0T+9CHwzEXY7bxzelFmCJA5gJiSkrYhuznVelTch3awBcEkZH56c2BNSDprIa77sidF4THi+TzBbDsV1MpnYxm9rq+MiaTx5hAQ6slecF7DGgb1tyYt1nvqd7+sD0g/TENyUg7P8uQSwGwAJxcnZu8TfPrP2aMBpvPCYvHgqNTWFNQqhM3psPhrZIM1tOxlY/fmSDX//KJv/hb2z861/a8Mknlo4nlsaZZYTSWZZZpIUf93RPH5juDMTKJy/ZA92Q3G+znLC4S951Fydw930bolccaHNsU75I7z5IKSBrGmuePbcWDzxanPmKrCGnCNxaclkA4mo8tPjo2CY//dTmv/qlzQHw6Be/sOTTJ9Y+OLRmOuHcyGeltVBE9Wkddmc4+v9dtfE6X/anhwm2nTdmyDns07F91J23TZsytmT/Zpmibyv3L5uuZBa+bbP+hc9X9Pae26XvNDu96wRv7J6r25iuoziaNCYKhTbCaNm3yScV/ZIJ8i981rfOsgRFY7sVJmcKYSPOoFydqwZ43qvjAit7S+0DqIecP1utrX310rLf/5sNX7ywOF9ZRl6rBRs14fGCnPhswpmPfmKzRw9t+ODYGjxxkSk/zqzkvBVl19RV0bJK7cMTUyFhOIDed8+W8HwXhZaqz5t+XLLaT/ti6lCOTrfCyjLk1ZRsNZnWX27L+V4K17diPtecr34acpNMjO9Ih39EJ7QhakuO0RbJ9AYU7bkuGKR+2pf7q+03p93l3pQ0VxK7rBgXH7fQL/3V8GkMg9a69NkfMNPBvo92H5FqBTz0kdd5Ta7R33/L2y79ovDxLVJZO8dJVh8gaAtmDAcG8R3l1DWlw4HDfA5C4JCXxSd5Ou+FVI2vfA4g1iRU7gsupLAt50UwamqZzikbqziWo6wx+e6TqLbjFy+t+P3vLMULD9crS4o1JwIhwuZ1NrIVOfDyyS/MfvErmx0dWjQeWE6tue4vAWIBeYWiukHxNm0PDZ/2gLhtBLh+agVKKGoBXgdkQK+Pa5AbJUNwNcQASnFKwvgc+axhwnhXmLepjXSMJgmsytlpd5kMiDSGtEUPdSDzeECZAcTDqCBSQR4Yh1ZG40Z0M/Dvp5uCeCPH90w5OpIgz0RmHNnqwRcEHODMZ41h4mMd9KRhX6OVfdLjG9C79uLWQCzVy+Oxe5IG5azRTilKpDVTKH5FLuqyYE9ndwKIKTMgHgFJKNpubBvh64DrOg8tsCdtZcOkgTlPCzLIU2ty3QwQHy3ObfblF1Z99gebvH5tgwJ4+jmxAQdbDseWPPzE2t/8RyuffGptmnAtg0brGzxtNMDgYCxKB9kO4rxd1DYK6PupTAKI4x4QXzQDthm7ADHdjtvCsiS3LGYrgPuVb1ONbHUsRSay5hXf1xiCFd63wXDpAQ6zgTWERvLC46Tkm0CMTOnnzejjB3EZyzii0fLEkqHufmxQIV1LZBQZa4FZ4ycQ1yhz8mMHcUnHnq/GlpeVh9MCdSWXyjZKUCE6GEC8RZvCpIDhE+erjq0eZXiNAByEhzcbAeD5wGw2BHD1yp8yylKYsHnw7GvL/vSZRZ9/bkcrhdH4f3kovPA5IeZ6dmAHeODor//GzudHKD2enKIFZIE4RACAmcHZSTcEcQWARH2e+OkytZJGNHhdhyzecpCWNhm2dgy2d82nNR7aknLQD5WJ/7azUhxZ7vmMvAZARxFHKNnhqLEp5cZR6eNzM/r4QVzFYRw1hxI0s2PJXMCOAaz0JIzfRwPiAgX+8+nMFsschVSOhmdmq0hPiyVaB8ZV6W/+DV2QwK6Arn2xexkFMsqqs7iy+ai1h5PEjiayloTLCG+Clo+1Jvrf/2jRH/5go1cv7JgwWs8IF4BymZELT+fWPH5i81/+ynLy4dMM7ydA4qU7AAvUGpVkj5fam9vtAXGNVw30Noj/5Tk94XBDiOaTUfXahoDtcJbZz+fmUUcfNfRbAJXHjWjzqkzs1SqyZxeNXZBqSK7y/PLCc4zBowOzh8gvJSpQzn8z+vhBXEsvujHaLh8Aq6V66EYsXe1ALL4rEN/GCDhp8qQkJFzjkXOY7AvvnFqOJyjxFVWdAW7yNULHvA28bocEd3A7grUv8/OLhnPhivP93IZzqgQvH1mBQ6tQWvQfAeLlkVuKsUjXa4vOLiy6uLAxwk0lZAChSZ4lCl7P5zZ48lOrj47JjTMGCmSQ+2gSQ05L8se+kotqUkiF34B9iPu5G6grI3VFa/q5LIgWitQu4PM8sQVb9Vty3UkYKd2/9vJVMH2qJP8co7BObFkOAHNiFznpBHJrKqUrANs9+D3tolgpDOjU4zMkajApiRhdNFizMhrRMG+j8WXr4383dGs1aQatBAllU3kI65E0OHF9wbK51/OtPJ9mUAFQMiTMHJIKTuExPLB4lFlCqJwOMkvZJoMRWMssxpsiO0mYQsUKT1Fx6h0UlQ1Wa8vwxlleAGIyccmXKmvqK/G6zfzA4gcAeDy0glw4pa6ErZqpJ5T0wH8KoBO90UMWt5dlcTl/B3dY7juW0KZuDkBj3pEMTZOMycPGtBXms7YV3GZTTtjt3cOdBL3BJBSomeOIfK4hL1aZTTrl84T66X8MkyuH2WUadE87SaoqOWkmoQK0pY2I0oZIWluiJSniB5Sjar4xSeF0i6WfOd6uCNVKtjkV5TYaRjaEa3JX7U9SvEZEjirFE6DJlTVnvSZ3zYuVldUKwa0Q0hJQrbwcsjscTGFZVtsgQ3ypJohyq6ol52ITkWMMcOvXJ5Yslv7EUlTVlhAmK8QsKGHy6KE9+PkvrMIYLCsFzai+nlCCZW8HNF7MTqtpSzASfawHHBXe97OKCIwl1/nq5+ZYygHduNDsuty+JpvCjQkiC8Lwipy4IgppURZNcNEqt/whheHMHnbQ8q+h3UVdEOnQfsppKafm2opIJ5SD58CSRBhPzVOUm4nEm1BfO74v76O+87d5H/Wd/11YczQxTmaVt3ayrIiMjGgmsos1qdlK0U/KcU1GIntd4+qxvy39mAm8L0Xro+8F4n2kdswmZsfz1B4eDe2I7eEstgcHqT0+Dt8P4OkYwLibROEIByvde+UbTtHGo9gOpokdH8CHEdfGlKet9mXO82lmYwxDloYQUt4tBXhZoVfu6AV3ZHsIVhNpCrtjgJtNZnjeMQYA7643dHA8EoA3HG84uWSMwA7WQpJdHAOOCCOhrbNfgz3XPTeihUjfAZ3CWffAytlpt0IzTVIpdA6s56rkCfi8b4CVkLn7D+doo/eJyYP4HATs5cKhfIWAMlt7yrwny9eFXawKO7nI7fnrlX31YmFPn13Yl9+c2enZyi6Wa9I6nAFjjpB9LO8ywrk1ECcA6mjU2qN5Yp8cZr59MI3tIcB78mAMAGM75Pt0jHfGoybuqcSQwAEapzihY4D/ENA+BsSPuObhXBMykT0WoCnrYJoC4sR0S9rDHqk8wIlWuiecE7aCavZXCLgGxAlheTYiVJeGC2Q55xSE3niuPh5gEAYM0C5O8fq7OCs319Ie8ZD6nOlfA4jbEisOqGW6PaohX/flnA5cKUDHIvXs28jNH9xdI5USKwTXPrzEZTkyFIH3GoYfGfV50o5vSorgJMOcqOaiMDtdmZ2s5JUbu1iUti6kW0gWBZQo71qctwZiraDSfchZ1ths2NpsUNuM8Nm3WWXjlFw1LW2IB804V2qGX+QzeTDA0XLJEfnu1K8pbe68toNsZQd8PsBAzAH/WKmxPLBPPkiF2ZYEzeTEUU4oz3floBEozwZDG0/nNoMH5NQzQpdjgHNQYzCK+pInGx4Dsil8UDY7ecbxnVzQ7w3Picq3eSjAkm8rpScGQ8m2rLiMjaIGgVscfLP7Y/VxN+HR8cSdF/cS6bv6L9Am1KMZU5WhfSpKHI7f0y6KidgI4ayKMitIbSrNMWiOIp14OiLtVTitVYBC8PewFzeiWwOxupY1eCQ9bA/r3c1kZe7d4moN2PBUEZ6sDSEs0nBl1n1TvUY2bfXKWB3PKUeecgkvLGvZNkvOwdO2JSBA2f26jRVU3Xi6Gu/aVsqAAQg7Y4XNYuUcSLkhBLI1eTreUm/5mG6xvnc8xWPOHKz9PKetu3icY6w23BmGKdeIdfNcLx7wJXZqOANf46UVTm+gRUcEagGYbbfPtzvIQ+nO64ro++aTPndlhTKQgThU/ZHQldft45uSHlMt0E+GkW0c7pTgbNpkzFHJ+0rmvtzV2b/eCX2v+8Sh4Z3CXCcUBMDWAEw+RJMooEh3QYiWW6uzyIVxsojt2WlNiKLbSGOUamgTAD4Zrgmjc8JnPHaCMeBCf1slubPhxSLdEpIGsl/TYVoAUXL8EGEffvGFNb/9rQ2+empE66bbtWnSWo5wi4Njix79xC4oo9asdJpSRKO5pUtSsZdEKBVp9dQOEhB2UV1TkP/nn2J9yAELXTw8tniKNZ/PLRpPwqw5xkdzAv/75Sd2SqimiayEdjb1ykZELY+Ox/ab2WsilO4e85tE7OJ/rSXew8Uvkec3y4k9PRnYIg+TkH68ym0+ruxnDyJ7MCEaajGSe1y8G8K+ceaa9lJYwdRsk4znbro6qKqDcdFntt20/XabNoVp3X2Yfe+OUetlRRxj91U7dC6bzXGX/WWZoYzuTD9nq9xwWjha1omdVWP706vWnl8Q4eCFNZeSIc5Z8ZX95OHMHh/HNojW1lTIHi2VZ043d0z6KIzFDvJO9F/XR/4AxE2tlK7ad2VI9MPwKM/TX8cKOyrqrKKJvVzG9vXrxk7zMHVftwqptSRwYU8OCvvpIR4REEda9wuYYryzC7eTPmVpYkpSrwDwEUCdfPGlxf/0Wzt6/tImUW15XFvJtgRIBaDVLaaSAfVJMAZPs9p6mqmfZGX3vdUyDEavxddtMOj6MT7Z+XBqk7/5tUW/+rWtJnMrMHbqgxT0n148tleAuKyHfiutJZIZJ2t7fJjZbw7OALGU421q8MJeD0Ywxsgtm5G9WIzty1PdZ1YkkvnsaUMkdDiq7OeA+PGYKMnXZff3X6MX+71n5c8K1SX4EN4HkrEhfPcIICMYYEtZmn/Qq313Esbay5ZxRk/C2mSlEBHhakU5XdShbdAd4lcrHGyayJQ8S/pC25QmUB6Wkit0jcBLO9CXVg+MaIy5xvNWdMsfltFdAuTauj5pH+fShojoMENPdO+gImKqEXWUDW3RHti/v8LhXLAfL+xFcP6D6JU9OMjs4fEAQ6u25N5/OSytegja/zapDZ0Kf1/aI+X3QUH4+tcNiDK1WIJEAPqsYz5DKuXw8cFbYqVqV5ZwtW6cbA76d/9Gcc58DjOsCpMZcAZADlC1aeZXIA0KSk7I5wxPN8xXNluTW69Wdrhc2iGfj/J1L+vYwepiJx/m585HxQW8sONyecmT5YlN4fn6zA44flgunI84Nj8HjIVuvSlSQclom7yMOtUBRE5OUrocJnVjD0nxG71Y+/JESUcUvncTWV3OLNIZuxSto93H/a40rBbrfvTIvVQVjTx3zNvRTl6Uqa0qoi8Mt8LSVtei9tVlTi+d6OrtDIYIQ4V+eBogfdBtjFT3vKmfOptkSlQzsRwDtqT8szyxk3WMUYwwaBHb2E5WsS96WVFfSd1VMvE2NL7YB0OPbpYKGYkeUwAscjmpPv+kWX6ZHNowGHE9faoH3h/nltyZ5DFcdft0yyC+WwqTQt0XDbI+sAMQy0gO4QGcNTEcQO0hOvF2soOVn2cM6C7ubkPpt5r0mOQAlUalfF2P1nlrv3iwOTbESIm1tFOeQ0yzQ9s3bd4PqbunIMdtkvmVEhPqAz4teigAxKpJASehJ8A5AzTfvKp38sl5QSpV2dm65ZoYYA8c+AUGQPexNVmk+69hOu/K6KTITUscFeTJy0YyAOnMr70oM3u9TO0l3vLludk3ryvqKuyrl2v76vnSvnqxtqcvcvtS+zj2/CziXIC+Bsy6B0/dbTQmBRz4hJXAmgwExt2U17pe5ZT2/HRtL85z6i6dFfXcBX1cIBZyHRyy4vIfeDkEqRAzvBxAANYsrcAeFMPfqyWlBNh93HnHPpan8J+DcQ4TGt1Wt420RjxJlR+FMrrjOr/SQgvyKi+eYwKw//EPPxyip7DkGb7rQwCVvFGK15u6N5VnPcPLvTxr7JuTyr46Ke3Fq2onvzoTo+ynhb2AX5I+nGspLZ681uOSMoW6tSOvrNB4Y5UDpJExItYjlQWGZI3xuKB+edqvT1r75rS1Z6eNPTuv7TlgenFOXYsWsOGVMS6vzsltOeebU6OdtX3F59OF+bLUyuSRJ+jFiJSL1EsC2EPq9zmGKPQFANOXV9T5GlArQ7oL+qhA7CtrBIJNSK0cqAOxcBfmS6SEerwMhSF8WotjvdFyF5OHce5OBqjiHEB2vCbcE9dak60X76WEV5vzc9qnTKlMUBCkjx5uqEPJD29IPNW5bJ9ADYwIX/US4BCyRnjABsDU9uxMwGnxTOS2rcLjfj7nGk3eyWM9E18Abr6/AhA5nrCmfGId9/YyGKF+sUZPBlSzxHj+PKZu6uPa1yvdw40BK6CutBY/eHct5W2zMaE3XlsAVbjtIf2AdgwAdowhqew17b8g9Fb9FdeV1FtIkfZQSyitHFkP/ITnBMJaf21RuzuhjwrEHXWyU0QUhhxA81m5do5XXAG6RZbYeZbayRAPMh7YxYRwrIfPxyM7Je/p47Ph2BaTmbNerHc+ntjZaByYY68wEK/hE3I2fT+HL0ZTW4xn3oYKIxHyPw0EmbHA4oD5IRFGTxNmripiAcp/PxIjOUTxAQ+gFbs3K+iX8tz0gEs1udTPemFCjbJL4Ve1gCfPWdqXJwXfQxkNHIAcoiaRXpKg75pEq7j2bGl4wRqj0dhFgWcmHyXBYbw5B0+aaJYY+ftsMGmNz8fwWbPHEceV+NTN0MH/8gxjcGYAWc+QA3zAqbsG+0gLdDSJRaF0KyGNTtjyWdfd0VDe8uz05kMPVbXe7TzB8g7t6UljJ2uESSilNb2afJnGF/azeW6fHlY2TQoGvfJB0f3jXaRZzhnuNvv6K7P/88928OVTO2RfGekhDLwyQk4eHFny8KFdIOycAahgLZHb+bihOrirH7TTBwvqZIiP8K02+rnUbiS7nLf7vkJJmiePrHz8EE+O0tMtrR8vSfj++esje4Vy6qmlSAros9NLe3yQ2W8Od89Oa1JGD/9rJl+/FaVbTM8XI4AR2QV5qhER+LRZldvRsLKfHzf2yTi3YazYYLfGdRmFrKJCWz2ossLzLPLG/v0VnrNo/TaMQOU5LDLRQyqT/LkDRrfxtFX/JSc9YLLmfJUrUJKMOAB0QlGV9svD2A7HiU1HrQ1TmQt8ogDIdRUXaQJKYH21qD1UPge8JflzBCBjv62nUag9s9rgi12AV6vj1H7KUJisSTSd4E9xVbpNWfnio9k48tWEs3FqSolH6xNbanb6dYKhAeDKnSWYpqDPrY1SGB2N2xXmpWLM6D/9+S+f6EUOG324Ru9zdvpb7xPvI1247+J9INb9Y4U0p+XYnr4mjFoRfugpGxRFMJ1GF/bpfG2fHoRbTB2IpSY7iVxzAnCmr15a+39/a6PP/mRHNEKztsu2shLPe/BXP7fDv/6NnQ3wALrVhLLJG+qJpV5ioCOUcxdJEXeRwuVdlOHdzobkaAMMCaFjBCjU74Jm/MuzKxDr8cioWn8nEDcopH6uVTP/AvGqnTiIPwdoZysaikEQUNq6sMNB2Qtijwa2thpftculUwsceLpkbKR+9uJsbU/P8KicEMUj/hCG8kXvVhsOM3uSvQ7r05F7xlZlysjo3WTKT7XmZb3G8xaMrfrJOeuytKNoYUeT2I4OBoA5skEkEAMSxjJHB2ixLXPyWvJQAVmTYpYOPfDWK4g1x5DoxRCAiappA1sQLRNWM55rELwsalsX0jWlBjJAGHjdXmpLG8SFzejOg4OhzWeZjfNXtmjm9sVJStivZUoYYIyRAGvNGsAP7WCiSdIlxoJ2ylngJH49vfDVhH2kyOt90R41+/GRKxwDreeETK/W0cvuECIw9rBI94mXKNApVlfh7BmK9ho+GRIW7uSRvRoRMezi4W4+2cNLBnnNYFe0SW305ZWyCPIO781Gvx/SBI1UTiD0XBSPtiT8Xeht+oS8ERGU1hdrIc4gaXxJ7OHY7KcPMvvkMLLHc7PjSeX8YFLbo5nW1MdwCgBSYwgw3qW/STQBjMqZVyWABmTrUu9oU72MJ/VrFlnPV7++aD0fNuqONUOOUYwa3fNeUH9ljw4S+8nxAB7Z48MB31Nfv/9oltrjI/Ydz+yY/WRTVK7XEyFz5eF4dK2FPl+s7WyxssVFLhF4BNHHh8PIHs4SDOzAfno8ticPJvaE7SfU4fMzd0AfGYgJ6/BCesNFMhpajLctfZ/uxNJZQLJe57ZYrQz9ANR6B1UCoAk9AXUvY8r38QJjsYtlKHaxrs21ag0Xp3Z3tC+s/VDkM/0orJqm1pV4ssW6whvqIVKtaFNISnQR1TYd1HjR1o6nZLRZBagLSwgzo4bQor5gu/CwU+vhj0a1PdSDMTMtlKDnRFIhZMbA4eQWeMtVWfNdMhJFhPGxvV5rIkvHZKRlRPTj8ZiTQWtHs8iOMBBHU7YTszntUSSn1VRJlBOh8DlrbTodwFMbjId+F6HRY6VEEOqrIosSIOc0Is8BuPoObYO3o6ghhPYVbzIghOMxhoxtRvRwRxj+CD2xBpwRTQFxMtRtCglf4SthGQebZWHFOUpVK0cLEyay8ppA6Wet0NHqsnfn7jUtfZwTGRS0s1uY0v39wYFYmkhb/VYbrFaWWktc6jerBG7JERBjKFOUVw+7HI1bOxjmRBaEtloRpdfiytsRxou1qmkQnZMWrGyu94bhjee4RL2xVDmYHrJXvuq5NiBWiuUZJJWv8MyaDReAtRrf6+ffAMM9m2QAOPGcdpRp7T1t0DLIfEkT9A7TcHuvrEtbAc41RqigL7RQaPTjIqUiw2xsmUL8b0GiXmKoEDoikvCt6iTE1vveXPHugD4qEEvZBBBGwQaAOB1sHtRmHHR/eKjRWhRWL3JfxJG2xHG+XFAx1S7Wui+p0NvsWrWH/WdkdrBerav3fWkSzyNoyNVFl/7QCGOnXNaXbOIpa8LpCuvjizGQo4Chmd9B3NicMHqOhx2TZwfJAjCinW3Gb9qA/DFpzjGTSxvLMw4TvDH7vbqMugApABMjMf+nsH6lfLaSYSWE1yovhKd778MsA7wDGw+0ppnIq86tKTcPwWiOQKWgH5rgXK5ye3VyZs/hc/Qhpy/68Xj1Q5gdj8Z2cDAnH57ZmNRHQBb7rPaGu30D0iK9QCLlej15podvnCWTOxrMDwhiVa1ObjorS++k79tJv/Z3x/YLRSGVBrwiVC2mE1v7S+A1mSO1EWix8Xlp6cXSBsu1DfW8LwLXI3oRyqhwu2N/Kkpt8ir5rPK5PrDC845VYz9TwE5WLhw8GEZC9XgtobxwC0XEuS6LK3mEkjcRhFhN7NiPc62vdAplBO+i8sWhLNUjzyOSgdO5b5TzBvPHy+Q/fRfrgTO9SbPyt1noZQ7UwnG9wWSUhV+fTPG2emtJJwuNjbO3EIWnyAiPGNWAWeGorgH1mtX1t6Gq/CY1vTXV7/dzrVpc6L1qtc7RpJ+msthLXXq0dZLqjjL6Q7lNidcnx1br9bM7muVfNIldlLHfnz65qEiryMO5XLPTCn8HVtD2IuT05LnTKR55RB0SJX1zITips8gCjjE4sY+lZEOd8sLqu57MuyPyZeY35a5LN6FGcSQCx9b6U0Qksq5Xtb+SVta+Yj8KEGlmGDtKZVr9dKUNb7PfRmBg68HUVvMHdvHgsS1Hc47hHojV2lQvny+s+vobO/1//2b28oVNFAJp0Em8VJ9UTBZbM4wtDaoFOMrU6iQZA91b9PsWAFCL/aVwO1nHdzH9zSo8DxxLUQGLROK3KPirtdT+g23qE/sTjmuZqDWaY5XyyrcAB4yAQsoAFYTEd72Kp6l1H7XkM4qlf1wfegerTFDnK87Yo3uq2vpnr1eTSRYYmWhIMgCrNsgbk6paTrvrduKiUP0CXcz4xITUCp0TPGaKdqWAHL/prM/alyWaJSZURa4ZdQ/YLy+O2G1N2bQajiwvgVU18FlsrWde06Aip4/0TSmQXvTQEr4qDz8eljZLVY/0gOER8giHLeZ6nwwz+/K0ss9f5vbsRI8VDjAaY/rEeGu2Pi7t04PYfvOTzH75SWwP5uhKSghOLt3qYQt0QdGIjwehu/+CCG0uC3pGWqHp1Dgp6VtDaE+fyNN1rh6q6GNKem8sG/OBCIWUtL0ZIr47aZ+4j3btDxQDLFEhRcP62mxu7XTmv3a4xuNqmcAQcE04pz07tdXXX1vsb8MMa539aR001pdFokg1g6UfW5MXCF5JLCh8W0sCXV3zNovkgTuvH8oDirJWnSJqV9DIUKe84ubaKwrHfeuftaE8tuEa/dXODuihDB0P50kF9GUfb2jzNaQoGAtQ5/JwA7HVB7F/8Rb0ssyJ6tdnjwzgy6NulBlLgOCvEtJReWM44Mj9r+lXFlREJAOgnJaD4JpLM0tHhMHktTlG73RV+VLI5YLSG9KsFPBSf4SxkQeeDht/HfB8ZABX93s1CbegrAW5LSBWn6mv++vk+yQ/MV993Kg8wohhlDpp3AV9QBC/f5IHRf1DeAdYs/nMssNDy8mTcimBwjt6PMmw1+vc8mfPrXn2zH/eZYwS6E0iWkyie9I13lleWAadEhkojICsMYNzd8ODdkChvqDqUhQHiW/F4UjHim42CHqjnQ485KMHL7ry3uT99Hafb09Nu7yzIw/jGTvl4xv4wvRTn2i691yeGXUO9331FFFG/kzojGt/pQctlnj3FW0mHNcDFPrVkPFAE3GVHYxbm2mGfETK5e9qI/QggomJB/Ri/bdl1H1XG9UOtecNacNhtO6CPi4QIzuFoiLNpkZYY63Qao4OPU/23AovOwDJc3i8xNJ++ZVF33zD5wubkEdNGBQtv5c6aEJEHHLgMEhulTfjuT2s75OUfr0xMJd1ykTJy4X2aJeD1793yt0pEIzRkVA8ktAVHnorDNeEHQZvk4+HeYBNvdfYo4SNtw6PSwaP7hQadTuksmVBnVQPn9Uer13A2RhTzvEHMTiuEFth/ZrU6GxZ2ouzlT9dxMbD51hpBscSoi3SXXs4Tf19bUdTRWgh1A+vROKzSqJa7P+mHaGv/tfbpjwCloy9Yd6aDXXjsL3v9ugNXfmxU0MeLQuut2FgcK0ckMMC4PTJJ+GnSXU/kDCt0kvr8LYHhNiDV6+s+vxzq79+aoPT1zbJc5txbIzlH5CrD9jqUcLOG7t39pEUoMLAvm8Kigp7iBZUQbPYypsDgLp6daT7zjHfdIoTyghb4gdvt865Ot/ZQb1fDa7qDCWKwr7bIYXEipo62p4d1i98pHjRGMCJFLhqKWbpK940CcVncufVqrCLZWGrHA/cKizX5GZtowyvO47taJbCbPk81+/cet/cJMLBUCm/9nTHaxL5SGy2Il3Dd5d5JyOR5HzV/tumjwrE/lOjGmyBGPHmCLOakAE/PLZqho8djUiJBv5e66oobMz5U0AbEVJXX3xhyYuXNlss7aAo7UAvugPsEwd8bXoFrQbwMicWGAKa3zv5BJ3YVWpTn5g6PUcU+1EtdtB3bTWjG/YHoKKGGIGuLFc+3x2UVcCVBwvXqVyBvJ/DiwR0TmCRl3E73Q85L/J2IG+aHULsxGe1dTtHyxkFbJ+PBsCaydajo8Exst8ZWRCG6DoPe9szmxI6Pzgc+KuQJ1nst7VGvqZck2Vaghseg6z1gIbugyvFpSy1QbWpQYK5yF9KSFtCSH81Dt0Y3RV9a03KRzqBvivvI03Ld3mP1pnq1kK3EkbXutLyXS+P09bP3RzfRSrTF9QDTp+VZHByQGuPHtr4pz+36PCBr8LK0QRFQnrz46huATL5D/nx+e9+b6f/+q/WfPW1HSzX9jCv7Jj6jyh7Qov8hfIMFy3y/NuxsYc8l9vB29R5mY5TrfpJyM9gaY8mdLTQPi8aV1a9VL7S0zrabjyQOE7HpofkNYMu5U5UFmVjyjw8dI+sqEIKpnuxuterdeH6CVXa0ce6ilI8lNZNBIFXEwveVj7TG5e7qOubxk+/nLHd3z52ELJVWXq5f7dPpOu1n10S0OV5Y4Cnmey6zK0uMMACKn09J+9d4nmTWK8wHgPWqY2IxCTCijRJMn38GPAemo0nhM9DDAEAVkpRl1x/UduLV2s7OdcKsbEl2YFl2QzPfWCtnAODrdcia/GK6kZ4zjXhudRNyzVbwvW6Sq0otY8+ek9un74VxLdLYcDczvFfAyXa3obP300cnVL4NXzWvVgBdq3FuY8emT3+xIqDA8snI6sGgIDey1PpfvFsTRitn345ObXyiy9t+dkfrPjTn8mZn1r9zXNrTk8tZvCkr52iyQLfBmnSJfGfPiWe0P0dB4t+2VC3XjKrtchBT3wlE1jPsw4JJ/U6HD3Xmvl9VF/lhBgEb384TxM1lOW5Pv/0PrJFUdmCcHONx9F9337WY3kCNOVJvt5CkT51394WRCej706cr7HblNl/fQQwI/JZ0hxcrs9ZsLfFAxc5/VmUtgDIujU2yEY2nx3YEag9PpjZ0eHY5geJjfSCylS/+qEFK+TKAHi5Suz1eWUni8ZeAeKXr3PniyXnIBuXPvUlypkxBhoXTIPvk/HUYhG9CVNPcek1Q3rGuMWJ9MnlNij5r//9v/2PzedboN2d8HuLIGKFkBbrDEXSS23kK5R76omTyte9How0uaDB4ijn7xML9o9rpQRB4dxKA1TG2MZ4ej0S5zmULGhZESoheU5XeiUvO1RYhadanZ3b+uzMysWZVRdLW12sAAeDNkYDRkPK1MSQJoV0cafI70byHrvoXNYcwK4J6fXUDYj2NEGucIhcdO/WvTCQDO+WUljMdz1FVNEHZKpbLmQV7kGrKrE1iqbVSvgmb7d+6gW3wTggEWSW4OF0R/ctxlNJ2ZU5K5TVCqmLIvJX0uihfCm1fi5Vt+cmPtNLGxGo3m22Ly8MHj6Q8tUVbTzTW4RrPBruU2On/o4pcy7PmQIgigurucJDGFpjrahCQ+D9qfS2SSVSdJyxzNIRHnfgK7Cm4xTPyjnokEJtrf9e5ZEt6cfFqrVXi9zvfxd0drXKSbe0HlrGAL1JSpfvCnXRijHl4N56jkvO/ptdfE4RkHRMbdQjm5nWIEjBeujdjdxu+rhAjCI5KhFwEDJXOSuPImRLB/64m6+fXa+s1C9E6BjnSBHcAADWFuX21URa9bNeW74srWaAkiPdd57gwVES2q9cKSRh7077QLwmRJb30yyrfGd4wIBwVqkFypUD7pxjPqEDOF354BwPnAOwBu+qWyMDPJYkpvxOT/tpcYRkKNvTYMBksPToonu/hNSD0ORtBvxEKnouVmttBOdFYf5ooz/DC7LeN4iVTKndipLG0oFpeK5YINa6ZvWhZlC1vtrPVDWMmf+eFp0rHOTIwe8nR56uIT4HOrbb0xJ/CgvwLqhT/VGU42vpdU2t8Lux6Si1KVGcHppQzqu3dxR4BH9tOCJjp18jkn5qIkxjpW8ytMNYszI68W26B/Eu0iyEkwQbhOmyBpwOb4CsXz/Uahtf2wpQlev4SigGX7/eqCsyrO8QjdVrVGMGXJ6tGQ8tffDAmvnUdAdRlkE5p4/kDWgfiEsUQxMkWrVU1HzmXP+9JiXhyvmpWyDPieqWoHO5LuycMBJnghdprMSTxA0GSkpE31sAUuK1fHLKi1B/qUjf6aO82jpHobn2Oq/W8tZ6Qqf1PJ2k23/KRJ5YD+bfBoh1B8AnkxijyaCxA3lidECm2ZuAHujZaGX6yj0FTl+BRh6t92LplTryqDnGJzyowVaz1MvW1uoXse9y3Rq22e8lS8ZaMqpVesLgEBd8MM3scDogJ5Ym5V62frnT0wvUTOVrDbmHz9IlxkVzATIkJSeoXv1SiZraR+8TxJ0cPzDJnr7N70pvKc3GUjM8VgAC/S7xSqt5jo/t4K9+YbNPf27VdG4LBKpHU3E8Hnq7wcAg6EF0vSTmgPBoguITJPk6a1l9eYtw//T9k2ZfJ6MYT6CQUCGbPCu9oD7lW3qRXFFrMQNeBGW8gAXgxaq25YJ0gAOFXDNAUJowHqY2GyV4NfqgsuibZvD1sL7CvkJ5IYa0l8kXF8s1oT1eTkDhnwyeSxV5SxXDWHX8Xan/3DD2jCPWJnyGBVz+uN4zJmlU+Vs3DiYpxlbmkLwf8MWp3osVXtxXtLoLQei/zu31ybm9enlhr1+1dnLa2MU5ssJoKdIQKLUIBt9O4URgSWujSWbzw4kNJxhQjCFWwtuk0HqKLAeMiZ5a0ovitbBIL+wrS0JzrMLJ6dJeny7s7JzQXrpyB3TLnng3hSV7IVzLscB6UbdyNVnaAbnEGOs3G5rf01No0wlYr5jdSw4sIVEjv9lIAXRMcSSf9MuI8ZD8Fi6GE8IjwlY8mr+BUsPJeVpHLT2L9ebFjHOmI0s/eWTtfEbLBHbN/iq/1OD3094hVDvVqB6OEILCf+8J1j1FYfzNFrXewCEPjuxUOByUW54EUOofB2QE9EuRI4CbAdSE8jT7myiSIYSW19TsgL+ZwtuPTMinVc51DnMMKwxAamPK0gyxQvkV41VgzJQPpgBuGBc2H9awJuZ8BCh2t2xkANACWLdkCOUBwZqkUz8yp47J0CinnA6IyLQckrFXZKSXvasvKSGybjPhd9GX3IaRQl6iGPRD3q97/Y3kFH5WhRYhI3l5HLWf290GkhE4SM5tTMg+GzV2NMYTj2TwwsSi0ghFcSpPcwPSkgHw12+N6Ufyw0262lMTJSfK2fUW1Z8eaDLMq3iLlB6pvD5+V/ogIJZaKCTVpEuJQhSEN1Wu50zDaqqRfm8JpZgOY5sA4iiWaAr3SnpwYBe9qYD6Hqx3ALH8sbQ+PGKQI+RqNLXowSPSQbSEUS0Y5BUhUi6vozCN8xTSXnBlSS6c/eSB2XzujxBie1A+wOFo6icpym7aPVwaYPcunDJCeQf03wO5ltyc/mv23aMF+uOTa2IMEZGfh73+kIG87kCTeQA0RvEBTYbi600WOsd7hoIK1BKSxiKA6m2OCWXH5Iby6LrtJY+8LgtyS4XtGIdm7U//TAcYj4z2OoCQ8p5wWrPv/j4wjIfeM+3PDpMW4NKUqQDiwg3DjHBaxpz0FJmorWoufYT1/u4pnlg/2jeO9bAHl9OeVBGC8gZApV75+AtMmwcZOMiXoA/uYZHPz6a5vwpIrwWaCcA+C608OcynSMZ61FA/d6OnpeYDswP6elbIydQuX52rh1tkLLT96Zwx2wHioJNse9jvsLD9rvRBQKyGulSxWLpXWVdYSkZAVl6KNtJbErS2FRDrZ0tdSAhb70nSNbupE8PbJEjqr8ghjRD9ySHqHOOZp4A0mhA8o/j+rK8YABTyEnr9y8HUksePrJ6SE3OdbmP4wGrkdtD+gdh9na8RFhAoWwsV5HUGeMLRCPuPkfHbHQBLYE1cgQRSDCDgHCCeAR6FU8lRNePOICuSkWJQrl6+rmdgh4PMnwpTXu9DgXy8rOvMOOjxwjnjMIMzQKzfkfacEKVOGI8MEGjiSauh/FcquQbrQJs2HeohrbwSjDhbZgLs6naOPCb9o13qm+ZCpkQUSi18+SN9DOMYDJ28rUAiz6xQtyVP1pr5IcYk9XkUmWtyDgxCSySjVwDJY+q6AWM71GIPClZo/rNDfVZ4rro3AHdDQHu8RpFy8lBv5+0L0hvd9hqktHfTdz2lJZn/ZCoZbi69Rh2I++hdACyK/vbbflBNgw+/b3KBA82iIh9TfoIRlr+RZbZygWJJESMGkUEirNFbEzSwiHhTwruRz1xrQOgKY+QC1GfxGI8i9oe6KwZ7ubRqeWHlamlGvtlWmVVHM0t+8cQKtksGgOFRCSjwjlGCFJbvpt3X+T1etMTXAhMxqK7u8cAllh8cX45Lx77AQrdcqFJXSJHHiNJvzaD88rSSt1IY5cF6b1Wh2W+Mp7N74j6SMQFMiH0CSBVa5ohyUeh9ZfS/IYpR6CsgEwpMqDfTTDINkSx3UYzh8faQu+r91euSMJ3TvU3qN+OlkHqsfsgYAUqfuJTy037JT0CQUXdA0K+LJrNz3SNHQFVV+gRTpfmLWpNQClYSn9RUGqRbQd1bOGXonozI6SRHAZeWyVgo0nGBYrDcoFKH6g6rwcSNnaYHbLW4AxkzBjKUTjTtSXaO7vbrQBdO95E/rbX5/F3og4HYRSQFZcDKGsVEIdoYxCLguCbYpvMKi+RhYsJID/30mVDlJuQgRsCd4DrZ6rv/DEtFrsjOjJbpFxj1dgYtjkhQriTPbElsWxxMbImrkyeWifUXCdwCiH09M1VIRppRrmDphgZXL6XTtZfjov9sPTTFwGmtr+YPXHbypHzW/LZ7PWSrcpAE32WIUCT20dM9bVV5gFVGVK+eoSwk5K9t1RzCkJzQV4FxXPeM5YFUr0LeiNB4F2kuQeOvl9Ppfq/uw8podb/3G4wuZdIvRQMyRMpPdYtJ7el+jVHN9vSJPui579JBFoyaM9f7bSNFfRiMAET1W2MXbt0pFJ62F1wXwOtChfS2D53bFqWPc5eqBVGFcpZaW8CObiwkrmBUiCCqc7VUJ79FHwWI9WZDKZU8g5SoA7Xm+PHHCI1OMmiMBEMqD4yAGVi/vXAD0qNs26LZNpASKCeg3QKvJn5QUwEavR/awAbFwJYoUg6Al7QDm4Oi8kdGgT7sopuCWGB0RaQNAlwIIgOntEcKK9oeF/VND9lLNRQKcpA+yvi5KQjXIGuV4b9YqC7zXcZINe4cY2Sjl6jrllVKSOogZowq3VqJMxvgHBs8pCac1EKF+u6FVbTnHP2k6vSgir8DWikC4IwzvQqW/Yo0lP/yV2PuwGIr75xSp/ooTxgAGvTBe01f/Deu9F3t9i6FfnmArNcxbb4HEtj4SzlJHTwxu9i3OWezjWTgGeeuTLFArefXcxp7iRG4A7DAnuKMuMLLuE4fBYhF6qyG2RV103DVRbDjYc8mBmLglKcgDgERJbkJyRrvEo1P6tAW/7EuFy6KWpfoDRaYCGFQD60iAGjkhQV2LLRu7OtnNf1X5HfQ9/HEIvm8mv7q6SnlyPoXE9r7IhMRxdPcS9JKJ00ZyC9JblJOfwjCD3KMk0OuLZkLHKrDfTT7+iMcXS0TKo+uuQmV5ROSrRZlkKtrcYzOU/s2ZQevhRx1m2sHKSzVenlNIOaEvgje9MJ5hhjlD8Zgg0+Xg/eVhvrjkw7IcCxQ+KJ9AoA3AlIbOlI/fIZ6c+42cYQSVaeuCeMiLy7DruJCNICB5ASFzb6PPioXl/B8ZKSbW43y/ktXdtB7BfH//Pu/Y2wpUD14R/o+AA/ilAoFxRJ3g5boZq2fQQMpPjxFIqFwrl7/soP2tSWUEKjDgEhi9iV+m50aUO1VvZqcCcdQWICr9rlXgH3QdY088g66MYgvjwnAqhcwSEb8S2qBuP/ahlC2JdfsbsPpPOX/utbLlPy8HPVBMtculwCy2x1RODi5RnMGfh1l+c+bUL6D2OUiVvmcuamP1HgPBaPhEhJgfauyOaIZcz75MepQ+eEpKp0SQPwm+Zm+8ar7iGudd9DVdW+fpL6/SVfnBH3ppyDnfuofwUAqcXep1HkNq/vKulUKjaQxUpANCxjicFTbjRA4LShc+Pp9absYfdYAXj0Yr618GcxWylOi36TG4f6iS8yverOg90rqf2ApSceq2g3aLkZeLkttJTt5cQG7K432atu1Xc1Xmeqzfimyl7mApIfzwpW6SnXo1prSHNURxumylktZvguFdgcdUBl+68wPhK23lY/q5SXpmHNoR9AhH7keVl+DfvWx5lvk/YPs1BbVJd6qz0nt6frMuZ3se/iuyFXyQ5BEIXbyLxq4MCaBLj+4B3SRfR+5bF97VfRmoFR3UJ6rg90R8neAIO9ydTQMs4b7dqirCeZ/kAuKsRFAF7lcZ1HY6E/g8C980+VBtzYfxLJKHLiugG9yGBu/zq8N9Wi/73YKn8J+XeNfvzOFOgLzjabRLoxooFDe22VqxxVvl9HH0rGdrDK6rfOGtj5eHduwjKRHCP18V/ThQOw6RGdpgmy6QtbwuhiFdWpW4EthMII3zYc7CnUGvk4BBJ3S69+VB9NftVSwlTfwMjwc3B2Cfj/qLH0gl0sTZNO1qY8VOURNyueOJVvJkP647HQWf10GOtb1QbLu6rzGKHZIKVR3x1zHPkUsYdpxs4+tt4Fq3gbcm3TZZq4O5+u60EfNfos10RnK1bGOdfX2AHZt1bxByKP7WcCSLPqYE1SGy0i8afwbirJpsTe2O7fTk36+K/pwIN7AQhwGJShKmNQJ+zZie2Mwbkrd8HTclR3Kr3FIFXlevcWahWYo2OrFaeGGTDcwoW3dt/dPXcs6whNJkQUWV9Sql6VSnew67kpyddvI8EruIqmAvu/+d1UWCk8buu/iWreo4LCEMezr/u2nrmUdXV3n98bhYByu6pKHD593kUZE+XQfayIv9LuP327PLurOE2ssdvNd0QcDcTcw2xwsoljN6vj9UfBAG9b3sNujNgcsVvY66yyFYnppfAjLwjW3Sdvh8ZV85IUko3Csn3W8k1u4brvP6ov/vfwe9vSXFdiL8ZPFAnHY+veuoM3xcCyALQBuD3nZXR+9tM2ubbBuytS+rT3s0Ilst4jvuqyvD86corL6OJR8nTZ1iLvvzh1d39/Hd0PR3/3jP3gmsJN0dP8ZN6JtO+Ui3Ayc/na1Sfj6tl37TQPY6z3YHjafZfczNKjXiT20Y/vBi3Crgi2FKKC8Cb3bVUE2orCi6O1Wiq5UXbQ551IJoS412bS/OzOc21/mFXUK310XetA9ROBHt/REe9+tj1fyVejbtcdx5J/CZwfq5vsbNWz6ud3dN0ktvKrjTVLPurK62q7O1SKQ7Vq3P3e3pPpo95H9pNJ3dUOt61rYkd8av77zLkgd7NjbgPR9wTzss4Sw7L6OC7gd35S6fu7qrwCg/dvtCkwguwVg0VX73k1Nb04aUtVFvXy+3peOt8+7VIXNRuyAEHs53Xndud9GQdGvrguke6jibQCLrs74rtSVq/Lqq3K39oe8PuwLfNX36x78bdbf7Wu3WW2/Oi/QVb1vy+eq3Lf15Yrviu6yrnu6p3u6BboH8T3d04+c7kF8T/f0I6d7EN/TPf3IKQ4zs7vJ0/co2sn3dE/39GHJQbz3FlIPcDv+MZEbqx3c17dt3kd953d8G9RXz3flvr53fFPqK6vj26C+erb5ptRXVsd9suy47/zvwjclXflmWa39f+mRq1sGowBlAAAAAElFTkSuQmCC;fontColor=#FFFF00;" parent="1" vertex="1">
          <mxGeometry x="87.16" y="205" width="165.69" height="55" as="geometry" />
        </mxCell>
        <mxCell id="iHLhnHPvlaSQ4wRw5yS0-24" value="" style="shape=image;verticalLabelPosition=bottom;labelBackgroundColor=default;verticalAlign=top;aspect=fixed;imageAspect=0;image=data:image/png,iVBORw0KGgoAAAANSUhEUgAAAZwAAADrCAYAAABdESD0AAAAAXNSR0IArs4c6QAAAARnQU1BAACxjwv8YQUAAAAJcEhZcwAADsMAAA7DAcdvqGQAAMZ6SURBVHhe7f3pdiRJlt8Jiu0LdsC3iIzMrCzWsNis4XCa5HyY5SG6i/VA9ShdZBXnDaZPf5gHmHN4zvSw+5BVLNaSGZERvmGHwXaz+f/uVTFTGFQVcAMMAXfXv/uFqukiKutdRK6IVP7ir/5yHh4Z1eSYhek8/3O1SiU5ezzM9L2iBFbW/Oa8IB3rhlmEwu8llAXeynuz6L2HYJYcs1BUN4riui4eksZ101H03kNQVK+K6kdRuyqKa1GYRdhE/X8IisqqCJsqxyKsW45F7xWlo6isKgVhcmed2rFuWZQoUaJEiRKfhFLglChRokSJJ0EpcEqUKFGixJOgcAxn3T7cdfuMNyH91u1r3BTW7Ycvwrp9rcSkumZ/+7p9xkVlXBjXO+KZFx/eKnqzKNyi8caidKzbZ35X+d+VB3kozPOCMGez/JSsG5efA+vylaJyLMK6dfUuPHk6EsrCXWPjeVg3DSVKlChRosQnoRQ4Twy0mzwqUeKpkVUPI5VYD1l5maavGaXAeWJkVcBIJUo8NbLqYaQS6yErL9P0NaMUOE8M+nfzqESJp0ZWPYxUYj1k5WWavmaUAueJkVUBI5Uo8dTIqoeRSqyHrLxM09eMZyVwMDYfmwBFvA49J2TFL9JDkJVn96EvBVlpi1SErOcjPTdkxTHSUyOLAd8gnsmhdZGV7vtQETLjntCmkBXH+9BDkBUetC6efGmbdV301sW6lfWhGfvYKErHc4vrJlDk+g2K3HuLUNSnXsQ81n3va0chUyZPc/KVq/k5/vT4UtJRhIfU8bx3yy61EiVKlCjxJCgFTokSayBquFlUokSJbJQCp0SJNUCXQR6VKFEiG6XAKVGiRIkST4JS4JQosQayLJtIPweyuvYilSjxXFB6qeWATHlq1lHErIrScVdcvwSm85D0fwmgDKvV/JaVV8bUqel0mvz6NBR9r2hhz3XxkDIuimsRNpEOFsTNWxT3rnRsIj7PCaWFU6LEFwAYVRb9XBZXiRJZKAVOiRKfCWKX3adSiRLPBaXAKVHiM0CWILkvlSjxXFAKnBIlSpQo8SQoBU6JEp8JsqyXSNEjLYueFSqyuKBccC+PClCZJRSfiy4Izyz9d+JzjPP9sZaX2l1Zsgk/i3W9UNQanbJAY8xrkEXvCUVpXFeKF4VZlOfEMj+m62MT2sgm6kYRivJtU3jqNG4KheU/T92F0Ru8JpqQs3Z1O4TZfKYnMnJI4fFKXjOnKc7iayZU0jVe55WxjjULJ8zrybmXfrWWXyKz2SQ5+zRUSOeNOCxRqdR0T9+3H/HbfuSNWV6FVHwr0+S9mEf2fnJu6crGbPGdT0NRGa/m8mOg6HslSpQosRac1c8y6TYb0zWzToqpUk2IcwmdJRFGFhc39u6nt1B076FQ2JWpk33jU76TxMvSnH5/Nc8SxPz5TFAKnBIlSqyHW8wOph9ZSmSSq4QFErV4fsfnZGlUIFkqmTQSDf3Is0a8m7w/6+jQFGEFrIS3eG6VeG4TQFCk4xjTedc3dc/SynuEkQicmM9ZZOFtKh2Pj1LglChR4tOxGCtJQPdVpAUSZrjCIHmC193imchCGYtGooEsmH4mVauDFRqKRqJJqMoSqMzqTnTNEb6YdUWMm7D9Y1lEfDYAC1vC4ka6Aey2pts5RMyjZXTjXYVn4LhK3I/hP3+UAqdEiRJrAGaXhrN5J9hKNmvxJ+gGQxggZCCEyrXoSnSRTbWLUK1Dl6HauNKxJ7oO1RokQSXG7AJMgsaEzfL8NpNO0yaAoEisE75hQjjmSTqfVglEAQLF63rPwliNe5o+D5ROA94BfBul08Da6SjCJupGEYrybVN46jRuCsXlH1OZeiqxbirV6B0XaybPiqT5z23kn3O6u5IusqQbqSLBUa3pWiH0PXNYqOvY0FHfmdfDdPDK7hoWDg1e+vMaz2VjhlxYA4VOAzbOxD3iShzoQoznIK+1TpUzpD8+G4n0cMyP7Mye+XQUvRVL7zHxrAROkQtn0T3cQvNwV1xzd4osBc7a6SjCunVjXdxV/pvAptL41C7ORbusOkO1s+QI/LyCMLCTRMu3biGd884cIYOAgQYiCZwqTFa/a1g6V7yZA8JXrZzjgcY3EDrUUgmU6YvF9fmsqc/qmgmkaphVk/jcgMd1vmZhFQocCxp3dful33SXVZ2lYHVZfmRhFmZz5YOlkXRBMY0Kqcq9VXg6sOfWQVEZcyf/7np4VgJnEwvwrb2QntWO/KwpSmMt9b0oDOOxiGkUhVmU54ScH9P1sV5pFGPdurEuivJtU9hEGqk3Ty1wln7It3Gzqd6sfRUEgEUVKyYhO1d4lZ6oL0LgYN1ACB79rvbEWy94MQcEqg9HgWNCh4jU1eb2FF8ETTvMp1uirp1zbxp0fYEkDxdW0HooFjgIF180lTKr1bzs+D1nzKpKfmSB8Mhz0ufpWlpxCuPGe7EueDrWrnMFZbwJvlIKHD+9jVLglAJnTWwijc9P4GTcS6wexTTJ+NhdxhHLBisHgXKdXE9bOGKmNQkjCZ18qEbCiBeCJvnNx+YtxRfakVzbl8Wzo/NtXW+GyVznhph/Fjk/XVPw+PhQdqvDoqG9z2Z6porQkXBSfs3mCF13dsiD7CL9jQI1sdIW6Y1xjulYxn3dLrVS4KyBUuA4PTbWrMKFWLdurIuifNsUNpHGZy1wYpdZUgtNE6f7JwqVKoLFrZjKQuDAfKNAisJIxwJm7MGTB9RMMWWQMN/ZVNdM6OyEKgJntif5h8BphfHkW3vG39PzUUjZeRLOJ6JI4ChQRYs8cQFjXWGptOJ1l4e5dTsicBA0uHlHoSOaKj0x3jfijrvEeukoBc4aKAWO02NjvdIoxrp1Y10U5dumsIk0PluBY1YNwgKBo2to82apIGAQIBIuMFgTOGK2oSfidxQ4OhpjxhLAIiioyYtbsVSXpTud6tvWpbYl+berZ7F0mJvTCqPJn9gzzqARTFDCoM16+HSYl11Oq5sHBCtOECMJkL5+k/Zr+11RvlToVsyErCLLT8XNxqAkQBE0dFHSPTj+hc6VXhOYMQ3eSmdrpuOpBY7HtkSJEiU+Cc7oHTCtSAifK3EWWTILOhUPPRadiOmeiXBzxgVawgd36OS80LqB9dkYUCR9h+fpjhNhVVVqYvQ1CbPapa6dhVn1WPRB70ahxjGJp1kgj81OHfP5RIIGwcK8omvJh3PFQ3kgqtRP9Ps4m2ofRe9E71Oka0rDvPpRISfpMGsySYfRZtKxCZQWjp/eRmnhlBbOmthEGp+HhbOsadZUTRtPuovMonGLpdJ46wKELqRo4ZiVI4Ewl5ZvzJ+wo2XEkbCYuJke4E9D9+3ZNDwuDkVoVlc7Y/ykEeZTxkCcZqP/m46yBrAWsBQg+47uMTAPFmM5fIdwRYuuNw4388Ln/MTvx7R4uuYVCRYJ1VpNgkfpns2udGTeEAJxoPjlWDj67pw8I05Ki3elET9+K87Df748t+7DJB2K5yzodxoxDcStyPp5Ygun8u/XEDh3YW3BkRw/FWsLHAmBKAhWUdTAeWNa9M3k+FQoqhikII9NPYSJrVtWRRVckXHKQGFZJfTYKEpjfc06XlRWSqBTFgry5q70F6WjMBWRCRuzjaH4ke4vH5NAmMiikZViA/50m9XfSeDoujHhRCCZdTEVb6ArKoYV0xqPLOCZH6O88geLezamQxgxnGqYjP6priNsthSFPRkJBzrHq62jL8fcQyDpSFqN6SvudMlZxibpTwmdeQUmrm+akCGNErjJWFWt9mOoyjpZpj95xgQt3W2cZwGBQzqSOFla4nktTOlSI86M5ZCO6aGCpPuwGaoNBA7PLd2vY56HuQRTDuBj+bm6HmKss1BY30qUKFFiCRhsQtLgQ+1cdJYQ3WaiurT76qWYatJdZl1LWDUwWjE/Y96wuDSbK2JRnwiLX2T0kL6teFlXXvXc40ZXHvEKCMIYHwDDjqfp+AmL3+mjiG9Zt54sObryLF+Sb9F1aKsnkBfMMZIwNuEb47ZKLozdIUHnuuYrMeBUMQizCl2Ex/oWYSvcGt2R17KcuJ+kw9JvEdTPR8rTR0QpcEqUKPHpqJ6IsX4UMTYDIXQQQDBZMUpm22PN4BZs5yIxxXzPrk1B31t06yEUZIVhjZlwEJnVQZxivO4r/GDsvIsAUdgWZhTCjEchBKJwwdLgWZHlBW7SWeQhZwOHgmvJEL7labDlfhrK77q+ad9BoEehDhRgdI54JigFTokSJT4ddQmb+rsQGu91lPCBEDpo32KKWA+mpUNzFzRPL2wSiFFbt5+sG3diEIPmSHxNGEQGjaBJmDTjHmkrZ9G9Bcus6O9ENA5VWR7VypXoLFRlfVQlhM0LzYRNmlaFQRai4Msg6+pDkCkd0SkDQV+HcChA4Og7i/ARNFDB+M3PgFLglChR4tPBeI2N2ySaffRIQ8OPXmNism7hiDi/0X31hDALJ2HWCB3iWE+6ABfODtFCAFG4RIa/Cq7pebOaSH8SXhS8JhRimFGgedotZP3JJN1bfnOVZhJmdA8qvpbv52FePQ2zqnuzuVW1dNywdxiDK3IY+BlQCpwSJUqsiYQZwqiZ3GhjGQyeJ8zbBEwiZGxsAeK9Jwbu0zYniLjRreYM24Vj7G7jGeJMmgRzmOA8+Q3MyuG30mRClbEZxmhw88bdm/Erxm8UXkrI3ApnIdBWyKSOnssgVitg59Jqks94vbEM0Fzf9HEd0kRaEDrkP98Gz4vFV/7q//kflKLbKPIKugtFXmpFHmX5d9ZHLM7HRlFcixbEK8K6HmN8Le+LRel/iJfapMjbrADRuyvWrVjPoBnXUnGK8YPiM1koSuNDUJTCdZvxumVFvhhlgXzJyRtQlI5Cb7tbXmr6RsLIat3/GGYVMbzKlZieWzYMZFfro1CbNtUG0nGN76Lh082T983CHChEXt0AU7T/ZDLlfOZrrbHszXzakDHwf9TL26rQ/BbxDGEpndXUoIrVSWP8nhbmyywdJbAw6Nqii+461GRVVKN7t+VhTFM6jGzkp2MeJggyLJa4MKlRU3dqYT74NzpvK7G7Ipb1IY3u+m0CKAell1qJrxJRqKCQsMghxzQVMZQST4+5LR+De7EIBhfXLmPRTBjhYgwBFhOZbh4b2jQim6PLDO0/6Qqz7jDGnc5McMbldxYClqMExBKcc43Bf973MSsfG5JQu/F+Fh6Y/rQCsLAqmVyq9Fj3IPGha1OWjnm2pcenngdKgVPiSYHgiMIjHk17zEB8Nj5X4hlhsi+e91L0QvxPxxnHI/E3EZo2mrhRFDzJ75+D5ZgTgMhkHt1maPxJF5sYta1Qbd1sYty653OMEuGCkOE8CiGElhi5d6fhkYeb9ZXewc0aBwl9xKorwo0T+yEkddzuF1AhYl4qD2P8ECqkJzpt2HhaFH4IHOj5oBQ4JZ4UeUKEbthqrRZqCdnvhPIEUomfEWbN7Ip/74fq9EgkoTN5JQPilayfrsqXrqm62C3Hmo7VhH6GsrTZ+Ag82J3qXbQOKiNbcoalZ3xMBGuBeS8T1btE2EShY+/B4BE4OEK4W7LNh7E14hA2qqtKd4U0RgFl7yTnFsYdlAsEEl1oCE+lA7J3CJ/0MCaFsEkEpy37A5UCp8RXjCxhEwVKLSVk0sKmFDjPD/MpS6t0xfO2xfNk7ciyqUxehvlIQmfKopmMH8AgsWoSJvlzsZvIqBfCDibtAmdeSebjmCtzYhUkHnYuKKirEO9E4l6yJTYu4AgcMX8EDQJHN0VYHgnZuQsqFzxFVIAoaBbpSMEsNIh0YKnJgjPrBmvu+aAUOCV+FkShE4XJqlCJgilLQJV4BjCLAUYehQ5LxTCec6ijrB9b64vlVngG4ZO2Mp4afBNC6AAYu+oUwkPWwJztEqw7TQIH7zMTDCkhE5+33y6o3BuMcRIYeyJIFnlCXU6eX7wbfxcJHZ7JA2EivBMBTnrSXXEmLIk/hIXDb+Ia0/I8UPu3f/Zv/zw5v4V1o1mkkX4a8yCcVUojCevG9zincvnRPEJMu+CYQRZGNhX9829wjFi+d3OCm+Kx+MmdpLJYnCMBHW9cu0n8fWzEaC1jfn8irtH6WKUi2P2E7PnkOr8JN89B4K5wF432RrkC3ouURvr+0+F2ypZ42pgsQZzyaVnjY83mqJaVRJh2APNLtna2dbv0/LyTdK219IuuNd7lhaSc7H1C44wj5bb80k3wXvq6fTgB5/F3PF8ltnj2M/567OENdPHFVPk8Ie76fRi7LB37l1hHYuSVGmMl70Kl8b2N3yxcwA18Qe/avCPSo9/+UT9aFxjfiheT30Y8z5XIu/hmIiCTZxgf8lxMJtJyTY9CrMHmn+MeR6VZwq9iQhDBz3ehCJ7yK7HdrtImkCtwVqP3KSiK7P0FjmdbpPkNU5KjV1BiWa0qg6wCkVFekZz0XjRrk0K7SRZYxnWnZeVfJVUrHbzwI/HbadGgbhDxryk+Ol/kT7yXwNww47VVin8fF6spuy+lu7tWqaiMb3STpSmFdFiLZwuh71mZUSdivRAW+ZmuOwnseTuxn18ryKl8iv9S1/RnDuMjS7lnv8W4Z6rbyR4uJmRmWzpK6OC2yw6YymfGckzDn8OgndkbrHj8fG5tJ7luiOccU9fR6hdllz4mZW38wskZLwy4rjsQ4ywN3UFI8rTPb2HtsqriUeUdY/YIHN3nfRg54yT1n2S0/SCB80G/sW4iEFCWKQqHP5wRBtc4puK2SEesq/G37imvjHiHTLawlF9iOFXyXc8TvpG/4SGSPj3na6/pqPKoSPiz+vYcJSA+6H8S6DxpX1m0CTxjgRMRw4rH+H4sPDKH3+n7q+9wTArxBhFGDlFhU5X2JumbFqYoPkMkrEFxHuMY7/MsR/20Pt3YqNLkQdy+7sQtu/1MsG4Zb6YiJ/m/QJJbsTwW4HqMW/JMiU+E5xuM+WbuxfxMGJYxdZggzBslQ+fG5O0JFYMYf4XxDjRw7sOwAeUTQ17Wf28zaWHEM6lnF2UtolvLBEByZG6Kec6JWNI/RVMTJnT56TmLQyIIb0wEFdGNxliPLSXDBM8LxRnhyTex7BC2fINzxcVI4RnF314Xl112gPgTd04llE2SQ1z357nO76L5fbbNwkLZ4lt0aW7ZcT5ji+3k+oLvef6tluKmkTvxk0l4NhFvDaDF5oEuk0+DZwhalSPGyTMMqmJu8HvB6IXked5bvruKWIlzkA5vBZVFOpTWFaGCp4tD1+xevK+v3dCKIvyea1XZoJHmpcJz4WmxbhkXvYeg+nSFBJAzIhqc9ZEDfYfGbkiH+XPk1peHGotNJueriAt3+ux+xkd6IsZIpH1Xj/UeXVGU01hHGDsD2zwPUx/oPF0+q200KetFuwMwWISGrhtjh/lzpPx1bXJoT2VhyorR1JmkF8TTRLiiKfOM8MYT4+YbdKE13krgfJQR8kHPI3CSsSqOJlz0ngkqFEsQ61uSphorFChPshCTFoWUxUPvWb2WFTZL58tNTEizfVPPIEwnL0TfiI7CbPSHuk6YCEPyhHAJE3uS82ys3x7z8RkIHMdtobH8hu0Zni5Ug85VgeZsyiTzMhtUDCp+FpD++XGtGmNTHKxiEzfiw28RA3bArsd7SfxrsSKm4c+hDebB+2+TMFawmvKnwOcrcMB6dbDEEjVlb3Zt1HU0ctO2aV8MXjO4jmCZhGrNty9gG2YXSEM1E9qL2oUYMcvtW3klTNaZKOdJGWe1KcoZbd4ED+cwVgRA8nvy0p/LAt+f6xvEDwcCvNUUh7niVsUBglUIYOCEg9C01QWY7yLi+7ZqgSyoWTLhlediPTTewnnSQrnO/B1WJDBwjXukw8/d+lEYC0U1eVdULHAQuOSpnuHc9v1B6OxL4PyJrkXBSN5QeMRrpn+pfFzB1ylwrECU+NlqpqS+YRpSUrDJ8854yDAKL0/gUNF49zYQN3Pu56Bm31McrFITF77Bb0zy+J7ibPeAHxc9BwbSxDOetqLuptLCuQOWObGRJ6DsjQmt5twn1sESt1CzcdM8cIe2GMuDI21CTLN2qTYgS0HM0QXNQE0EIYN1I4FTF8O38kneWQgcQPviSPi0tyQGlPN0XyeUtRgqjNWEBMxVQmAqxpsHrK85u3QicNiZE6cAtoG+UGi4d4uMUStsm9mPdSaBxHI58bvTIxFCR8/qLcZ0naEneWD8gHMRc2VsdWcSQvpiHskq1Du+ORvpiOmDPCybGpSDpcDhIeKFZUbcdsJs8N/rddIhoWj5orCT784W37mNr1jgZCR8wcgF68LiPmEn4ccCp/iTV9Nh+Dl++Lx7G3NVwtk8WxghF6hWhG3eLMbY6IemQVCAqbhZPHk2uVZVAxBcuCT3jCHy/jJ+q/CvZYO38t/cDJ6XwPGy8r3kmUPh31mUDdrdDXxiHSxxC8yZyquPyxq5ks+q39VashSLGOuc/V2CuyPP2c5AwqZSv9KDes+YMAwUppy05RtMWLTgAWpTE1Y4oKwROGKqZnEgcPQOwiAPts4acWU7aCZ/ftArH8SzT0ON7j37pohvWVwQOvAN3UPAMNl18lrfwB2cbzof8PadpMOEJt/QuQTOnH2ELCy38NwC9BUOFruBLiy5Jaq3lO4lbgocPUfc6A7UcdZnnTXFzXYJZVyH7jfiNnl6gZO7xTQZZpl2G5uICLgRpmXcErMZFTBBcs8HJ3VvLqGha+atZnGeqnhxr4URjcJ0Og7j8SRMJspgMUOO47GuTfphMlWFT9KTptl8GqYzugP47+Fa2PpPU6shXCq10Kg3Q7PR0rfroV5rhnq9EVqNPZ8tbzPm63qeQsXykT43IBy/V6s0dV7n84qDW0Z8w5hl/J5AnG8P0i5hr/vpLaTD+VSsKzjWRcz7LORdB9PZMFz1TsLJ6bswHF6F7lYnHBwehp3tHTHGbphPti0thBHzI35rE+nYjFB9ehSlozDXjMGq7iwEAkfqIHkPQ4UxQgmzxcLhHQRRPDcLh2c40vaVZ5E5GjPmHBC21D+6j+I4BYx/mlg4uubecTnAwrEwVTdqigurPjeO7Tit/qPu6RrfNmWQeBAfoqDnxdCr01/o278Ux9f39V3z4ON75mkW4w5zpy3pvMZipwrfLCp929LLkbzAwyxRnu150qxDoojWZii22ZgGlCrPLzzvFh6DOmLhVOYsRfRCRDehrom/IeSVWL1Hft7GJurqZyBw/BoDkXbOt60AxSwsjlwdm0BCsEwm4zAaj8JEAmU6m4TB6DKMRj1bENLC1/+ZSoTfywpBsJ6mZRzE5GtoHJ4HN4+KwYTwVAlqdTE1KgLMLFmWJWzbEeGDMGqI6hJMXGu1Xuq9SphNFQYaiyonQsnDcBBuZIzABOkiXrfBnby76XA+FZ+LwKHh9Adn4VgC5/IK7XEadne3w+HBYeh0jkJ9/sLSYha7MauH5ctdKAUOTJO6w1PUcY7JudVU2i8aPgwvkgsgczWmTVq75BmOPM+r/CE8jonwMVLYxkjTFk4yXqF7Nl6UBxi+xU9CC0cHG2PxBTln9f9kx6Ul4rzClEMUTlvW51eK+h8oqi/tuxQt3ngm/CzeSfztHOqrySt8C1PWHJ5v1k3HigUIHCy+mHYEL/nl9aVWIDin5mmn9/Su1TEbt/bx69nwv9OnWQnijW7LIpNgdIFDmp5W4NT+9N/+afbETxrjhhrkvWBSfZnZs1niX65yxiuNyVWzOSbhWFbDpegq9K4vw8Xlebi8PBPjOQ+93lXo9y9kzfRNGGHxIKxoRzBxGhRCoFaF6TuZABFVayytwpc9D8j42WyucBSGju4Zh5DxvlfiRwHC/IbDgYTelWnbxKs/JH6XYooXfF1h4K0zlRDS9+swPqypscKk0vAt18Y9fGeM65bEQxhrUWXbFLNeD96w56oLE1mtw2FPlitdN7NQrzZkee7HYtQz/PH4b0JogueVN+ujKB2FKTSGCdL5yzlvpQnounVJu5t0Bat/3tFdkc0j6ep8S8eEZvF82+/JyuA3Wwt4NxKEto/ASRi/xWf125G4h6Bifo4zaRcYsg6qjLXofrLumglFA2nRs7bCAguYvtY3cb3muwrTBJ0LO7fKIIWZpNPP+Ua85/dtnpA1OX4DhWVlADE7KB/iFH5iBwWSKFbEf04+VQibfNvRPbY08HvGUOO7T4DnaeFEc3JBypp535g8e3/TVz+SEBkMrmW9DML1dS+MZdlMki4z08wTbahelxCBTIC4gInHeiJYFkg+ry+YMJtMBhbWdDoxi2gZvgpK8UEwwLOqNYTRhLcUrqwXfd6eMyuGQGH63k1Wrx+EZrMVut2d0O3shFazq3dastakYc0OFeayuycyRSOrvB6/VSxz6TYIY10GaPmYg00w66J6lXcdUB9mEvbTWS9cXZ+Es/N3YTi6kmVZD9tbL8OLvX+ufKehkyY7LOpAuqf2sVCUN0VpfG4oSkdh6UfN3NogT0I6p26Lo86tfceM13P2G1fqxJ16UZvjvQiuezjOlDnyW6FN+K3vYK1EQZN833bJzAHbRLtQUEi0E8XP4yCFtvEf9RnGcyR46AYz71O+19BdWVHTF6E6+SPJoT90C0fhuDUV4wCIcySg9JjLuASYdSHSnSZLR8KMsa1a5b1+c0+WF/dNKHie1LB6cjBdCCk9mapj1puCdSOhWBn9E33mV3p4z9qBdalZGZNPt7GJuvr5CJxwpUwayVoZhYE0WKyFfv/KBA5MncpiQqTeEKPxsRQsllZzOzTqHRM8pId/CBme5fyG91sqvbJlFB+YmCqerJoocGxcSNbI9fV7adE+UI2VNZ5cu+VCV18N4WOB6D6Vjx8ULCLJNZ+qNO9moxM67e2w1d0NrVYnNCt/IMETKyrR8fhY2tBQLIzbWObSbfBuDOdT8bkIHLpI6YJg/tNkjqX7QZbuiSkijdpWeH30L0O73U6EDg3Qx26g296PD8dXL3AWSPKWNoDqbgIHx460lE/lv64zoz8XSRj+DjHQ0brDqAMxzHgtIb1SyZyK4PCuah6Ch3CuU9P6dbX2v0nQSAA0WF3gnYKL4z0IHMaJXsr4QeD8karfkd2b43VHHM2ayQKKpw5xDGuxJhsCpxdqVX2LayzGiUMDggmho3yp0d2WgylxtrzRgWxK0sVxhoU4QeD8U30G4XigNkBcFYcnrqtP36WGMLFgLddTBJJjovH4s0j4aegPz8K1BMzFxamYyamYypWEwUj5VRHjbodWuyOrYSvsbO+FnZ1dkR8b9e1Qr3QkhDo2SA9Dx2S2AXsxf5beMBMXk1a/fYa0m/a1qgRXRYyq1lU4XX1nWwIMq2RHYXdCu7Wl87aEV10FCIMm8lVZY+yNoWjrD/HzyszNqf6NTEAhPKfTgQSmLLXhldJ2EbY6r1TpJCCqU3uPV3mXsQeJSIWRVI7Y6DjQWPwkEw8ROEWVbd0wNwM1noSp2YREEVbpYDCQIjCVUN+VlVs1RcTibQzJlZSivFsXzytv1kdROgpTuOhGiswsxdSsTdMWYgi6Z+Wh528IkyQMGDfhGQPnWX7Hazzj11EEb8aKuuvfKi4PhWmCRsQ4sT3K9xmnQcC4IDDmb96wekDfn6M4ztiewfcEMrdjQ0rw3ThGoOYSb8Lx7/hKBfAeKZUmYEgT7yVkz/Fk8n0uG5bt08aU7HryzgL+DF2UYban7NjXJZYcIkzde+K6WvmLPAvnQUgSEzPEKpgDj6IqjL2CBwUmKM/4OMhEzEGGh5gDQmYYRpNLMeIzG/+4uDwOExwDJnpjhoXSFCPpSnPtSsgcSXtFmMCsazqiRYgUsgkUVZCYr5GH+m/+5GW4HqSy6l9kvEsGLCtHFpdpAIn2gYPCeIQFNgjvT/6zrB8JFMZlamjTjMlIyEgLq8gism8qfq4JKa9EBN1tfRvaEmZbW/thu0vX25bSQj4Rf4Qj61W5VxvxcmGMOyUV2CvlU2FdC6forSn5ucjj+4NXfHxOVqkabK3mFufJ6VvVm49SFiphd/ub8OLgDySQdlROzhSoa4yp5aEorssa/Xgoqo1FIMc+PdfuxrplXJgSs24S4bAQMBHpVOS8fwPp+HmZZqMgrAVv4hi/T7gofCxjI8um+Xeh0vxHXT5z2TRrhVmFLRm+k9XwxyGMfhFmUzzUGGNGQdQjtyqIx5V26wJQD1lgtGHuqCaqLdfr7M/j2yawTw8OBSb46G6rvuVBva/A9a7rnx7vuY1bAQWmfPWU8LcqXiQBxtjX5Lswp1tt8kvFT/E1i3K9Mjbet0Zbrf2PeRbOg7BSwJaxDh9kp3sIxknmRKY9DfUGAgPvsp4sGlkx/Q/hStQbnOi3TEwVKK7HCBm6oWDMW50DWRoHoV7tqsDayj63UqImxEBk1b5HFxpWQkL2G6FURDBykWkDqaPIhmb0Hb6J6229inDo6nwr1Bpo2m1VAlmvEqLu0u0VxH3tySEC8HR7I/TuOcaqZnTlSUPnHboFG3VZUMqnqcIzU9gaqgKjz5uKp3+E+JRYV4sveuvTq29E8qbVJ2WLGCU0Gg/DcHiuvDtWHrZDV3WFejKbUrbUNepefow2E9d88L2ibz41HmapkUNZRJi0o6zUxmur1/OwGm4eFWDBm3iOeMW4AR1ZiqZ2IjrVT3oudA2X48C2DIyNfKMmvGdKMPyJsVhXIAkjTQ7y1PM1Es9DWDXx3aXDg9XP5PkK2yjwzCIM3bX4i+x9EJ/1v/CxoLjx28LEcWC6o29IEddFf/LpQO5uAC51F4BRJ4T7L5lAzyL97niAVGoMXlGwV7JqzsL51bvw8eSncHzyIVxeXIbhYBwatW7otPbDzu5B2N8/Cnu7R2Fn6yB0OtsqZApHBZFJm8lQvokgq1X9SKXx381wsP86HB68URxfSxju6Z40IvOLT2b5WlcAWU/cyCfyQsJDDBC37quri3B69i6cnL0NV9fHYTA+l7AZiJ/6Xh1e/9z6MmHqqs5XjyWD9PygrtVqDQlv5mENzVWe8R7yC4H0MIZa4quAKTGRl8Q2C/hNu+fa47W/uPK2Lc8zw1sPL7z9UJ0zafNAwmJXR1YR6Ohh303VeYriYGTMQZSKl3nYwWPpknPl1+np8Xg5lYuYAU7TiUiqOl5ddAdV8W+vXovd9mTN/Chh84OY7e/D2fn7cH2No4CKtd4Kuzuvwt7eq7AvJr679ULa6p5dX1ojecR3HxsKWYweN2YTdipwrCHOscCqAWeAAwmeN+Ho4BdhZ/t1aFSlBVkliRWDrI/5wgFtm26hsU1GHY4ulf7TcH7xNpye/966F/Geqdan1uWIx56PG0Vt6utG1Bz5590ZKpFaXXWkJqtxGsaTkREu7fHZ290eJUqsgrYV22xsZzDr2IYh8HAGTjs2S4mhBiyQGW7fjBOJZqxkcKT7h6J91V0mM3dELSmjetbiGSkNxSsKGxM8KPn0qlD5n17wxNzaMJaZMZ2K1NJtvTHrq2S2/0UYjE5k1fw2nF38PlwPTpWRsmoarbC9tR8OJGgO9r4Nu2Lc3fZhaNjYho/NmISXxmpjNhnk33182GoBi7GTyPTRnOthOpbVMe+GbutIAvLbcLj/nYTOm9BuqtLQ3WeDgolmkorfbIoXHAsc0hc8CZOZe1ydnH4vS+eDhNCF5VelhuulKg3dbFP6Uv39rx1msYiiUKnLusFbka4OPApZXQLPO+7R/1zkhVeihEN1ytpp0mZjezWrgmvL9vtQEJKPxzInxwUOq2TMJ7thNmGlAJbQeSlC6KDA6h5Ch+2+F3GLFIHAwapByCT0M1o5mxE4yaDWbbg7sq00ax4hwzAWU73u43n2NlxenYipXouRV22eyv7uS7MQjg7+ILQa9L/vKI9ayvymMpquLCwKWTkpxn+bHq9C3MTyG6aZJAKH8al6TRVh2gzjkSqkKk2n+SIc7PwyHO79WtlCtxp9tGglmORJpdX7NpdHzJFusypCBWE8c2F8ei7r7/Kn0B/gPMFyGGgrVBx/9+sGjSpd38gT5ltRPxDw+qm8jfkbJ9aWAqdEIWib1j7hLwmZVaO6ZuMhEM+k2x/na7ZHKUI+vkyY8ImO+MiWBM5OmI/3df7KBM58+kKk3xI6MxuP2daziteN+MY4EF8Qf1PnoacXNqAauxeyaF2Yxn0jPfHCLDChslKTBlodh9GkJyFzHM7Ofd4Ej9BNtrW1G/YkbOhGa8tKqNdkUjLRSozatrGlj1MZ691ajAmlv5FFj4N03jjTcrr5nbniS9+rBONUFtgUF+yu0rEvK+eV0vTaxqKqFczhmoiK4oLLmKaECNYfXWt4XDG3hDGuwfBM1t+7cHr2k6yd97ISr80KYgFS8jR6jUTaNFa/9xikP0nonwhVAJXK4ocHQzmhAKgBS7lh7IbxMevKVe7a9x5Qx0t8+Vj0khgjj8Imga6h9DKPa1FtVZ0WdTkH8X4ewUZi19psWhP/kHI9bYs6Ejbsz0PXGh5yOkroVGYHRnipeXyIF96s0aOVeCdOCNANYZQfT5AVvzStg9qf/tmf/XmakUZ6CBSC/fWI0X2GNeMeFVMWy6yMw3h6FS6uPtrgOEvSMKi71d0Pnc5e2NnCIeAotJsw5q4sGllFFbdknJbdZcbvN4zs/CHDI8VnOFNqzQvK42jdbhZfuuCaobM1M8cCusJsEButW2+xvA5OAx4G4Cr5hsVDPtZtjbjhaKBbM1utAFdw8iBqWHmVwOP7PLBuTO6q4KSRR+wxfYQ8w4IZTS5Cr/973WiblczYGvlPeGRLpcD1tyiuxbFZD3xv3fzZBJ5TvdkYUPJyYFPoWN2avW+qdGfjJZYoLDOWs5GlMWFbAinDgnuM4RClumhXPhGqk+baj8AxiyUhuwdHoevM+Yq4jR9xGrIuOPHVG1YXgoZz8ZU5nruKo20m90J0pPCJM6E4H83DuoIlD/mtbW0wWItQIBGKbGpwyrqLasMwGEtbP38Xzs4+hH6/b4lut3dsrsROFwvgKDTrrLicuDrLGlh0P0UySU30RRS0deNl0HpFfzeyvhXJH1AeEEflRcpNu17ZDd3OUdiVBdfpHFja0ES8jzjJs0hWgSGsHmYjY81ch8HoNFz23ikfj0O1Pgy1ekYcFsT7XxOUh9ZQk/phwjjJh5gXMW8sb0uUyAF1xxg3bdfbstUvYNeSdn0DvJM88yAQRkL2bVkrAUUJSwaewfpxdLMdSugdSckVzaADnbOSgGiOcwHebQgZt4x822nGvwnz6bEBgaM0ycxk+RBfckRZZo0byT228QjGa07P34ar3qmuz70LbedV2N7CKeCFL+9f7ShyKlD9dSmbVYiPUbCPDze+IjPzSrOwzuZbSt9+2O68sDlEjcaW7jZUSfLS52ROFrIM50ECZ8iY10+hJ6EznTM5DCeCEiVKPD5ofzToKGxiO41CaCMsNIWoHNEtDF+lG178wpwFtsNssic6EHtlXx4cCiDGeny8Z/kboSPhYwIn7WTwtNhAbtFthtuzMil2W4hYzoUFN88ufpR2/kHnl6HeqIadbR+vYc5Ks45jAAyYPseqCS0b5DWvChdemTBNREnJok1lata3Ikk4+HwZn5ipi/aKQYXNMhNMQOy098JWdy80m2zcpApgj/F+QqkwXehOlNSxhExP1s2pTYq9Ul6Ox5j6XilvU+rbXyyURrNaKOtY3ql8XIC8WM2fEiXysGx/3j4jk1Y9Wlg/sY5Rlx6hrS3CA7GOumfZzAhFHt7IGDGTmCV0bGO1NyImoXIU0eVnguZ1iPvgVOZ7ir3zV1+ZO37n6bDBL0qrt8l1FMPUxmgGg54Y5HEibELY3d0KBwdHEjqHtsgm4zQs5cKcFqQ5PZowkmotMgYKlGuxYOMxMpos2hSyvuXkYzFJXEUudDnSZ9pWBaGiNkK7tWMTWFk1wbcmuB2WFxF++VQ192DDomGRwMHwXAL8rS1mWiIN8k0o7NpI16MSJbIQ22AUNKJYZW4IoMcCYdHeU2GaIhUpcWfmu0wkZzmbmZRVtmiYHukRCRU7MkEU0m87x7mAuTxsp9BW6KwXyTjQyreeABsQODBVJcWWF+Fn1Mg/ht7gbRgOJ8qwRui0dsPu9suwvXUUWo0dZRrrq3m3EwVMNsCkazWIcFMZv5D8EfZ0AW0CWd+JtIzrqoWDVx09jWztymKg21261l7KutvXXboQs8KDgISW8pQtEJjANZ70Qu/6YxhOTsRbJXRwlTaQ8U9fmX4+xDxyTfBmutP1JI0HCptYF60+lvgyEetRbMOiRdWKdS5d1x4D6W/ePHpvD56xnONYkPZG6+oIbYmYn7PjNN2VNQTt6Rn9Zp8f+wZpiWE/HdYUOO5FQS+PJV6N3DMBz6CQTLBjGZFRGI5PwsnZ34cf3/+n8OO7/zU0qy/C4d5vwusX/50Ezq8VAXzJm+ZKvHQzhpQpmI5TSALMFsGMhECDYODEJ75zm7Au4tpaq3SXF05MUxa5xZJN0S3RzWOJXywbo3mYzIaSGPp+ra186+j2noTuH4RffPOvdJn111xr4llF0c5Jf12CqiGq6n5FvxHJLPY3n/XCyenfhNOzv9aVK1mJKpSJ0iYBXgt6vlDLf3pkl5LTutXftulWAGy+NpuzZ4nyjhUgpBGOJgMpPHZFxSHLWRKbBTs5ssJuVtlGYjFR3l0SK4E7VXVvQRYix7UblIH0r+ZJpLlX5EyiJyGrft+HSuSD+sHuFXEPH4j13meUiO65gpy07aRXg3Nj5GmFJEVejNllQTnqKZH4qMKY6fmZWvFM7di2NTGrijKjTVNbIilOOlhX25yV65viGfSkMM6zFUY6H022xZe7aiNV8aCREQshF4G0ZMUTsnSugTVrXDqxHOLHyXzx04Yyvsrs7p6t9gzBCGrKs05n3ywalvzHQwuXPSS0zUdJh3kL6W8WPfe8oXoqJHE309hdFm1cp85mbPymC40BQgRwWqtxIp/9SCVmQuO1KtSZhPtlYE8eqxQUhJXLehXj80KSThq88tfbAsoPexUxnnazoVjW3QcwjkVdW6WYtykiv5+ZgC/xGFgt+7uQqgurdG+kvpP77jJOyzOI4QhUIPER4yVYQAnZdZ5CtD091hc41p8YETODI11gSOZhGIwuw2XvVALnSkKlGtrNvbC7uxfanW2bAR63EQAsR/K1AcbnvvQww5p1M9LN5hq7a99eMZK+2wR+fXlkXyDGcdhTZ2zznHzujhfvp1TyzxTKB/LC89KVHixls7JtoieaGisPMBdqmR93a2nKQ/IxUqz3kGmbCVkep6lEidU6kaavF+sLHNOuYYacE0wSlDXOYRgz4e76o+jUluhvNRmzeWNeWe1WR42/oVfxYadziEa7ZlQ+MyzM7gXoGmPVhIby5shWIWC7A+BeeuQzAsetnFVwjb142MQNN/Ph8FJafXST5jtfR76SVv6Rl5zTzct+RJBtUVGl2xbvnNV5E3eBPE/IyiH+ps4mRD22ro4SJUoUYf1Wsmh8EZyLOc4nwTdOOw49Ef3qzUYzsEnawd4vQsNWeMaPPGrwCso0/K9F4Liw8aS7xuOaeS1sdRA4h6FewU0at0XX1s0zLcnrmGdp4cN9Vpi+7rNv0Jkte3NT6HzZSOUEmWF5hsCZzPuBXVUlhmR1s3VE3frJAfmXFEU+blkvgK+haGVdj1SiRIksrMnlMxpWMig2r/qyNf3hue3UyS6XzRYbph2GbWnwaPK+ThAaPC/G/vVP1Tw/d6QZFl09dZvw2qhtKy9Yi40lK2T9qYScRy7zOy10nHFWlM/DMBr3zHNtOmPwnA3dEFSRIX7J8HxwYSNSfpF2tvFmDAcLpIoDBV1qylNfaPU+ICAsGI6xrCJiG6ASe91fUIkSJTJhrOyToUbtFon0yCkNm4HZma5N9LsfLnvvZd2c6e5EgmY77O++CN32vp5h/Z6aDYyzDphtXiYmEPve48BuFhUh6/lI0aLIwl3fLKIiGNPLoSggCMPSjcDV0X+3bJFP1pRrNrq6Rleb53ORJxLdmOzZz4KoV9cfw8XVB1k8A73FwDlCJx9RaGVR1rfuQ08N4kqe1vRtxgJxtmD8ZowAtkmxWDgNq3cMFTIxmUUXqXtFwCryZyg3wsRBY6r3Wf8Ot/SBzS0b6RsIODwnFY1CxLL/VOK9PJB+T3M2lVgf5HuasspjNf9BuuzSBNLPpulzanPpvFildN6s4oExjQGj2U1t2fzh+Dz0bT+bka383GnvhlZrV403mU2vT3rhcRTd0BqfFzye2fRQLMPxsDifTcQUZd00m9uhUe/qDl4m8ZGbwiBdUXVBgonnJhI0V2KAF7oOE/SFBosQ45FFnxOIr9kcSXKx8Kay+txLTYpNMn6jlOnu/dLIZOXxeCCLcWDh+bYRbIWu71SGOsp6lw7FWnbcn0yHJojuyvMSXzBiBSyRifUEjvIUPsfrDP5Xa6wMMAqD0blp2P3BpWnm3faeLVTZrO/oSe9K8+4JyBu+E/iaNLHsbGe+DeNbWDdNOJnyUAakrtGt49ZRFokTiqjo+OPjsCGte+p75jBvqQiR8WbR5wKiqpxQ/sW0zswKmcgCYTkgdmG1nVjNYSAqPJ6fRajWlX91CRrWqrOdaQc6F9X7EupSqsK1hM7YBA95PVcb4HslvnbQJlHCs6i4zn3pWEvgkGXmPGUChwasBj4bhsGQpeBPpBX21QjrEjYHodNkEHxLjZG+c720EDKQhZSirwFpRq40UwGTSshkWoRLU5Zhs+mLl/qinjdN1lWKApyBclaVZv7TeHwlhgiz/BryVXkk4eFefW79YW1MzeKYWldaoy6BQ/eY8snd8b2brAjN1jhUG32FcCHL/VjK1LtwdvVjOD37QfX8Q7i8emfrArIdON3J9WT+mT7iAZQoUeIG1hI4DrzMnHnSyPEGQuAM+mdqfLPQEsPstPfV0Hf1BEtq26MC76ww3QV9DUinHSzTvtTAa7a9NuNcdDuaZZho5VkUJ4may7UY3nTeD2MJnRmrGnwFliN5ABAgvuTHXNbNyOYk0aXGWKFNqCUv7Xmv9ozl5GNuQuVKQoVtz49Pfxveffxv4e37vw0/vf8bCZq34USC58PH78Pp+bvQH13YKhLmpFCiRIlMrCVwxOb0D20RoUPT9DkP1pUjglnSLdSob+u5TphOXDjlatvR3PyaofSzj5AzzKrNGWnU2yogXMh1TdkDI80kNHs9Ax913uvdSUwIlb5vwechM7yEPicQ22WcUYDG1q2mi8oTH/zHIk+nzca/bsFC0jOz8O7478L7438wYYPQYafVwfDYVnWIK2hcXB2Hk9N34ePHt+Hi4iSMRjgpfF55VyIPq+W4qiyD+Ez6HteoW1n0ddeNNS0cGrGvC4R/83h8GQaDj2E0xrqZh0btjZjlYahX23oGLZx3YJp4pHG+AsrgZyqHyICySH9yKVavT6XsqwnZfjfTUJmzCkNXQgcXaVaRppsIb8Clo4D/dloIFbrkrHuzb3OhrEtJcZ3r+Uir6biR3hWk762S/uRTATJSvTZFxPhYV1lgsuelrI0zXerLummGZu2F1KNtPYnTiuKvPDZhYxZ6kiblIddZiXs6vw69wYdweflTuB68U/0+1TM9KQRDWZ0T0UzK1VWYVXoS8iwrdCKL56dwfimh1H+nsF3QGSW4Ee947xMpnf9pAmmLd5U2gXR6VkmREpG/t0lcoJD83WzKej4SjCyPlAu5/wJlZaSyn9P2iKNTdT4IVVmtFbuup+d1a5s+0ZeUMnbHfDc9z73gVjRZHvPC4xfDVDiQ8c4s4l4+FWGRF5nhKu45tAlkfScS5ZGLrMrtROWZ+MvKiOEQTe9HadXnoVmvh2blF6FeORQDoABY6qaqc2nvicDx2fb2iSQ8ZZUV4NPidrqWpD+F5JXp08kqag7hDUUltlnxVdab27auIB+r0fuWb056wYiysDw193IxVJ3TnTYaielKy1c9V74vhc0twZPgRqVIxoay8iWS/uRTARS9tYglaSItrutbkDi8LVLaqLN8zUjpPlFdZHO/serjVui2vlF+Sngrf9yJwhuvrdxteehkwlv1mlUyTs9/UHkgtK6Ut2I8NfdS4/5M+TqRUGeLiGpjGKr1noTPWRiM30vw/Kj7S4ET4xjjHK9/KqXzfpVAuvxWaRNYlEEGVanDuIlnEmUlAZFBnk+qzxnkC6QWkBhrLimL8oi642XEc3xfcRSxZGYIl8r7K9EoeUb5aZ629O7wssqZcVI9T4+PCx2zoy0sJ76TnBNPHRd14jFJ3zTKupdRJyJtClnfggoFTiHIb/2BebFgJG7QgEbcqHdMs9Qvu+bgfHMJ/BLghYLgQEBj5UA5VmEm/EF7Xg3NGJIXlIUdkT4H8XdkXmlG9nmAuJpkNeuCOUgIW/KuYR5qcUmbmD/LBrCACX2EDu9LoExcc10SQooj34LQOjlOJJCwjpiDhrDz1aq/epA3WWRlkDDtWyRUxMRzSWWSSbq3KJcMynzHyZRifdstEwkfhVWR0hKq/VCpXThVJXgqrFHo27z7u3yTOKWuSfjYkbZjjjyQ0mUWkWgGT/Rx2kyy59h8MpvS9XaVbofHtUjPB8RsbaBd452GRxANlHyuqXG32xI4NW/gzrfsj/C8Ev/cEAezyScTOhLeCCDpKKKYh1mggvvZsgIKidBY/BZWz9O/weclaNIgh2SdyEocDvthMkbrbIZGkxW4YSi3022U/I4gFJwJJhMYyirIGxdA5o22YITM9WEyKOOYg884Dx8JdP+k8uYGLQR3BtkzCdO+RbxLvn464daeT9ynPNk25FoCRsKldia5IAu5fuxHrlXZb4qpBi5g/F2OolriLp8cbct3CS8XsCAKVPa74ng7jkuyGplD98F9n/t5sKbAUaLUSOn3No1wgguqKtK8IW2yG9qtLR2R5noOzVGf8Qb+IPn2xcPyxzRtxiLIM6fY5ZaHNINLM89VxHteFjqPxxV8lhaONe5pmIrhD4eDwJ5MzBGjS81cxwXGbWK6Yrr5tUyr6vSsoud4Nrlk4D4X7Gkj75rjWsJACQ6SEubPfL2wMYcqlsJtCmY9wJRvkzNxmP9tMga+zP4V0p9MIXU3VUzIXJmgqUjQzGsfRe9Fb8NMv2eybmYSNjPFeyYlY6a4+B45pEXCR5ZQqEoQKRwnfkdrKPmOdb0pjjG+y4hnEPUpjwoQeUTCPxSJFD0frB8bY4AqgLmsG2mVeARhmtarrdBoNBMLp6r7MC9e4PkSRSCfILzSyC9f1gYm6NeL4Ewz0dqNmWJdEqDOUoIlfVwlwDuRPhcQdbpD5mrcjIONxizaOVPta5sC5N5/dJe5w8UyjX5O2vFiWxDdmKaJrsC0VqdqTXkG8yEM/VuEUWPjN8/LrxZo+rVeJgUx91DNIz1DV1YmIZRg8HmksHOoIiGQR1gx85rTzITNRwmVD2FW0bmEBmtDGg9XbZrPmN7BJok4QyEIEVhDEUIrnU6lxawiSELIiPgjjOh+W9ajG2QCORFYt8gt5zy60W25sKyeH9YWOMaglLB5YPyGpT/o02btr7YEDvMe0NKtpBJ85Y3wPlBeUXcc5Bf5h8bNxftXooXwMFq+F6/fB1aJPxsorubF47vM2lI0EixsbBe3egBpYbOA/eZEeWMWZTKGJuHhzSPdRHhQjEHkHnEwIV2d6XyOoGJFavaLv38+f5GoXiTdUVl0IqK7KoNqes+EUhaJeWe9Y0SYWd9KqHqeS/NqEp8avy/U3K5E1yIxecpx3hS1VeQ7oj3p2PtOjM2YBZMIEhvjSQjhWYtxo3tOYRM+6UMI2phPHkno5FFS9zLphjVFW4j3nhcqf/FXf5nLWfKYjns5KVHKhIveb8OHs/9ss633d78JR/u/Ce3mH+opmp03YM6V07yq33eYhs8FpD0n/Q8B2xbnYTaRxiRGZku0qCIPJu/Cx7P/ojz+nVidtDjEh96P5YIAcYL5NXTXKx5ypRYOw+HO/zm82P+ngXXZMsG7SXdTFmDQeSjSVIqqedF7efUNFN0zSzv0w3DyPpyc/2M4PX2na/VwdPCrcLD/q9Cqf+uP3QL5PDWBQY7x2ywk1WXmk/3u7f/L8pJ+fqwhc3emMXNxhiVDGNTyeqjXt2yDQdYOfH3wf5XgYaHa2/gUoZ8GqS/KgU0gdkVmAoGeSkusi2De/F/FyMXoM1AJbE9Cd/ttzEy5ys4fdw2mDWRDTSAX03H+TdMrgDFseJPIVotQ+qa7ukYd4Z6EgTFyUAnTCZsk6mUb0CcQzv07jO+5AwLXUEDquqijORBgJXXsudvAk1fhZUL5i/DLgW+tDoiDyOJCXupYpbfpcZHmQ6tI14VVeA6tDeaA4CxAYaD14fGRl5klSmwSrOLMWCKrZE/ELBuhXumoCX9KfXThTbcYY5Ctxq4Ex5aqNkxSlruESqPBbrVsB74dapWumEBb9Z/vbIVmY09C59DC+JpB/htfyCLxCphjFrnHH0rQbYLx44aeR+wBlUd0f+YRK9gbhR19Yld0IEHzQvRS5X4gOlTVeiF6LfpG9MaoGnbF7zqi6E0K0cPjigjdu/T+YCmx5t5sfiFlUxQYFzrOpLksLhNWmTTR+71c8vGjpNvRLKWUAH1GWKtluEbNPA2Wa2c5DxYulMCRJK3X0OyypVuJT4SNk4EyP4vB+MzYtglgHT/6w9nor9HYCjUJhyLY+ms6Wp1G2FCH63i3tcLe7reh234ZGrV91fYtGfWdMB01w6hfC7OxLMppy66362wp8TLsbr0JuztiRmbVf71wK4Y9nW6Te2rBdrJITHvezaSKKMwl/DOpa5ZBHtWqUg5yqDrbE6l8jV6IXsrAeSWSYJnvq4JACJ0jEYJHgkjnFd1zocPk7C0dFU+Odo4gQohhkZAut5ARxCZ8qgidbPJxn2yqNQa55ONVjBXRpYfQQeDIIsdjzmr488BaXWrGCJWB09lpOLn8L+HD2V+H2XQWXh/9y/Dq8E+UPG/kCCXX9iCHz134DEDaC7tx1sMndamN34eP5/85XPS+V56iAboZG8slmq6uAHy9XWpoksPxx3B6+ffh7PIfzGFgd+uXSvs/D1udb6QQJQ/egnJMSpNvW1BPihur3fvTp7MPod/vhev+VRiN+on7P6txj2TdtM0ZoSnB1G7v2G6t7GXUbNDXD1PNVhLyuhruAlHLz4HNYN0utUrzB9UrMcAMwHhzU4K1OGNFiCygqYuZZkLhMSifg1pFQiMHs0nShWXKHaQ0J91RU7pbuWc8K8bZz6uqH0z49N9JPiTeYdb1V43LSjFuSDjJuay8WW7XIO04r9usKouddSmzweoitHq68MKMMSfGnggL5Ud1MsbxkZDmQ6tI14VVrC9wVOHGs4/h+PJ/Dx9P/1rX6uHbl/86vDr6F2qYruGVAuc2SoGTj9z6JhTdw1PyevA2HF/813B1/b15SO7v/JNwtPMnod18FSaL7bZXcVPgYO1gKdF9wb43Fb0XJ5KOzfU/7q/DeA51u2LfoovNdmoN0rTVyOv1/Mm6eQ3xLpD6/BzYDNYWOPVzndPNngVqR3ZK5mKS+eMbvJdfjpVa3veEWU79F+bTdBqJ/5Km1aQ7atHToHgb/1LaVR9ZncDiFXmajeXQprimd837jDjHsT+6Gkd6Iz9vZjghZEJxsImj2ajW9C2bOKpnyENZdi5wuHagY0zD4yDNh1aRrgurKGr/hSBAfVIfRYKT8biGyiQ2k7nEeqAAI4HVY4ks0LXLYD8LdtIIatWahEBLDZ/B0uKGRrvwxhHrsjckFlCdjFn0sxtazQMJroPQauyHbvsw7Gy/CYcHdJ+9cKumvqNvdq0bpVahO+lxG/cS6bqxCcTwH/ad+bQp5amTQ13RVibRZTmXdbgkBNCSZlO26+C4Sq0wGytcI33jBnXDdNIWtVLUXNBMTHqmsl5SRYQiQl1g2CBNuNcnRHxkSRgp3kZi9EYWD6VJx/l4W+nakgCQ0MN6m+1LPr1coRdOUhKrAcUli7qqz3E8RwJvhbyeU5lVbiboOFpxrGD9cn0MFFo4+VBK9NZgLAvn4j+F4/P/XQ2zGb49+n+EVwf/ygZu43Oe5lTKGQB8QuRJ4Xuh4N08CQ6KvjktsBpUQxWuKr2NKwyVv29l4fyXcNX/3hgqq0JnwTVRViVQnKRR0aXUqLwML/f/VTjc+yNp4d5tsIhzKu7rpqNIUylIYeF7fC3vi0thQHy9XpnxrK8NJ2/DyeVfh7PzD0r7JOztvAqH+/8kdFu/0PcY1M9Ph3eLKCBjNDqY5m43AttT1+uM6zCniQU/6RpBUw2yGvFS0tfN84jBYqwkNFwR2mYOCDoXaet/oVUDzgkz3ue3KHnG84V4+e9Ypv73Znms5oVp6cmDpJMfvE8Qk0l+vtGdyLp2IH6PsM0d3Ty07NInga/B7D1CMYBYY7AoYlcU97wXxSFhYB6EpEXP2aRc6gjv6m/FrSbKzvOJHPFcMU8zP1sek3KY2TfScQF+39dVS34v4AqOfQMHCL3mwoBnvFvN81bxspddufH7EPHPt34mlSulRZa1FCpSZ+mmDigMn7NHGNRlhCJdayIE6sLCI3wdrN543qzb41TUpgBfyAJfXQuwRH9dZHHnCm6NdO/EfxE8G+np4Q1yDeLdHPLalE1Zz0cqgtVDKrOC8fykskqjwTxXfPJAXNOhe9ypTFYwi2/ffMpxI70r9Nxg8dcfW+zVfrsAmMwuw2h6LGbF2lgtWTcsfMogLul3xpIHr6eENtW7OL5wTXVYDbXZrImx0nVW1dH31CF8d09FwDdl0YiYe6NnKC/66Ivg8S6i+C99jQpBvMSwjPyKxx2GynYWeNYpvkrAYpFTq0i8HwWl3rWlXFJElbWweFB5xXiDmDcLkNYkgPKIZ7Ao6XJ0coXAghGjntFF+clEysjDSPoX6yJBW2Stkdh3XOi4UKhSNsoDdh/21Hguod9N9P5E6aI7G6/rmdqWE11YesaI69Ayl21MxojzSPotIUXcls+TXl/u00jfQjmZQlPlvLJ+MqnJoqobmcUmywyyri/9trEXXKxxxZ4y30dkc38i7Ya6lMhqOArV+aHqoGiW0FzXcHjgOMfbji41wuYbshRpL+Qj/1Dc7AgpsmvCBWcO8QCBZ5Bybx3oZSMKI2p2grnhFTfwEvlYNFgd7XTx2w73AgUej3ae/P6S4EIZBseaZ6MwHPVljaAZzmWR4J3W8S41MbGbmvBdsExPCKYBs4BYoNbJrE/d9uWcRLJK6dLjHYSV8buHAqa2QDynHDmPlAYMBS0fEgMUl2WpKRcIxM81exMMyTFeW4ZHGLwrRmqkHNC7eeQuzpyP9B0EDoLW93SKdfDTwXtkoOJjlmNMZ3JcMH+PL2XkhGhJrlnboZwUN9KvsiGellazbPQI+TSVgBMzXiJ+C9wn/qnnbbzG44InGoLcXa4Jx4lzFCCOMe+9nVPXSBdjLdRXwoVIP0LIrRSOeNzRhTgZ090r21yfpKwpr/EImolUN3WPsSm33mKYSfiWrzF9fPtpkcq1T4Eyisgq4rbApDLHM1KJzx2gLXEXqHxRU7xFd1QOnokNnYodKV777KFkeErIB6VVNRd3fLYJwIOMtdOozrhDNyVwmIeDCgrjLEY6fwhbrRhXUryMjCnAsJxBI+hqYiQQi3XyHMubmKOGHWE6Hr+1YK9ml5dpqUqPilkU64RbAgiRyYQ1DRNhQBs05xGY3zTU6izFIwuuhmDEe8rnwtBNyzv2noRGTCN5y669PJtHtZrCrBMmzFbvEhe0Z9HaIO0mVGBL5EOkmH66isRILQ+S7xmTRwCSNpHKgAH0qtJMums1Mf/6ONQaXEcpQAMnDFkkNxwGwPJ7y2MOFkVMWcD0JcgDTiUDnaOI4OXo88KMkmusqo8wtOfporWyVCiUrZVvNkmmhPFQqZRgmU6U26YAIehJvys8MU60eV8xA+GCkFFaIEtTzFuwSMSTYTXH7wVjflaxeJ2uhURToBGaV0aJh8NyWZXN/tqV+2AhdHQ0ofOlCJwFYIjUPZg7zLIXhjb/hj7zuls3yfYYU2my5vF3X4jZmhZsE+dGodmqhGazEhpN1fKGrKeE+N3qhNBs67wlptaAsTvTe9gW05EpZGPJgCJzh2EpH0xQ4FmXprEY7UhHVjNOjhKiHGtiwNX6xOJNnJ2If6Sh+NNIaZvmEotT2uoXes4Gri3fnPl6zV0HpB2eEpliOj9IN4KCI1+Iggby8oo0x9PLXJOdZuFK5XKt94jzsnwI6yZWf+fDu6tBrDMeD76NgKsj5Mj/hDjnGvk/C0x05XnKj3IknPS3dU7covDVeUVHEyKs12eEUEHZ8KWcEKy1OgoRcfO6gSJi9cPqNR/hG/E7Sbw5PiHWchowia6E0I1xevl34eTy/6eCHYTXh/8yHO3+i1CjDzEPYoJPiagNPjZg5nnASslD4T1pQvTH042DtjQY/RiOL9xpwLss0pVyCRcyjDdI+DMjWdpPq/ZG5fFvwt7Ob5R+TOv43PL4EBSVYn4Ki9+jlHJLSg3GtULGWSRIxVSH44vQu/4YTs7/Plxdvw3t1mHY3/1lONj5dWg3j8Jk3JA2OJOAyC//GB/qNNqxLyGEheCebxO6pmQ90EW1sD71RL3JmI+EupQtJjuzlE0V0u85kxRzymo9KJbED1rkUsJIDMSd7qOE0WDlkAZdp50OJ0lcyTcxKxvwp/4qitUJ814SBp5Ych7ePFz1zu1eFtrtlsJg7TgmVurcJjpyZFM7CYY10m/CRErCjXTFI5f4mXRdLZVbBBwWHtYFeeBWxJTuwynCSWXV8vG3em0r1KsdBY8jCV1UygtZQbmA2efAx+yIiysZ88CGfMp3y0PFYYrV6HUGkN+e73jysjElA/+MCXLOCi10fSm+lJt9F4p5SFr1NZWvK1uqjxKe4wmW/bXqqL43rKtNKJR6TdSQpS/FC89JKV7zsOXBLMJTplg+qi3ZJOXHrKsCmZ7Dc9cTOFY56T+fh/Or34aP5//fMJ6dhhf7fxxeHf6fQqtypPsebGRukfFXHqWT+/54iLApereIaRe9d5fAweCnsk3nfZtTgsC5Hv5eYaKZZX+TuNjCqWImxnhkf3ca35rA2d36AzUIbzhfhsAR80S7qw1Df3gSzi5+DKcXP0goXIfd7W9N4DDZs1HdlcChC2ZmVkke4o6IfBkNdTrrhdGU7bmvw/nlO2Ma0CQldEC9gbCpyqJqhVZjS5bQTui0D/TtfX1zW7ReHmfXHcLSd8VE7YhFYYyWOE3CWPVmND5X3BCScewCxqv4Kv3TactSx/+aMSQsQTE+1ZeDrZeWt+PxMAxHPaWTPGAjuUk4O/uQE58Qdnf3jYnbjqpKd7u1p9+sCCBGLuVnHYEDozUrhohaLaJsXBjqhi7RJaZ0S9gw94oymrAfl4RNr3+sR7hO+j3++q/3aqHVRRg2bKmirsqn2dx1Zqw2E+dTpdvGIs0FAsfLFxdlvtlXXTyTAnRp8epfn4XBQOcoKPSFCSzPg9BpNbdUT/ZNSWm3dvV7N9QquIO7wLH0WT7EOCkfTDhM9I9uXhSt69DvX4T+4CKMRiztMwmD3lD5T32Emgp7J2x195XePYV5qJCZ2FxTnMhTH2s0a8+U0eyyinmyDmhXWaj8u//wV9l3hHzGiSYo7WlaD73BT+H92X8Ml73fq8H/Mnzz8l+EvfYfqtARSt6YkexkPteqquyfA4h7fvqLcd/34nOL58UklLHKr4YazHU4PvtvJnDGs3dJo8uvGGhOrnURRiVstb8Lrw7+ddjp/lqNIL/hrFupNiFwbCuL5HwV3n0gQuBYY0Egq+4d/4M08Y/SuLvh1YvfhJ0OrtB7akIspaK6puTZeEsOosBB4aev/Xr4QUrUT+G6fxKuBx+Sp24D5kG5ucUgC0da5PbW6/DyxXdiZAeKYFFKs7Fab9K/YTTMbid352JAzlSvxdj6YTC8VFzfi/GK2YrhWveW3sW6QT7WaofW/owBWpxJr1s5r1++loVSFeO6DpdX57Y8kI/tME6TrxyioWMhNOu74WD/W1nSb+wcxs5CleKwyZP3B2PBWEc+nwpm7swxWp91qwNjpbsfhkpzb3Cq9F95l+r0XPElXq6UiNUIPr48VTwn03loSiDubB+pnI7C1tZ+aLVYqsi9GaOzA/kT850xlTywyCgCnu7F0eQivP/423AhBWUyu9aLItphBmaMQ00RNjvh8ODbcLj3C1kjO2FqyhFduBx9aoQCSvJAgqY6Nou+35cidHEqfntu1g37MtEe9IaeV6KVfoQcCihp3N99KaHzm9BsyOqe43BA+SOUyGu3Asn5LJAf6/CH/BBVF/+HP/3TP0/O7w2EDZUAqYx2MRh9UKafS3NqhY40nW7zpd9PCs4j7pVnnYr49cBaiVUINNXrgZieGOAssEwIeVlUMbzBeBiquGr8291fqALvWUXOwzoVChS9tWSTt7Hue2jhS1Em63rek4aHUDg2bZaVmre7L5XuA30DDzUEMOnj+fyQlXP6x4S/mVkKfQmay+uPOh6HauNK1dUdAlaJMOl+89XPFb7yGIeFdntLDJxuqofVc9oYaXYRLBLTqdCFJI16IivsqncsBvdBeXBm1s1wcqw6wzpyxI933WGA96fTruImrbfTDZ0O68vRnSTVZCzrSEyMld4HQ2nLCofFJm33SwsHBiZhnUE2TqA4Un8IL3oGupXt2vqng3dg+oRNvrqggTFWle5aXbxGlsT5xbtwcvajBKTKSb8nU/bR6SnuiUMEg/IIKUITv/ExZu9eG0sou1UwtbG4Rk0WhiyDOAcpChxrFwXtxrwB6X5UXvD9npQe4oa1w86gtn8P5bVCWKZWJ5V/NeWTdceSb4oj36S0OdrnlQbb+oUxHwnZ49O34VRW5+XVmZ6aqiw7at8tE5ajEeuwMVY0NQcJuoVRoEay/FmclPSxRiAC2ED5WR5RT7PT6fHIz4M8WPL89BYkcP7HXIGT/zEqgRLFUtvK9PHsRNL3RB+h0W2ZlrksOMLxsEwrzI1KCddMPa+iwOmPPqrC3V/gEAblwMrFCBxmx38JAscYsP4SX/rIh6NzMdvjMBhLMOhft/1amtyhGMieHpPAMUbD88548mDx0YdpfKY5j8/ExD7YkY21rP88g8g2H7AWI1Hc0EphuO0Wq0nLwlpbsaLd6ICwsROgdCDkKj0xtXMx3PcSNu8ldD5I2TuToLzQE6ylBQOEodHKlH79q4nJsK7czs6etN1DO2INohw2RZdXby3dEzGmqRgbTBvBVjGPNuUdAjWDPN1JXGVJ1Ott1TmEWUv31xU4KmVZJwgYBDleZWad6hxr7ur6B0v3+eVbnR9LQF7qHkIf4cjYm96lW03CgPbAuBoOJN2OtPz2tpgzKwPMbAtyXNrx5mPpI8oK3kScY55buyhoNzDqKHCIx9W1hP/oVO+7wPZ4k38rZBaL8o3uTsWTMRasj4byj/EUyswtUZWjdR+qTqqu96QInV4cS/BMlQ6V6e5e2NvDWtsLLZVn7/qt3sNpQXmhb1M+pHE8xkOOicmyavSeTwInnYqLytcFUHY6nZ98ejnyRt5ba6thliHWyJqh1exYvyGm8HDQUyIZRyBBPEclWprzJe4G+RTJQTUsLvh03saKYpXl0+vLswQrAJBGkgRTGo2GEgo9nQ/EVOtqtEz23FYjRZv1au0Cp7jOxXrJP8JGQWez2lqD7hv657PJvKHMS0tCR0zPXWJ1T3FbH8QiYUwcE6KtwUz6EjZn5++k5f4kBvTRJrxO5yJbgp/0UuZK+xwG01SbZHzl0Lq8drdfh07rMLQbB2Gr/SLsbb8JB3vfhq0tvPpQVvx9vmfpQ3gpNnkEs0YIwuDGJrDID+Ku22vClpSx/KPbh/gg0EeySq7FUI/Du/d/G84uf1C5n4ZqfRCabe/Sgvi2t5ma8oKxJcbUjsKOrN7D/V+Gw8NfhpdH34Wjw1eh2+1afM/FwPvXeDhGfgWRvvvD6xhvweS9TtjYiIWVRRLU1b7VGYToWHXYxmct/3VLloiNxdGtqGdnEhrX/bNwJquOIYlOdyu8OHqtNH0jhfJIZSqh00HZQtgzsZR3vevVLF1ZhvQCXEogXl9fmBDingucp4cEu0v3LMqHCoXKrVpumlIDTaJhFRXPiYkSTeETBpU4Chwv1BJ58Aav3LWGR8OnAX1aA4iIWtv6mvbzQswH0kS+oLmNR+5e6oOlbCfNzH8JHClC9rxplffLv6VwxkLAzTgysGxaavtolDgy8J5IWvlDmK6Hn/42bUb2y6AnQfNOguZUDF5MSowN12dcnL0LJQobyhyLA83+IOxsHS329ZnL8mOyI0f282HQmsH/DhYPu/Ramye/nInG8yxC0Nj4gcgZGHmm8tEf/q0HmCR5qTCVl8zUJ93n52K458dm8TNWU6kNFF9cu7H6EPRi8jbeojqv8m/UukrbvoTsq7C3+2axDl6nLatg9yjs7x/KKmAttJEsvEsbF8H5Alg1MOKPXcqGtS8fB6vVsSRlraiu4dBg9UPlkEkS5O6ejhWHoPGxKla58DE3nzyLx5k5QwzOzZqj27Pb3Q072/uyahT/5o6yq2PjQZX5dtjdwRmiqyhjsRA3rCciiuNIX/mocHqnssYk7BQ/4g0VJ/LxYVH6dHilQrrbQok278FdQceYcdNLVR03cZXLlkD3oKFQcxIJc/jaQds10IBjdw15eB+Qf56HDJbb4K0q39NWp00iMf3NosA76Ur1DAeJuoSMGKZ5HTX9GcvIZX4UgTZnMjlh7ihNrA5NN5MzlGzyb8CYaQeQGnBNTDsZL7gT1PcVMgvBwG+EmdJXGYhP9cyiOT17K8Z4bW7ezLkw5lyDQaHU6S1zA8bttmsMdqvzShbMK+VLS9eaYkwIY3aedNdcXJm3OkdiVCw+quvkhQlomBXpKIDyC0bpfgXE1fOCdz8ZSfpNYEOMPUmQjCfu9n5+8WO47L2XgJnqewgkrEzvMmI8ZjhAo5dZOlealPZ6lY3wXoRu66WsudcSRq0wGdXCbFIPDQnarc6hCWOWQKKLEmbO1hMmKO4N4qpaqQzAsoAPkh9WblY3Yl7cJD5BPcP6QEkh/wiDN7BgmBJhnmbNqfHRqyscIwb6ViMcHbwJW126jVXXQ1vUUmC++kBblk6LzQHrdJspPl4wqhdYoiMJr4swGNENSfcryoLXWYvWE6L2p3/2Z3++bDRLKoL79LtXBWM5ZHatWldiMP8uVYBjaSC10Gx1dV9mnloDaWu01DAWa/uQ8WrkKrhoDn8p2nhWfkbKqtTxHpmCpxH96MPJqczo36tBsN+6Ko1yKQ9UYDQiGi2KWqN+GPZ3/kAN7o3eo0/9djygqOVk3YOKGiB38qgIWc+nKRuKDw1McZ3MT8Nl/+/D6fnvLK92tt6El/t/rOMv9QxMkjQhSKhLsR7n1Gelj/kSFj6MVsKsN3gXLi5/UBlc6b4a7WoEEyKfF/XY+si3Q7f5WvH4dqF8ZcHyFAZrwgVGawHZPbUia1s2i19a/Gx+JYb7U/hw/LfSxIlT3xgt5ONIvM+bpFVMdVoTs9oNB3vfhcPDP5AWzGZhbAoWx7ToOovkvxs2VyOEvuoZbubWHWRjF7RT4sX5bWJQ3ubckH4x+o4siu3OS4WlNi9N3lN0G/58IpwUf9o+Wr0Je1kcVbOcGKM7Dicnv7Mtw8dqC1U2F7NuTBg6BMP2Ne7oZQkSqmzERt3f3fm1LJlfhXbjhZ5nMzSfm8J4ia+1pzTr2Zmsg/7ord6d6r16MjQgi0F5Q5eW5wOUBRRCrBnijSNCzxwYmGBaxwlB34wgvZD3WijmCnKsd+CN3c43oSXBOGdFAL0jcRNmUjDYLv3j2T+GjycfFLed8Pr1H4Xt7hvVrbYClGKluokQMoFn/LdiXntWhvORCS7zClZdmk14lnwdSiGqhY6UkaYE73JSdHYaIx/IQkxTFhngHzy3Qmty+CQS1nAE05hUWGzBq8KfzM/CYHxiA5r0a6KB8c54rOcpxEVBpqkEDGzZEFMWDgXpjxTAG63+63m0PQZu1yzeZwe6HKgjuKDiUXUmJWagRtYwbzzbBnoxn4AMiCRYXcsBt0yjd7L8swwUxbqdA2PYyl9j3mIcNgGy5vM97gd9074tWBTFkGRd0Z9PuePyinZ/cf3W2hI7RSIQTUAZw13WCBN8U2nvtY40+x3rbsF6caee4viwkKSt12UgzYStCFl+FiHWLTF9Y/x6HoXRuo0K8tzuuTLjhKWAAMJq0+uy6K6w5s7fhmsxTyw8xmuYoR/f1lP21+Mg4TaL1suWGPiheSzCj2Divp4Y4Dl9l3k3su54ludcaLvQ87XyvNzzGO0SXmf81OPhpJ9pxpuCM3DigwDg3OuP57Xe1SfpkmV5HJwE8BzEfRn3Zur5cl21+C3PSyO7x7UkXqnPuzLFOCMKyyBMmaNl9fzp4Tn0iVhWFlJFgulmaFtl77R2pXn2bJAPzw3MQhuE1Z85G7NZ4mNukFGKggmhtaLyRYH8pM2iG9hscfOCsTv2PxeqvBQFbQXtkpeozPaaldHnj0ptqgYzDIOBNMk+XkZ0O4jBtqXkNPC8WQ/OWGjkCBu8nGJ+WcYXwqwo5TcCBy8j4oEQKsSNup/UeyszrAK6kmAGwzAcXsnSOguXl+c6v1bZImhgEs4gF+FYGDCstjTlHTGnvdBp4ymHCyzhFqcjplc1RulJFB7hrmpD2nkXJs4yQhBh3IXYlcM8E2fu9H5Q78l/HEHOw8XF+3B+8UFWjqxMLDlz72aszNNNFD2e5L0LfFYPYExqZ+tA6aeLkEmdfAMB6rD4ivg+7sTdrgRUd1fvMeDOjHy6JmO8CP/u9GSBb5g1I/LvpXoTkjzGAsJCtJUHUFp0zQUvk3ivVfYq98FY8duRxXZglpeXdYxXEjf7bScpEhb1LKmnuo6H28ScCty5xZWrp8UdrSMfZKT+WIXzBtc1L5hu50gNZhyYI3F59ZNMvGMllbV+6CpQphm8ojmIAto49HVDVcIqHmc2Uxomo4rDP67lwV6hAhrjSRqg5Sc3YoX8vGH90LNL1atL67OnsaLgwGRgrmvDqrELGwZtzWNIF70c8uEMAkYBydJqdEJL5IO2RUjXfS8vKzcTOsTh2sYUrgdn1obGOqeLxIUMFK2bGIaP1+Glx7gE4xM+eOzlf1c6aMPAn/NnI2MuAoIDj7CKiC4txg7ux07S33BhwHglYyiD0bnxjKv+ex9rkDZeqeFBRhcR5UI8+es8w9IozZ6lYfBIg/ew2gPpZ9mdCBdKCSVlRnyZ+Hmw903Y2WYjvS1j/C5wnDYLBI4vbeOTtrk2DqPpmVk3bG3OM6wWsNWVwKnFbto0pUDdoF6YoEnOE5iFI8BP2B6duUgIn2UdejqsJXCIvjfSmCj6EKVt4qLXfSGpvK1n5tZo8PO/7h/bUi1VJpLFbqJFw1tmzNcO8pOGjweQ+dSrIcbKUpRLiHxjGJAYgGtOKlqvxV8AxADmPTUUmDDLzsysH54uEWaPLxaPXRswP+/O+pRG6FakD76jcHn//6fmeer56tgGyhkgv7iC6fbMsmPlY5ZQWc4DinHk+9670G2/EGMS42zv6mpLiiDxkyhq3NGlBtGOrfrEeuT3isBz/p7avhRJJjDC0F2QFNVWvsd3E8FJXZdAHU+ubF7R+eWPYSwrh7UZmcho82V4Vu3ABuUNVuN1RGDjXYfg+NZcwBnjQAiSN8QxWhZGNpCeJE5BMTeFXVth6kxcJUwmxEbLxB5aA3wh5mXMp0W+iPy6BCZ7K0ngWLeawNbTrG7BhF7q+M72gfgpzg3JqhmFoMCz4+sWjp5QmLYahawct+jt8pNiLYFDQaCNxwKholmjq0njbB6G3e1vdNw2reR6cGoay3B0omrDRC36oalAUehQCCqihWn4tcPzxAeGk0aZ5HMerGGp8dDQfE01zHTG1dYs3ueCqNHriMLCBMfJZKCGUrM++EZj2+rdQ7tjjRlYHjujsdy+oz569wddOtJOxeDxlGMcJzKPu4GwSMiYBdaVtHy6lMRwcGFlnIpBX9yuo+XloI4Ixljx0kPZ2zP3ZxanZExnakuWML5ylzBOwlrBXd0tqnHWu0EXrnnB2XdIj9/PgzFd1WtVWQkQfcM8zlS2k17ojy5smRj29WeQG2Hjlg37HJEe4hStz8S6meMU0JXgeGXpRwGgu5V8dUFDWSWCx8rL402vGQPr5J3tCsvK4roWLRv/BvTpiN1mHoYjChzPV91L6o15D+ov3YWsKMDKEVg3dAmyDA/u3TZGpTg7u4ZS8YqWjRHn8fcSMR6xm8+600jszwBivwbITNcglgWDydpQhd8OezvfKbPeyGTdtgl6zIw+Pf+9tLbfu6YmTY5+ajQblA582H3ANBbKp9FDkBUe9BBkhRcp5lmsBGBxz/Jx7q6eQ9a0YqDUu9n8XjZ417sB1AxrTev3bTZZsVvvJGGvQ+siK6xI6fTHPFjeX54v1tPSIxDdTL3rEwmckXVfMReB8UKsGxhsEZbhZ5HuJ411oDzvD650DUFfDL45GinDxeBwLe50GIAmLsXf42seAMwaJjCVMHU33/PL9+HkhImNFwoLd1YcCOhvR/kQo1C86BKBaSDYYPQs/giz3dt5rXzZVrjEAY8sumlgrOTh7TyPoGsMrXcyJlzaoMImR+4QOI6qebkxZsIqAyZsLfjb6Y5k92CKEqLspcOkzrPz9+Hdh9+FSwlam1OjvCDdJtQVP77j9Zt0uzCZTlCnOoF5RkzoxJML5xEcAqxLOfKnhMPxboTHhXpVU9rFzCWgeMdc3msIJxdQRTDPW4W/sB4s/EQYWrn62pHxu8t8x4rSXykLTaaT1HDsmEuZou6x6OeF+GHVrBsWGsXDEOHq+455mkA6T6mvrEzi3ydhHg/SQb75XlHwWRTSJF0KZhmnfNz8zpIA72cRyHoHKs7VHBCkgl4EbldoQNISqOyNKjN8v7HZzXQzDIa9cH71VvRD4rnWt8pGpbNVba2SPb3AyQorTU8N8pOG7vNA0OTdGrRsjlmdAcVWz5IeHovL5bNMPPfykZXmNG0C6UqZhUWFtTRRR2C6IzHhS9UdxjNm1kfvS8jQhYWWX5A594ExV59/w5YbfPs+oL7XZGHB6OljhyHc9SbthryFEVgWm/VClxLjNsfmWmvto85gOdo9eaAHV5OINSvm2qrv+riFGD7jAe6F5do94DsxzzPzXZds/ocEk3ezOCO9C6QB5mVL2tRl3Skf+O7dQJhTp5NyHTGx8aOY7bGYrgt7L3fFI7EUAOmgVjifwbqhKxPLzldOYP9+EzRYPjfi4XX5dp2GIau8pr6KMu/wLXdquDv9esnC41kLm7gpTPttt29+cxGmDnpL15krQzuVgqD8YHkcxuzYDqOl+t2lm68mBYJtos26SV7OAN9m1Wx3lU+n0UEU+L6TLiTnpLUI6TSsEliGeZNA1jvQWgLHkbxqJp1Ld7tG4U23pH2+CPu7vwi7W6+VsU1b1ZXlGU5OWQfp1LpIQrIZEV0Jti8FYeXRVwIqH90IptWapuJXlUl2Pwve0KFESzPtFi2PhvS8ECtePAexkpKSWK9cU3MNnR09+/0rCYOhDfbiLNCs7ZqG710TxQ2nCB4F157J96V1k9TvXNBdVZdCxVSAbUUV92IYYXK7AKTbNV8x3iqWy7WEzUdjvr40SrRsLQusTC0+Yrb1GtYLTAhX7I6Y056EDuvHcZ/nkmcj7mg7xuAVj8jk79vmsPCwpm0NsEQL9+8Wl4VKX2l2Go5w/T43iw63b6y6BRT+DVK6bBVlJrfOasaM6W5qNVnqf9fu+1QAyiBddlnpSMeR9/hNfeNZSOd27W7E+uwKxN2Fj5B2DzV3tmBR1bhuIqtIIDBZAJl5TbY6hHWnKVZqB4Yb8YrxlZIqRQlHI8VEv2M8ECpYNTcFgSVVZeXX7pfOx0K6ZD4B6UgSexIYiYMSOG+JKezJNHwd9rZfKXM7YTxi/SK6DX4M5zKjWUcIDZaBUVuZdhFGFn35oPxhRLahkrnBwgTuW5FVhawio/klXQrJveeI1TTFRuEUf6N54yp7Lc2/Zw0Ki7nT3tURZwEYzCOAfJeFbeuBmYZ/O36rYHCZMZuW4sFmV1gbMGHeLQIMl7AtfFMopmE865nAYY4R7r82XqPrXu8JMBJMAgbJkfXjtkzgMJa1ZPZ3RGAFpDdN9wXxr0n40XVbZzLiLcsiG/4NFCpcvy/CtZgs2j2erJ7mdDqWafEzLAPyWGnHCpB1w/wULB0H+ZUut3i+ej2N+I34TN5z2YhlaeUJ3QFPFRYom6T56tq4QTPWTT6489We0revdLUVGwQtSkFKGGeAbnifSnEzDVhxi2605OuQt6+n5xFrChygqC4EDYxRFck0BGtS0hZ1XUIHS+dg7xeydl6bmcg6UOeXH8PxydtwccGS3ufWj2sWj4WVR18H0GQQOBO81PTPGRhndwHNyft6rb/3mQodBGrs146IgoY6xb2opdHFw5gFg6ijoRiSMqHVbId2e9v6vlFsLLxPYJQ3YJnqOYR1M5kytuhdSt5w8wHjg+G2WggcltWha+bu3EZQUVaeZvruGa+7kEDFSYBl7d3qSSInKEyzXngHbRULtiZho7bVlnUja68mS8/Tcff3V+Hrdy2701wgUO+K00++M3sf12KsTkZU3LIojgOD49aFJOvmyjYqO1e6ETa4fkeBE8NJh6Vzha+YWY8J43eMcVi3EzPvF1C8Y9zTxzvSY+8t3r3rWcEbptWTWKfvqjOAR0gDecYalLTsoZSpofggPT3tZtyUrau6wngU5e0K0U3EeDq/HUqZNwtHZUk8KEfqmHUbJtHy3g/I89fj8rTgy2uAwk8qQyJkFlE3wYM05hnW+9mWFngQ9ne+scG9Vpu+56kyqBfOzj+GDx/ehtPTD9bltgwnFd5XBOowjZ8Bc7QVtF8avlXkWGtyIPZlFcwYkgmbpHyeKWLjjPHk6A0lSS/1SMwQTyVzoFBjspUFpNniNEAamUpgXQ135E0xYK4SXPqWWzjk+d15F7cjMHfoOmNJeGnd/R4LjxI8KzTDeFmAlA3UcIHGsqG8ndlHxgFD0/esmdGdpJfnbt0waZGl7X0MIoJ3eThNeSB8tGeYWfKstee73gMwfroUGYfAtdcVnLtA2knnYNQP19csg8Vy/j5eZd16JrQipUHeokDVbOyu1ZZ1x4RNWZnTCfeI+x31YHF/5TnjWRACj3TfEU4KXkaJsE6uFdUfq9v6T11G6DAfxrqLpXRLTzQlwjwNzZkh6bWw4k1CtzSkyMpL9WiChYNlHO95PPDMc2UChZQVIbzbnYLwcbGnhQ0b5VExUk9aIkm4E4NReFqYJEUroXutcRj2tn9pzgTbWy+V8HboD/oSOh/C2SWL8/0UWHbc3CKxdqqjwJ4cceCURrEkKoY+axX8JqNapecOj6Piqn8sPcHkRlZqcKHtaXDNtqhElAdqjPSlN5to/x09z2AkpZGfB4SZpqfAapnEcuKyaf/67ysOY7mwZ/tpGE7e6XdN2h8r//pcC2dMINbDdcB7dFmMpWX3VKuu9Hlp2zrziYO09Bi2CwrPK7yzcMN9IYa7pTrKc4q47tmwKMoYybREJSRYumywX/9sEzdptmOsfLZHZhMx6jmPJ/lhR0ilyCC76sTMwmbej6+AbOu2WV4Qz2ziH3DrBeKH/s9Ym+6D6hzatdpakNCwcRBu08b8PYfFzE91vRYOxRhFNU+/WUpJvE0wWGbxKDXQhaddEFOHuZLm8fRM7w6ULwh5f8efhUHGb+ko/mL/5sy5YerFi9AWP6moHnAdq4luKvvcghcl3zNK/6as0uXKeBlp1X3yMa1Ir1ASC517WcI8K3rf+JXtR6SwLO4WwIL4DZFG8hyLjK5Iqs1ochWuZeUhELqtFxI4R0qjBA5BEC+lJ1q2Fu+k3scFTifTKykrso4Dyx9hKep7Rmo/uspfd7LoqqxY1JRVpeEPWIse1rpY1s+bVIRcgXMXrOFZISfEb8scrieNSonWT91t6opMf1XS/Z1fB/adZ58KW1KiLnNwfBY+nPw2vP3w9+H47Lfh8vqtCR+YAAOocSc/Z8JoQgqXgUeFTfrigF0ePSfcjh8VmUqqhqgG2B8di8Feet4pjUQ/jsnkgebGNtJ1abtbW776L32/U70cu5u8fG6WLL9RCryf1+9nPfepWA1rlSLS+WBdEipH+AUpZYn6ifKhP3gnLfj3Zknsbf3GVv+lz57nTbExja244eR+V+e8i4cPS6pMZxI4FZZvn6nRMybj3RE86w2fcKjbjbDd/cOwvf0radoHuict0pgSjViNm1MxLr64IMpBpFKiwuq8r+8xkfWtNP0P+oZ/dzrBeYH8WOaNHlZExWBquAvDfFgVWMy+vq9PthRnpd8EEcQ5jGlJxlwUNqQL+q2/epY8HE5/EtM7sfBttW0TODD+1TGDJB5GQcLuOzGvbxWHPV2pqq7JGsVaIi7GHEk1XU0IEJHVcb45DUO27+691/2e6irCZhKqijd54/FM3rEyIg/IL44dWTVHYWf7WzuyxT1MVQamwki6kPVZL2rF0/JDcaFs7BLxIn+oLzykMI23wFMIH+GQKnMKknCSOGBBuOu44qxwLIT5SGV2IcbPygBDK2fqsMfFv+Ph6ZRzlR8CpdvZ1c+JrZfXuz7Tta1wsPur0GkicHDEUP2x5X70PVm11m2axJ/qzvysebgOvf5745mjIKWlNtQNlZ/ygru42w/H9JSwqyircrwO2ztS2jo7et+fI07rINbNPMoDOfLI4GMxEfHD/KagMYe3QleNdH//ZTg6fBl2dxn4k0RXprL8+vHx2/D+ww+iH8PxyU+yfHwvCN9Dwn33fS8JKnGco5CfwOcLxdmYFHGH0OhxFojzENyKux9ghDBeHAbo2kFr9zJwtvc5QGzLBAhMexJGo6swGNDV5IyYgXlWuHXXXz1tRR4ZxwOggJyRwHhiXXIB6MyScuJBr8OmTImhtmRJ0vWBMrCMA41NB+M4rKYMc8H9FeajEtU3bL4ZbFL1Fi+tsdI3nUtTnQyteyUXBAlTtq4YJpl2dA0GzdeL80CxSs4cniaYKfGQZcd8L4s4yAorYdjcg+mJarUYB+oaX1gyZwsXV+v0XCpdp8uS9I5n7EJJXaeek+cel+X7et6lht4j7wiA7ZhZ6Vl5ru+ad6LlPQIixj1i5be1BSj5hrU5rIeY39yjLqVJX6YtJQLIFQAXht7tDeFoImVF5TgZ422LkpjENweEaatV67nRkH1qLnV1LsuGRVf3eULE+8Qx5kkClZnPW9RV8Yr+8Mo8fnvXF3qUSKpu2mTYZnJ0YsvzphSDVvPA2pGlh0a0mk9PAFL3hFBzFVNkq9etLhPWjmTtvAr7e6+N6nX6Gye2xQHjOh8+/hjevftdePvue9vD/OzibbiQAKLPG+8lMr/RhNkmwX/m8M3r4pwkKsR9QeNg0y1WLPaZ5cYEbjXE5w1WHHY3YRrimRoTe5WMlTY8d7ZtgBpm72nzd4oa991QOLKaqUs4ajD7muAI/4bAMaipiLnSVWneaTgLNBi7QOtMx0EWhB4lXrzK24Rpe7k0fAFKEz5ixgwWU+a8bc8Wljnh4Q6MswDjWHGgXC/emQdeFyLByIxxitmPRkp3wnycsdsLBYBl4LTAviswfb8a4d9QeHQB6oiVbj2OSjOTW3EWYFHOiYQOikUEz8b0xzJdlG1i/TDfqd3aUb5L219YEBIIi3kq2XCrxePlypy7ntPOikBWQWZ964TomOVBGSoEutUUquoOe/fIurBvxDzOBgoI82yUAONz/QErQsti3jqwtBUBhRQHC8a/r3pn4fzsxBZ3ve73lAcsZ6R8geZMF5CVxCoKok6b9dgOw1ZnzwQO3/Y4FufbJvDEAocyUWJVQWwPEWkqTFpjV76XR78Mb15/E168eCmTGbfXupjvRBl7Gc4vPoYff/qt0fv3Ej4n7Od+YfMyDKu1/lkjneXe+COx6Vd6x9SCensTYkS202GdnVdZXoWZ2QoTze6zyRoasDVfywe8F7FwwqwaWBQWV2jf08S1Wte0OcJM1q3GCJaxCXlzGNC3Y1WiW2vR1SgG698hn1uqm9siuj3ci8jBixTYVBos7ynq0jp9yfuk24guDwk42BRWlWnGEjwwZLpJiorb+v6l1ddUvgyW833qCMW8YMz3BvUN7X6iNsTmXFhdfB0iLMXf8jiVr2YV8Nuv833KwxUAf2cBrDv9tE3izJKCsbuwhWGydww7tnrvRCL8TBiQFpNOogjy0q13Fig1gcOEX7omFQ+O5HMhrK4oTCwavOFi97x10cd03yYElCsdpEfWhT7JuPJ0rrgjrPAmJE04+eAhpnTyfOzGzgIednQP89x1/9yEyM7Oji3QWQnRvTsL5CUL+qKo4HAhwT10qwoHlOm4KcKBQvVi2lVxbSvntkOtsmvDF6yz12zuKh3UW5Wb5THxJK1Ph1QteRp4RVEllfk3n2LysQabTL4G27++Cgf7r8LR4Rvbe/xg/1CFsRs6HTQCCpaulrGYEZ5LNBTMW2XY0+bZIyDdoBR5GrOIdcKY7W5dDYtKm342BzS8SlMVz7VOfpu80a1PZ0ZPjCTt0FSMYCaGhOs8cxLQGmE0O1svA5M90azJFij2kVs67y2ZVwGb9QUi2QeePCe/nJH7GJGPD/EdGK2sSClJvmYZjda/790tMATXgp2J6oaVABYbY0TsXsmOi4zdjM0dmhU4SKMNdPNiYTL0/ZnK2L6PZxwWjsf1rhLmGbLISXEjfmK2jF8gcMy7SVetrtgzhLgaanKNMZ45TNOtacrAw/XIE753T45khNDt7V2HQ6UbwQOzHo2vLM99PIR84j1n7DBCE/L6lB1N2OPMgKOE+ARdmShVyg9XPhgXKmZjxmssjvoeYzZVWTgcTegkXWuFlAgT4i7rrNc7NQ+7kfgQygplSBeh5a0+lGRFJogzLv1T8S68L6lee7s4gOyG6SgqL1mgLtJFS3emewd2Otu28OhWV5ZLbU88dF/t5CB020cmYHa2XofdnTcK/xtzMGHNOPhvHBOOef+UKC6pDWA5RwTG2LCBv8moHsZDVaDKlmU8y4UfHnwTXr38ZXj9CvpO9O1izKfbYXY3A2EwWLo1VhvHc0c6vtROVWoa44wNklhjbtkQ7wXT9Bi/YTFAutSwIAtq/bMC6ST9NFY1XBtMx1vPtTc87jqdIzUwZl3HxgxDcoEDIrNbD9JOEXR0tYi5JEEm3042FqO8xLSor1jlzTrrhjmz49OuYYsoVgQnzFNpguFWxawo0+vr83By9tb67Om+Q8M3C0cWrTNbF1p5MNfnucq3Isbb6EjbTnepJaf3BVYHAidIwWH1YGnbFs4NWGL8dAF+k0GytCRsGKO6+QxxQcDCfGHSbDvgghWrhny2spUFyyZgCL7ldxNhvWjL8bq+x1hE1cdvsG6w5t0SSuqACcgiJPdNwNCVl4yTYqXYtWxyd23OEVQogz5Bk5W8L3vnKks8xK4lcLB4sOD06B28yNycJTRY32wsy5LutK0tttjY0rWk8uUAQYOwZbxnb/co7O+90vFF2O4ehr2db8KBBMvh/i/EO78LLw5+FV4e/Tq8ErHWH+Ofts4e4zwWB/IuCfgJUfn3f/WXqzXNwMXMGwnWb+Q0VMD7SYUzsxvQEOJ50gjQMHREI4GxouX6uknRo4YMJKx147MeiplD0T0aClqgV2T6uNH2+oNe+OHd/1uVGm+X2BCScNSgYpixQqcr9ny2rwr3m/DiEC+XV9KCdxU+36IbB2HkFTn2RQMqnI2ZKBzrfhNimPyGihpP0b2i9NsKvbZAoqwDxc/GTvQ81kSYs3c/C73+IGvgRI2kKyv3l+Fo/9d6Z1/vkndZ4Hv534zx4ZiOG/kznv0Y3n3423B1/YOq14XyC4uhJu1VeVRD8KMIUdcQ6Ns2ifmNlKAwFS0YGfm3jMNUTJzksBbYXJpvb3ASjk9/F05Pfwy/+vb/Elrtdji/+odwdvkPEqwn+k4sF7T27DTOZ2wwRtfzb6S5fheqc3Y5lXKRfNt6DjKhcNWGUPRs+3IJgXpjaozz+PincHL5/1k+t2iPSTrGSrPiVm8gDKQRT2XZqBy6nRfhzYt/ozKJ7unkw5JZziusCnFlZXty8lHfORZjPAwHBy+U5r8J55f/zeJE/fdvQuSV0kC3pcoAYY/lwpb0zToM9hfh9Yv/3tLpbR+hk04zYWVjLn5RrQ/DVf+tyuH7wCZ+vmlcO+zvHyVtAcuDLboRpglDVj2g6wuBgnBh3OTyEuumF/a3fh1evjwKF73fhZ8+/Gfl0bXzKIG8Xm7frJSprUCEubv9K5Xjd+Hj8e8tb1+++Dbsbn2rYjxUNtBNmVfHlQ4TrMqrmHcQyorqAEpLhNXKVPusTI/0N8YnXvffRe14EygWqRsFCU0EiJnpkCqSDXpRoajMnHOUKQgFmdJ4YGAd8Z69+zMm4aFQFtCvvWS8jEkhaJaV5z5A42MgG/fzm0uM6AMJk11lupGicIm/IzZVEQmXz7iQw5NLpSgGQx85u8PS9YT2D4PzSZ47ijQDopsoZ4S9W5UIeLpNorUBYBDAjU3WLhNDqLJIp+qk1d/sPPIJdrpbkyUzkyY8PDZLpmZjUKSdib1xHAEGou8pX4ryHObKnBssHDyPvP7fD6tlS1eWeYsx38sYz/JeGrxDlBb5IIaHd5htBpZl3STCA0bKQDrrpF332UiNcSrqNPOIPK9doQSEQfgck/BSwcL06YKyfW6w3k3J5IEY7+y4p4G1SpfXeKz6xdjgEMuEOV7j8NPbH8KPP34ffv/jb42+//4fjH73u78Pv/3d34Xfff/34Yff/zZ8+PBT6PUuTInY3mFxTXpYFDhKowkA0pPEpSBKtHO60lAibdJwbVtpw/MOQXdXHeeDUMIr4Y/GE8mbJbH7q/POhCKfNYp5/fPgrhRuGLGSJWRCR5VKGolR+py91+M1615IMi5aAZ8LzFrRwRiAGIH+wQDMO836lb2rwZiE2q9RillkgUUU3V3U+7bNMcNe0VF/LSxRWrDE32nimr11B/N7CJx5uVUF8ZM5N2iog+Fp6PdPxQjZtoI101iccVtP+zpljw0YEcvCWxfQgmF43gDiiicS8UWotxpb5inljTrdcP29SHW0Zdu/ZRAGo2MxKgTOSOnZFuNFa4bxUs5YuFiSMHb/Zh6YmQ6DIl9gwuZ4c488IdSY14D0MIY0mjCukhY4kKeVOur11B0nIK8OaOnsLuorY9tz9g5IwjCLi3Eb96SCuVckgBotLNooaPXMIr28T17yDdU7MXTPcr+PtUAXZtx64Wa+860YTj6YlEovwoQua7Wvhiw2BAaD9YwPt2VxNqQMkF6EEAPyV1eyaES9HsvOMN4013vtsLuzH14cvQ47u6oHjFElwpQuVG9DilFBlCZjtklXnkhgs1tto+Eb5tlePSQtF0pzzG94HzzQunmdZ6bdoFfJ8ytSRPr86VCYxM2ASrJKlFCKqGxW4SBA5hDVlPZuFRszGorPfW5QvNUY8FSiUtO37OlR2hYNUkifZwDNGVdzG88y7Uf5Bdn/4ooVmetTAebFN83Lx9IpZqhGO5IF0OuzYvKFrs8laMQMJHAatbhibqwrWbReGogHcyHQOi0cxcXHzhKhbGF73UOot22uxLZ1LTm4n4LVW8KhO2gqhn6uNH0Ig/GpMZPtrf1Qr9fF8LFo0fLRjv0dyqlIyFO2MN26lIqQWPgWxzvKL4bojg3Ke/1D+A1Ny2c5KdKQToenF4pjZHafaOo3+bAQODdAuglHTFvhs1zL9fWFvjtWvtVDq0W6cdAg3cn3THGM5OG5V1tUuCRaEXBNxnYROHoupij5loeVhJcDrGcEPONJTM5sNKtha3vbxoN/+Ytfh++++3V484Zx4l+EFy9eh8PDl9b9d3BwZOPGL47e6LruHX5ra0Jud4+UnrblI91tdBETF1PvFMciRWAswYegZ9VvBvhZ9dytEMUz/zXB68kSpF0vxPwz3phHMY8g3gN8bLUMN4+n/+ItpCoNGZpUuNvX0lHlN2YsXRJU4JiJnwfSjAIGYN53MvHNWUDpSg8iL5/NT6MzAda0onI5Q7d37L0l0gwtWjGuvfp5+r5/8/ERmVgMH6Y+Gg+kTZ7buAJaaLPJpma+MCWOEM4s7fFHhUK1Qd8542nUJ31kkXfc56gsIY+Y+4GzCuu4scZVIfQa3SZsKIbAgcl1ui2bawEDRcCaV5y+6Qt13g3GGPi2d51Gr6v7ZYqNv6B9Y+lMld8jJiv2TesvAmMZfMI0d35XWVIfaxrX+6w84KmZjXfQlYZg7XQbsga6JnBg+HS1+XMRN8NZrYdm4SjdzHvyZ1PP32DA+cDCYq4V69VheVlvgtJEueKUwkRMFgNlO+fdHQmb/dcSNN+Yx+y+zhmc3916ofq4p693ZaWwq+hMApXJyWyrkFioFu+b6VmFeaCqPjRbUmBae6rfWyoT2mzslitCVLB5NuGLCWH15pHzy/vl1abxMwicmPgUxYy7kaE62rWEFmM1/E6O1nfK8+kK/LkgVkwYHN48q6tl3wfkCa6S3sdtg9t2zbtDDPpMbMRpAjS4SPEauC8jWwfp71B+NnA/uRaDOgvDAZ5pFTVsn+hZrzArGmshlR4Q68uCPjW+PE++Y13iGUcdUjh2jfT7M25VeTdSQ4wJTx+6tOJ9o1tMgrhOzTPrUkKUORM1WTV4FtGFQl7PxYgROrEuq0T0J+ZLEu6CuC7Ggdu7zaGgjNFqdbB7d0Of1PdIj8/jIM3R/X4JCzAFrxfA8kHlAvNnsN3j4HF3xHd1VH70+4yVXOvZqoQ0rrtM1myYYsWKxvbc4hW+EWk1PdRVHBV8Z8zlM3w7oQWPyMdMVhWWFYIGyxPHDNYTY2mtGYtkQjNWbcDzzl3PjfiuOYzgTZs8x3HKwrGy4gYXslauLQ5erz3+d7UfrEPCZhFSxl3ZDhwBtsyUHBi/S8jSzPOR0vm4SvGZmFec/zyoWkXMIDKtiB4VSRdQZIZGyigjaWdGeszWp5L5uDzin0/fq15fid+mqQhZz0dqiPl4uZOGirQltpb9IKb7Xi+STp+9Tg4s84LUw3Tw4NEv2d6sgsI8plb9UJoZ2wvvKPxYuaY2hsBzVO800kImximCc++Hvrt847tZlMbNe9L1B0NrAnWLKoPXp+Gq94MsgX/Ut1ti6m9Cp/MmtNr70kxZgFRxVVpI9wJJfVmS/t/4TprQzhnDwJIkbh4WLrosmcQYi62BZfWMvnTPfxafrdSqekdacHVfcfpWTG9P5UTxKayZj8HYgHSyJE2cYzac/xQu+j+Ei6sLXdsO3fY3Kp8jPd8Sw/XdS9mKwL2MEm8sxc8nPxJnt9yJN8yuXtkN3eZLafn7+s1ER3ff9lnv1As6c+K7kRB8kMKe6GG9g2Y9mbBn/ocwGl7ofeIfn1vNQ/LMLW22c4bJsn08y+fTzRkqiaNFvK+oMqkTi67X/0nVe2BjTq2G4i2ajGtmWekF5VTsGtO5KQuQTqnrSpM7NcyV73thp/NLKSBHij/ppNuKx70byboILe68zx0nfi7TIVK6idtkQhdmI7TbLGLJREt3bzeifZkgj+Eqz0QIV8bv4jXmsNCT0B+9Vem/17vM4WKMSI/TphUFK4/k27q6IH5WK1hT39hcGcKhHiHXiRf14Ea8V8iEcw5ZPc+h1eV2LJ89I3X/acmGa/PoabCsKDdJGQkllcuvxn9eOVzg0I3E3c8DJgOUucp7+8Nkz/HkXOzifJFWq0Q30pSk3ioKpJ9qaHio2ISvOpO62D+D9xSwNCBvnHomKUgKOyJWPq5FAZOmx8YybPgeGqZYDkxfTNccBYbvwnj2UQ1wR2l5KaLriVnX0jr11xsMaYvw/LhJBVh8P6YNZkr/O/swXel1NH1yK2E+yh/iaEJOAqhWhcke6BlmiOuG8tbmmSQNOmYy52jxV4Pfh+vhia5KfRCzbOOqXsNVnW4l5r3Qfcqy/DB0MQsxU4sacURwSBDhvkw8qQ+shUU54yHHb9LBWIcxKtJu9SUHhCtGWDUtvB/G03MJ2RPF4UrvY23kgboR76tOShFi/TRbHRonDtO0yQPywvOf/ETg9EenCntuVkRDwroy3w2TEVaEwkPALOJrkUuOECC8qeoJLXzbFKp6VZYILtP2TCxv0g3p1JC6LsTytryqjVTOCIaZWSyMB9GNNp24gpBLSXiu8LqrtAn5qtSV6bGy9UyVxOeLedujntrXdY0jiGnzC9XQCa3aSwljdonlYZQHMWIETq7bf0RMXxalv3OTrI4Y6a++yWcjPTUKamqJTQBNFiB4zDtNGi/dHOZaWYC0kDBIs2UAmYUc6fL5PMBkSjVd2rM0YNbUYnmP0XBkigMzpztM6m22lV64qdIqRulpTtL9ySDfvJrHPCQsBC3eS0Xh2tpl9bYxTrzLvOGmwW+YhGuYtmyLlIez87MwHjFYvm2OAp0Oy/JEzzbChclCEYkGusIBjJHrmm0rXStSrHQ9YfpLxG84A4epmSPDsC9LAybJIrj2YC54x6B8oNvWJl3aGJSuS2jEsSwbNJfQxgmhd30qa4blfZrWjehL8FDXyW/Fp7AYiSvlTfvAssRV2JWA/LQXgO42tSvGkrCuaHs4PLRaeBoqHZPCyCzga7XBqCHewVpmpRMsPC9Hv7ckh99zUOm9S5I88flWHu7XhFLgPDEW3S9qzDZ+MUbzSryk7gPVd2uQ0saZ7b10Fvg8wJybUGUcoWeaMIPLLFHE/JKueYFtSZA21GjTVdM11YdgyQScqSHsYcBFmE+rJnDYZZQBc7BgKElw3hVXUajMHGfnzg+hd9nXyw1zfGCRWisjmKaEQjodfu4BKVT7dwNklXXvMVC/plIBg0xmy/sadUzIZOAei6e4zsU8I40IEGeUvnYZkzSt24n7spSw2vpDZt/LUhdzxeGj3WbNNzwn9TUTJJyl03gzveRHZOA+lymuaLAOmyJvCYuyRsiyukBFwoZtubcszKj8FcHj5M95diA46ZpkXMi7HP2ep8Wft9MVkAZZSNZmGXNFkCb5Z+/y0t3x+dyxTkmWeACcyTHhkc6TkXlJ4VrpmlMxYmXGfGfTK7RmVp6lUX4WUBrpjmD8oj88Cf3+idLeV9rZXG3P3I5x74apWToXWUIXUnK6NhAUHNyyoRzoPy/CbOZzTvCQQtOOYcAgrDuLHzBRxZOwBuNz28sJJwcWmdzextOuq+eaelgWkoiH41iNg7AQWlhJnkjCjennHVaIXquMqVNKLysmIBCY/4GXFkvbu4JdLHBJox7SP7YGYK4KXWosj0IXEgKUB7CchmEwkrCRtWpehqqXpJ+8I99IHwJbKbU0LeHpXQJB5gLH67cErU2WvQ+buhGwB20WDl6Q1yZwGH/BGcWX6Kc8i8O9KUScprjwj31JoNgdzXPxWbuWFmSxXZNXiYXTbFKeWDzL8ib+yzrx5eI+JVniEeEWjipWFabncwPworHGsdpoMmBMSRUXZwmb+W5das/ZwlGakobv6Y5dLxI40ojxSkTjZNVwtk3G5Zb0+cRG8gMhdXe+3B80bISOLBzzDCrAjEUqtxIh6BaOpUFYMhmFpzRgPTCLnTEM1jpjOfhu50DvdQKOWbi+2kx5OOEtxgJTRyBxD4I5uQCiq9G3nbirjGnKxIdDKr+l1rCXFAui9oes4tBXnCRCkBeJNZEHHwdEUMAoWTCU5e7pUtNNG+NASw9hPOtZeQ5GOCLMrQsR5wKfF8bYB3v44JBB+nmPuGaxHvKS8iFvsW4YP2sp/vpOTFsuLFJ+aojp90mojK3h6dZixeTAyhXEK5ZpNqx4BeJDkVkXOIt1jgnPHSbSQNjQvm+vFk1a+VbSNYmliBIS8yGxFL8GfD0pfSawSmqu3Kq8s4EqqC/8Zw3krjZl8IdsqRNpnbjK0qjvQmSQziQ3Df8GaXVCE3QX6Nmc/VDoejkzzRPNHkHTZAVmGyOAsfK+02PE1y0InVhQMAkXOD7h07GMa2QiytUqg8suBE1DV2uJ8YnPsu4XlgJL1wxG7E3fDztbCJt9vccGZXg4qXx4TK/GMvD3LahFWBDfjc9gEZgrsjHeIgtnmU8KJQnL85t6xuoVcR8a94qamxcezxQhxpEVLBqyVkiPe3Tpnnlk6X4ydkNXGswY92fSzq6zLCRr7ytudCH5grsIKY8riGkFnh3+N+7vZELB8qUY0WPQ4qx/HqSYf2BJG99ziDEonAXwRvQ845l8+GeX8cNasf1oWO2a+TR6IB1/sLim1N+ItYRWrdJWPWcuVbqOf11YW+DEjP5UKoJX8Gx6bsiKY6Qi2FImIvrRYQAwXZ91X/xeHG/wfl8fW+i0dpIG5NpxOn/TcUnn/+pzmwCf9e8n3VdKn7n6igGwz81V7zhc99VoZWGg6bXb0ohbB0oLmh9dMJFiuixU/nwyPK2eXmOQihdZSH4OWNNK4JoNaiddJDHftjuHYhC+yyh5HvON+67J4nXFcag0SYhe91QuzfDi6FuVzb65rXt3FItgkhaPDws04v5rcdG/9DexPpwpow03zIGCeUl0L3leLMtv+Z4zOb8WhbvHzwfMWarlzBwGSLvtqqr3GDtLh7lK7lRRsSV9ukoP1jRdgzWLv+IqYYu3HVskU57EudveC9tMkmRlAClCMSzGLrpd5iL5bpfp7yy6zJQUv4azRtPSjTJFPIuRlAfdpDau4l6aCKEx3WnjYahLEHY6eEEyfsNcIsVBgjcdj1WyHVjN2vI46mCChjljhBmfi+VANxkrSdDtiGclZbG4P6uaEwXbCZAvVmwJvAy97IsQv/epFMPnHMT4gtVn70t3IesdKCnpEk8HCprxG7xmWM7Gu9O4YrdykRSyGoDNBTCtG+sGZni3hfOU8Art8UWbtoYkBgADvLr+GK5l3TDp0JZrkSbMlhQt3ERtcUY0Wj0f6YGgXTl5IyOfYQRmUaYy/HbjYNwBYUMXH/nrcdEtuw9jgU9OJmLmvRNp+FfGVHe2X3q5VBA20FJowgTJizTDJVgO1tdv8YRB6IJ1s+g53pfQsgcLQfo8bRYsAkGEoGdXSIQrxkKjURPTnIoRMyfl7ubvCgBzUSTwYtkIbK7G3kVYNnSl8X3rGm0dyerGssMS8njH9Nj2GQuHkIz02CXlS5JmIz1r+ZMqqywwJMIzpN+qm+ody9n4ygJ0pyHAWLmCuNnDyo+7BJkepfJYxEgH+evr4Hn9yQa1zNJhEUeoebciqxrYeF4S3mPV8c8Jd9e4Eo8K1/RVaae+DpMtZggTvMNjZsGgVFHR/llqhS4H5kc8t0obmTtAk0foIFgZr7q4emdMCp7fru9Kcz4ya4BdNJf7q6TpsUG8RDbGcZtpxHymG4ilTLxbDG01fR8PKsW1Mg794Wm47H0wKwKGe7j/nd5ltV6YLemJzJVv4p5MfvicDgtL/zy/VuOiO3rGupTyGHQKyzCIKELHLRzy/PziVAKG7i62hmbGvyxsCZyFZZED0mx1rU43kAsRwGuV2jiwsvfl1XtbWYCwOrJSu+1XSj8TKpPxqiR9CBGbuS/G70Jk+W27n+R7vHeTuJ48nAPqGM846Zuyplkuim2cSUe7xe7CjCu11eZIAPPB7hA4yUd53484vLBflc+9yQVFrQPxsB/6hbeeOVHYKg12N0VfD4prXImNAPaLaW7b7Cbm/+2Bxpvwuu/FZZZBoyNizIOG/dyKMYmP0mVNf8Z2yoPQu74Ugz4zJoiHXafD3iqHYmg7ei5aarwbSUDTN23/MRomjR9r0rtd6OJLwxmEH2H2trwOQl2CMDIdZ35MWp0ZE+/1z8xDq9aoBHZe7LZfqkxYayzR0E1L5z2I2fM1E1YQ18yyMSRcirPkY7yLhREtpTykhQ3fIEy6ltiCuHfNds6s3cUMezRsXxXA8jfR9HMhRQbvOMqqqjqn2OuaCwDGrK4Hl7YiNGuy0f3FLpOtxpHi7FYhmr2Xnd5RWugyZTwsCttFGQuWr/rnmcB7Em6JgHPEfMoGbQqrBvmMFYtAHQ56EoZXppz5wqtb+iJWNC/oDZvwmw/i5Hnr3+bI0jzu3ZjfXu1pvYtg5h3CwVGA7sToFJO2mr8mLEu8xNMg0ax9Tavl9r5L7TQby/5dKrIvJkkDpiE/NwtnyVBckE5tdWLGEbBsBrrPLHQxgdaedafRXTOd0EXD2+m0PE66ItOI5PkcyWEMz5gEVoXTQiNV/vp7y+fY6vx64IPluBlvdbu2+CN7yRszuSUklTiVvX/DPaQ8n7ineMW46GDzXHS0eNAdIyFxFzwEwnDCiwpm2+tdWvff7u6eBHzHrBvSEt2874IP9rdshj5Cj+4xrL/hWMoD69+Nesbku108DXEU2FICkq6whL3YfBf9RlFi6wZPt3875msEzYDnqQs+rsa5FIQCBk964yoGtBPCpPdgYI4S1yZosXAoS3PgQBDS5aY26PmVjdjmoi6IosI7vgBn/nuxtyKmkfzCwqHN3nT+uDv/vzSUAucpYFqnMxw1Ix1ZusTXd6I/2AY47xAa1F2rwGow7E1OFwcNKDbqJ0dMD2lbAfFM2prSJcE6Y++Vi9AfneiKNOaarLMm8zTwAvM+9fHExx9o1ktsqkHClHRYCAYuJWXDN+dowXEOiI/BcI9y8rRVFN9eGAwvTJDyTLezG1qtHXMUcAUgUoSfI0DYMIuNBtlM0L9PZFJpt4N/h0/b51exyP+ExAxZKqfCLqWVge3zMxghFK4sn1nxACGPosOz9xE4zFXB8rQVqpEqAKvAXNsvRD0x35kpPra3S51dSJlDRbwRKsu6ST21+mrdjShK5FO8H9PANxWnRVvgGplBeaXqebo9VWSlWvchPQXkAW2LeTI+VwaHA+Z4mXONlDMXcHpPhzvd4gWej++4IwbCptjCIXDZwJ5+s9JYEJQ2i+Wb5KOecPq6kCrFT0MsiE+ldUHx5tFzA42GpJLexSTDKTQOrXbdtOLTi9+H0eQ41Oq4qdLI4mTHm/kUGdyEbikx5VDZFnP7Rei2v9X5VmA9SjqJ8hDDy6N1sQwjdlG55gzZvBPT8qY2/+Oq/z70+r8Nk/C9GO7rsLP9x+HF0f8h7Oy+EYMUExQzabTw5EoxoE8s3ZhPWUQyiR/5TBeRd1HhEYcFw1wmBIsekiIwHosZK19fHf1TswwoNzySJpOJzp2I1+nF34bTsx+lzdbC3s53YaujtMwJj0Fx4uPdWxYHWQbexca4215otl/r+K3C3FW5ymrQtyeqJ3Np/kHxmxFnxXUkC7iHls5K4lXy11cVdqFB2OQPDHesejQJ1boUmHChvH4fTs6+D+cX7/TURGn5Iz3eDhcXF9adiWDChZm4FaHZfBG6W29Co3mob9YVRwma+UU4ufqH8P747wPL2HTbB+H10R8rD35lzgK+PfRSkJvnliwbhA3dk4d7/yQc7v9zfftIQruq2Isxm+yZKN2sOMGzeLIpX1hUVcKNgf7pWPVEZcG4FNaMuXwr3Qz8s8OotbF5T3E8DZfXP4R3H/5BysAwvHn967C39UehXjnQu8ozhLLlGwJwK6kby/aQJuqwdX+ykKslxyfQsgadKSJWj5yYYwSZUK0r1xW3oeTSdLqtfHwVmq2X+mRHcdBBYUGxfqQR62wWZcUxUhGyno+0KWR9C/JaUWLDoGCp5AggFm/EQ21gDcatHVU8+q3vANqxz1WRJmm7Tuodq6+bqzj58PQ4iES64cCU8eYZiFlfyhI4M4uA9Lab0rTFdGti9qTZu9FiODGfNgx9xhiEmIPlITAmFL/tmj0rBphmLkHYaOpczI/xmtPzn0xpgGlsbe1K2DDnpqsGxerSWQPRyhsYsGgmqqnsWg1c2rdNYCFIoiW1tPJ0tDiRjyzL4oIOAWOatpguzBeBwpiCLUQqZsgGdmfn78Ll1amYXD0cHb2QIGzpVX0nUQJ8Dx6oGCZAZZGYR56Y6DwQPttGs/jnWNebsupYJ25bUW1Z+p2JJgHcgOdBJXRCo7YfOs0D8xrzVZL9HbqePP0SIJYuegAkdBRnH/uC8Sokwre8gYn5WFy9QR7KtpHVeXF5bEoCY5xtdoydJw4PZjnxvN7l3KyPe4J4KW28q1ZsR7ewIunegpJvWHeorMNAPuLiTXcacfh6UQqcJwOVVawY77TxQI0JBuLXkPxZWwncBP35TIZLGIBULt4D2Q38KZDE2RryEvOK716KkGF2e7+Pa6rYuCwH9kZh8JSuBYSNMxilLtWv/5hIssjD1nnMM7qUyEe7eAP8hlmIqUsDh4mi4eIGPA3X4er6ffh48r3SUxXD7Ibt7f3Q7mwr/jC0Zfh5gOmjNeOQ4MvesFQMZevMyIUIWjgMHm2exV370t4Hdj1NzjyduTGvq9e7CqenZ+Hqsm/x3u7uh8ODI9UtrytxntF94VaJtHYlrVJVeU5x+riUZXOlhLCB2I4JXOaEoTIR9l1liADH663b3VW+4abclkWM0CX9qP1KG0qYhA3dgljIs4qsirrMBfJE9SXmD99afo4lbIbh4vwiXF31bZB+Z1tCTfm8LnwMKSHLP0h5iZeb5SN1N4t0L4kf9draqzLRu9O+bpZbCpyNIlbKZSOnb5m1mKxrxhqLM4NkfDIXaML0AaO14aFG/zDvRYb99KDRJWTVKEmAtL155TqMJmfhevgxXF/jkoujANrwgY11+NIeMBm9bllzO58eD4S5DNdnyLMYZUNWhjTfVaChWlxg9n5Od03cJK7XPxbT/Rg6LZ/gyAKdKAJ6xMK17qQCECbzdVgZ2/IC68DGNFoiumlgVHowiQdaPt9m6RyEuHUjVd2l15b8MW0aL8DrcHL6MZyL4dJ1dbD3WsLwUGGR14SKdY3AIZ7kwR0VTmBMhs3j2PuGVbDxMBxK4LAuWasuYdM5si41nAG8HriFQszzYAJcWn+7JSsHd3isdVlHM7btxuJQ/akojRMJ2OEID8BT5cGlcoI2Q+8A5RLTwVHiR9fY8O7i4kx0pVg0lP5XYW+XbSHoDVgXpCkFs4pUvmYZkX/UkyzyHOAJ61JkTTiVObbtqnL2tWElR0tsGhNpbawugOeWV0mHWzhFcPO8Ka0YryEXOMvK/fMhFW+6FtTg5pVeGE7YWO29MSnSBoPe2WKjOB/niEJqyfwQnjpsAK7V6xuLqKJ1MoufLjUuKi4wktgcjNkjGLAkxmKyV+Hs/DicX3yUwtAPrXbNmNnuzpHS41sEiwcKNwfKM6G4yJ4xLZ81x8gXmOJcDNcG2/U62QHRjeYrUjBAf6m40A070jOyAKow34EY7aWsLhjtSbju9SSIGrYl8ssX34Z2cydI6U/y1/PB8+J+YEdMuhPjPje9/kcpD31jotvbL03gkn6sM9LNd6YmDCwzsiGBw9IydKd124eh036hvNhT1WEbA+4RPwn5KQJHFtXgJIymZ7LwXOjgEEEeQHRN4yXX652HszOE7bneryn9L1U2hNtVUNS19RDrppHVVR+3se5s8pS4ZpK9rUfwdsSSxqNUdc0sHC+LrxV3tI4S60MVb4HkXAyZ7hFbQ8261Bz3YgJzZnu3zdsFa4EG4EDDvcf7j40blg2NL3bv0CXEumJYA2dm3aDddVmq3+ao4KlE91NK21MjfRrhmVR3fdtnfidaNa7lkUzwCIpTtSGrwvbtuRAzOwmX51dmae7totnvm0u3DXCbJxdjQnljOEtgaSBVWCmiWd9VGHs6R2jRtcbYEcwbQehOJFjCrM+GcAlVhE3CbPFCG17YKgenZ+/D6emJwmmEw/2XYrgSBInHmI1RYQmpbNJ5HIVQEViElOdYHgYHgcHg3Lr82B8IF3CEJd6S3sXkwhbPryJ5A9O2BSxl2XVah1YnWJ2gVtnVe1EBcKvFVnke96wrL4RrWVusTjGRIsDYp3fZEq/zCykDEjZ4pO3s0I0oy0bxGg6U28RtTZhMQdioLvjRx/bMy5C8pQ1kEnXb6xILj+JSHp0KvnaWW/sf/vRP/zw5/yTAJL0QlhQZJ+dfM5b54Y3cskOVlq6A45P/KgbG4n99XWPjNfLMHhCJySVjGRDni99hVxbCq7C3840xOlteneuyHvC+ihpmFq2LIkFI19DytjgMC5KaE8QoXPR+CBeXp4EZ6FgSaJu7268T5ioGjaZotEyf/iic9eNahBh8JMtXvq28H00+6qusm0V6Ktbdg2BnczHGnViD7KrHKstitK2OMfO93ZehWdtXOAh+BJQz2yhAC8uCLiPSqbyj3Ojft7XTFA4D8TgDWL6IuTmDYv8ZlbF+Y9nidIKH2fX1lfI4xm0sgb4ddncPxHAPTFC4M4LCxhlB9dCWFBp+1Ps4b1AvKTwsM5cOFrfk6N1A9fDi8J8pTiN94zRcXp7I2prIItF3dg7Dduc7hU1XIOXowtaCEHn5ZueBrZFHXqW/pfSbmzYONXjRWdpFEuJ0gY5HdBmObBwFC2s47ClO51bHyAOW7dnbkwWttBM3c0Ywwc2kVYRYfj1ejV+a6IK0clVo+qlQfOWGsfJ/zo6thCsBYxNiyQfLC5WljefpOGfTOlbTwEEicc02K6c4PnlYjV+aipD1fKSiNs79PKyGc19aS+AQSSgGEq/FY7z2tcLzQGxYFda1Sv1IBM7H0/+i6wwAq9LCpLmrh607hcf0J4uqlf2wvfVaDeq12ERHDBGmpHvSXq1x840nRMKnBISk4iDNm03VmG9zdvG9tOG+pbfb2REjfG3dJ3im+VwMmBGNkzivxvtx02GfIHd0dIrnLqhnc1ktyvupBA6MnTk4bD08HExCX2lgAiHMkFUE6Ebb2WLL6F2FyLJC7mFG+JHyGO2CjNfCqGC2dLck/ftiUuMJu0hSJ8SUJDBMkCWeTRPJ8sGAhSPpQroKl1fMAfI87nTa4ejwjY0J4YgAs7PuKROEtFUJjesPYsynUg1YsFRWmDVXHDcYgPe4AY4IDwTOVvuXyoMrm7DLagU4rGxvwdSPxEgPPW5Yi8ZECYO6wKkz6Sx4/ngXJO3EhH+NMTXiPFU68UojzQpTYU8TwT8cjmXN9JT+KwlbHa/Z48bnsDWbzXB0pDqWLM5pVogYP3WNPCaN64Fy4kj7VFtGsVLeYX2hNGJRYUEh3Kk3br17ntA+5xI4eCJ2mkeK445Zdg8ROE+NTcRlbQsH5EXoOWXazwEaEpXTrRuYsV1V45mG86u/EZNDQ6JrhMbOPVVotUDyLZ136d/16uuw1XlljJsGRSU3rdJcXPWcmMvTwi0cohdXDWZDtYurD2JuJ6aZNpvbYtAvw05XFkHDF+eMjJo4Oy0PN649KmIDj+GTV+Sd8rUB4/duSlyA2SvFXFlF4lliYlvSnrFqXin/JTTZX38SGUcML036myrDVUjG6QFnyOQHGr5vNsYcDjFJHek2xTqZM/6QdM9MxvNw3RuFkRgvc4V4n66tnR1ZvtLs6eLy/WpwT+Yd9G89p+/NZaXgyjwYn6icJHDo/rQsIR6uIFKXQDyHJuNtY+zDkYRNrSlhcxh2to9Ci660+Y6eJg8QIDHd/LGzeHILPEP7MIUFoWiWDAIO5iwBTB6oPEizrXlm3WwueIYjLEAizhhY0wTM3t6Byoa9lLa9/ETO9FV4JiBohzqsAVpxTIsLR51ZjwLzs3xbdPY7QgFkXMrcz61+Y/miSGxJOWF9OVk41H/rKnXBnIeiuvPU2ERcKv/TX/77tYqDAsjDc8q0TaEo/cxwhqfEPnMsALojWNvqh3f/s3Wn2YqzVbpPaHyiKfv9R63fwXn83W3+STjY+03Y3X6jKtu1yZV6XN9xjRhz/rFRlEY0a+KNwKtWx2E4PQnnl7+XdfNWmmffGACCZmfnTTJPhXkten6O11C6fugbsQGatfD4uJmOVP4q7rVqz8ZIbKxg3LdyMmao5/BtoHuqJcFZrzJviK42PNIYg+GZ7PwprP8VzzerGnxDcfDZ8b5JmnXZSMsfyHrxPWyuVZ9YAgk2y8RRXyKFpVJarXbotLv2m0msi104E2HDJEeEy1Rp+3j6d+Gi99swnp3q2tgUAuoNVkWsZ+QTRxcAEnLDN/ouvxuy8PatK5Ejgq0yoxwRUrzLkXf5CYPXSX7Vsfukx9uH0l9jAif5LotyjOWAM4QsGLUXujKntA8Jn1qjYYKGFRPYptmOTZ+46ys8iEypQdgIFW9fZoGsAbeMyJdE4LC6tOo6jiP9wQcJZOpLnNTN3CjSrufqPEsPBCtU74Vui20uWMKJuXMK8RkJnKI2vom4PEjgRAKx0sbzLx1FBeUzwb1BWVaoEeJKSr/725P/xYSNb0tAg9Dzk5lVWPPXR41KkM7T3e6/Dge7v5Em+0INiBVvmc+hG2oApinGRvaIKEqjNy4xT6VjOuuF/ui9rLcfwtXVO8WrIyHDuM13Yav9WkxCWqeELky1MkMzXqYRhrNp3ExH+tu6PsfrCWbHhlqME3iZMHelJqbGq/MpjNm9BOmmgQGjVOTFvaj+i3WasPHuO6wbMWoxW1yBrV6QrzzDWM0MhwUEDk4DiAdnrk4MRFNfrBIowJbCRPHAOlG9QRGpKjyFMx5eSeD8gwkcZuLbeBtWkOXF0rKmTAF1EOVn2Pc9cLrtI5Xlq8QrzcchbFkefQ24tefhgKJ640KG7ia6osgPCTwx8nqduTcSLhIwLKpJWUwhGLmiq+qu8mAHVuYG0XWVdGealaTaL4VmKmUA4eLp0Qs2pihSe1kHfNvbozuDmIIiYYJjzBivQUXMFC8lZMEHoZoSpnKlxLCIcWBw5wo2pEMwez5nIebhU6GorDYRl3Tr+2QQ2VUq4QVFWS3KS/kCg6LPmQbms6NV8aie98qyihoa2q13F3hD4wPco/L+PPlOOhnkHgyuzTWVORowOQawu7Zy8qF1K2AVIFTJB69y6WoXM+kpkP6W4iBmNZuIcc5gCIwvsbunU0OEcKzM6ApklvjSFZ0uUc/3DBRor4A8Q0hEwUUc4jjAfMrWx3TNEJ8tc7LYEZM/2H8TDvcZv3shC+PAltlv1LYtznh28U70gnJi4JrsJq6s/aU6h5AxT0Lil9SZhFlnMxZdlyBot9vmjLC9jeeblIW5BNtEjJ33YZzGPHPyIhN8H0bOdyWoJPiYYDudyIqwdNA1xhp726FVxzo4Cjv69u7OS9WrQ5u/Q/n4enSsINASiZnLuvF8JBwUsPgtaH0s80cpNstU5/O6RAmrB2yrHHYsnnSdbbWZl/VS5eOrKNhqEozb2JiU5zXp/prxIIGziihwnlr4UIR59HPABvPVmL2LSBoaC3XOz8Jw/M602NjwPZ/0U495pXbtzBuyd2+gFVWCM0GYlAkbhWiT/gxRU10XhLNaVnxDf63LT9+yKzRiv+7dNdIcq31pzGdm3fimanNpwHuywr4Vo3gRGtLqeM/TqbRYXCODyvruU8LzuN7wgXsGdH3jNO+Pxw3d3ZT9nu3iqH+4KdM1ui4IA8GF4kxXK0e7pnxyDy4fg5nJqmIypAmfCoPhTJilDiiOYrLEy8aAVCfqElzWhcPSL8riOK7nXUGK85w9+HEwQOGRBaFsT5Nbq9RJgbEPMfJqUDl2vlVZvhIjPdT38S5Muuwsvl4rnD4VvINF5GXAOcYVAsiVKrpfsVhY9gYFy6cEsDyMbdm9sDhZCJaJ0JRXrJseHmfeptZvG/4+oJyUYtpjkmcVFAZ928ZuIJUHFqYTdactoixxhoh57PH6mvFoXWrpc8xxEAtsWXCbQVGVIkabKOLY/ZAFsVhVNsxwaZeVgdjzeTi//Mfw/vi3On+XPAVuxoxGxUKEjPG4JqRKPKZ76mX45uX/XVrUka5x3Su/Z2tsWOvksb4fNXJrsDEMcpSdE/tKB1ooXRg0HLp7GLiV0KyPwmh6Hi6ufh9Oz1hbrB86nb2wJy385cG/ULCEgQB1zc7TKrJ+9vj7JorqSaxbj4fVbyXxu4H8+DwchJ3Oh2X7cSyvxyNdbTfiZHnsd3xjvxgm4D23xs6u/rdwfPo7KTzHus3mYTyluiXLs95g/IExlIoJ1rmETaOKE8KLcHTwz0wIupsyXlhuPd2Iw9pYDSOddsDv1WvxndV3+c2z6evp91effyhW47WK9P3VOMd2m42ier4JPvrU31tb/BOZSCVuw5iDmDlHXw8rmSFtlTHSTdwse+9yo6HjtUOjVwB+68b7XHtgGdwQNsuwsFicfLHIxVwbWTeskcb8DOZDsD4cg7dMhuzgRWceQq503I4ruJHQnwkxXqvxS9MmwTejxhu/n0aMA00USsXLrOd4beXeDfg1GxuKY1Opdguh2Jh1pCNecr6R2r51h+KB5UvuMKeF8vTwH6fNx3QXpT+mPZKn5zbi+6vh5T3/UMRw86gozllp/XpAjqyFx6l0XyZccGB5cPSl4Me22VrSbXEnYt4yeNsMrPl1n024Hgfx2zpad4DZa/qHsGFRTuYQMfNc1s3Faej1rs0KQtjsbr+w4zKMEo8H8jRVNrfO08wt3hNUGVlGKdY9EzDVaHXqSevWU4XVf6xRdsVkzhFCh/k1jDf58/5O2e5LPAQP4mKx8mGWmbdGQl87yA+6n2xxQTFqFuscjxhoLhY40by1fBWz93kauL9uWcN/fPCdyKhWAXNhYLsuDVgVBbfVudIxvQjDsQTN9alNPNRTgc238GBi4LReZXVewsyjEushKSsrr5X8xELF6wzL0rzPIlQPKyg8dIP6uKGVpwrUBYhqJOM6OBcw2K73G7WuDXjjnRa705bWtY9hlCixLpIa++mIQmZV2JQCx/OGxs3gf1yAkRnryil/IBexNXvjplsKLxdmT29G4GRhyVEYh/LuNpXrHCvtKvSHp+Gyd2KeaWjHnc6OTQa0VYOr3TAdw/T0Th6VeADIv6w85FrSlG1MzuueEbP32X8pcQpwiyVaLbRdxn7sjv7hctx1DzjmjJiAS8pNRLWO7b1EiXWwtsCJoAJGoiI6s/264fmRNHgm3qnBMzPZ++yLEPPOGQuTOc3KYAxnMSayaSRx0IHdJWFUCM2pBM5oLIHTPzfrhnEb+vy3ulg37gaKiyr7xMT4Z1OJ9ZGXh5RZJAQL9czH25jTYt5pKkOQ1S3Gb5/TgzdeV1Y1y+O4Ky/fo0lbs7ajt/USJdZBocCJlSuPAJoSExZZzwif/VarZddiP/Fq5X5uyErXfagYPCMmPRnaWEevd5YInOL3WISRuTq2VwzzMmRhdNrsjomrrmul6by9L7LiX0xTCRrFX5ZZjUl5janidRlOTt7bnitsqLa7sx8O9l+Gvd3XEjb7+ghzKNiUi83IHj+ePwdi/c2iImQ9H+lxgWCByB8pfCozus5Yp28679tq0pdXWKM9laN3oVG/xiMWyWQ1DCYP+9wV3HnxkqRLjZWvfYUBhFCkZXt+CN2FrHc2SesiK6z7UhGyno+0CWR9J1IRstpomvLwYAsH3BW5rw5JfjPZbmbdGRI2tsyIa5l5iHvieIFR6D4HBEbO783CmVYkulvqzVmYzHrWhcaWxSw3QpVhTKnd3pGSsevzg6z7RXG08YUk8SU2gHQZLQWNz2dxBYFxtmp9Gmr1mc2/GY7P9AT1Lhk/vFE8/KDMEDaMF6IsMr9ndSyoRInHwdoCZ1USrv7+msFkO4QHrsR0pzF3xRwIbOJXPtKTy2xBx5ozAXNL3bTAIXj6/xNC+6032EnxPJydvw/nFydmgbHb6Hb3MHQ7LEgogVNlPxgWTWxYGHGsoMQmgICgfBAwsax8EjBrsjGHi/X5zLljfBmuB8eysFmwk2VzcG2HvOvbaaoiSyZRSrFp1NpScJhcDFt4FF20RIkbeFCtSgubEikoO2zRQGmWdKXZAonkNIyiAHRvABNYc18115bG2JiFE5kX8bpJxH08YxO1j7JujsNQ1g1reHW7+2Gr+yK0G3uBTbSqzP4OxI+4wxDjIHSJx0W6rMjnOFZDPdN5dWyWzXw+DD1ZpMenP4ZzKQo4edh4zsJDknKCkrKWsKGu1SVo2L3TFRzqWnJ/QSVKPBzO4R6AUujkQPmBFjmZol0ul4gpQuwnp0uNY3qRxkcoqk/CbDqVZfNTuOp9VBquQ6tVt3GbXfNI2zePNCYFMlvdvNlgU+y1z4q6JTaMtADAYvH9WXy76ZNwcvounJ6/lYWDddM3ZYf6lEWsriz7yARNo4GF40ux+L0SJR4Xa3GxZWW9ibzrXxvIAV+CnDEcnAXouqAVcy0fzI0wjdXGcMQE8FCjT92uF4Hn03QXLIYJAd5JNFlbTcC7ZdjHnw2v+PzW9nbY2aUrjeXpt82pgQUXIQaYCckFJuGVWB+x/NLlAygfhHlCSTlh2eBBeHl5Gk5O3oWPH9/LIj23+TU16SkNejpV71zoQEthY/XKXJ/rUmrwUKNrVC/ZZxWPhUVVosTjoJCT3aycSwJpT4Ss+3ngvTxaF7xZREVYjXua1gVJYQ8TtM6xrAP60Kf0n5vyT7jZxE6CViL6Wat3Q6t9ICbeFqvB8yi/4Sv37H4msf6ZIrRcpgYLiu/xIdZ783dt75RaP4wmx+Hk/O/C2w//NQyH08BOhXu734p+YXvPVypdpY0+/5p1AdZqMDMmuZLTHm5WXkYqQtbzkX4OrNbPND0EWeFBjMWYDLA5L2nCtR5LGSEiK7LB1gUX4fL6x3B8+vfh/fF/Dcdn34fe9YUJjr2d17YzKeXDOyZwlIUudDgnT3G5r6nkGfthX5ldWdM7eoBtDhBvY5WmyjKnPIuQlbZIWWGl6amRFYf70NeOrDxJUx4KBc7ngihYsujnAPnNhLrR+DqwoRZOA+4wQEHk05S5Eqz0qwBc49zRKV0eaLNFqeEe4UdK5QDvmaZKg4/39L04qc80ZjYAGxgT6w3ehbPL78PpxQ8m9Lrdo7C9/doWDq1VsWxaElIIHNxmFd0aG7ARvsg+WXo3ZTHaNOWDe64gUEZYILbsTIWuSvZikRiYsp//x3B6/vtwcvY7CZrfhovLH/Xs0KYk7Gwfmqt6t7OnaxJWNn4DYtlH0PRZZ42xQ7puWYl6S9+WwFHdQBBZPTEqUeJx8EUInOeGKOGNwahFQ6BA8CegONAodYRssifn3Eszi1XwgL9rZMIkUtQ64vcJR4SAYPuBGkvWs8NiL5yfn4kuZdmMzVvJxmvEuFoNJgP6AqLOBFeFSlHcStwXyBmsC4QDY35VWZ22RQQWpIhusrOz0/D27dvw8cNJ6PX6spqrUga2w+HhNzYvantb5dXsSEBRF6KQYQyQMktXQL+HlxpbAtRl5cRnvL6kny1R4nFArSzxyPC2GrtDnJHwmzGOIsDMvaGrwatoYsPnnGv54B7PRPIwDGYZOQNzxoVF4zsq4tE0r1yF4fgiXFwdi5mdhf71UMKmbfvXQ0w8tb3yqy5sfE/34nR87UhbM6tUBAxQe4b9kioqH1ktjM+MJ7Jqrk7Dhw9vbfJtv39tQp8FNg/2X4eDgze2cCqbs7VbXRM281my9bH148b6kNQJE0IIHO41Q1MChy2rKd8Yx1LglNgESs6xAYi12NEFhveVg7sYjgkZo7i4YoqSZzJB11jaqrGnkzfsk/yRNmvdMyx3MhS76Yfx9DJcm9vzB2No7KWPprstxrW3+0rMa8/XcauwwRXMiDARXsXp+NqxUBQyqBg8o/KTcsCmfROVD/OgWEro5PR9OD75IOEzDt1u16yZF0ffhsODb2z7Z3bIrNdYVbwemHPDgp0mcNibelE34vepBxCHpoRN16wcu6B7Ph+MelSixOOirFUbgAsWNVqbsMmqz+7WzN7nxaDBu4BZCJHkmh9zYMwk6X5bFKl/i5jYFgM6YfB5Hka605PmLMtmchJOzn4K55fHJmzoitnbOzJhw2KcrPzMPBsmBpo3mhRi18DvSkeJdYDV4jKJpYWGsjyvJGyOw/kF3oIXuh/C7u6OBA1WjW8FwUKbtsWybU8dd5dkgifjcigH1CPVjVv1I8Gcrcs7smJ9rhflG50MSpR4bKzUvhKPgShwfA0qNXS1Xmf4XC/GQgvWkVPE1qeBb0ggIBTomtE3/bP6UxEToptmJs15/DFc9T6Ei0ssm0FoNhthZ2fPBp3bzd1QY994Vg9YMCtnRhxLFCNt0WRREey2ym08uQy9PisFnNn4Wr1RC4eHBxI0hyqnXZukiWv6eBTCZMS6e8me/lbeCJupfatm421896bF7OUoVai2o2e6uuZdaha/O+JYosS6KBQ4XnmzaV2kG94qfSlAQ0Rj9El0MAPSF+/dTnekxdiInq0mv+P6akXQo4IvVeJ707s7tHWrSNNlAiputePJ0CYHnl18CG/f/TZ8+Ph7xbERtrf2xMhe2sRONuBimRNbv02WkW0vzNbCRvp9Dx0lq75EKkLW85Gy8itNzwlZ8U9THqzs6A6bXcvq/Bjev/9B1s2plIFWePXym/DixZvQbm2pPKtmceIMwHgbFoqvt6eS1/ujUV80VL7MbTyH/GHb90aDyZ3M7fKtolmOCI+2Zn1bz/B7uejqoi5+Acgqg01SiXx8ObXqOSFhgDRsvL1g0l4P72K4ybwZ1rnSEVq6Mue/O1Pg3l0XLRu9Z67OY527p9N43LdxmtOTj+H8/MSYUq1WN8cAJnO2Gmi6Pgbg3YBoxoKN10RKGPtiLKDEYwLhMJ2PVE4nomOV6SR0Oh1ZnfsSOtsqXpQA0ayuY2J50l2qIp9MUTSYZzUKwzGLdvZN0bDxQ5Uh3WsoJJOxlI+JgpiyhlrdJvHWJbQqKEYqYhhmXGutRInHRilwNgEarg40dpanoVuNhnw/RZwGn/TBq9EvNKfkbjbEbGzmOYuEMmcDzdbnbkxmV+F68D5cXX+QtvwxnJ2fhn5/IOHSCtvM2dj5VkLnRWhHb7QKa7epWjAuRJccQmzx9ZgA717LoxLrYhoGoysbs+kPzoOMkbC7uxu2tuJYDQKHbk6sGZou5RG7a6kDvvfScNiTQsHK3kHlzLgQ9SjxWmOPo6mswiALvNIObSkazMGJji2AMiwFTolNoBQ4G4B5cek/XWqNOt1TOA3cQ9qYZQIxaIyFI6GD+mqMvwgw+USg6Vlcnm0/m9nAFt88Of/HcHH1YxiOLvRMJWx1D8P+3rfhYPeXYav9SkznSFqumE7AUwlhQ3wB340EA4KoMmW12QRYnWLQZ1fVc5XmRIJmy+bVNCVscAoIc7aBYL4MFg7k5UB9q1UlePQO696NJwgb5vFUVfcQJJQfygAHVoho2xgQTgdsnOdWuDscLC3qsoxLPD7KWrUBwPjREmnwdFtVa9HCoSEXAabgXR9YOD4mIwZwx2sYJITt7rDScKXdXl+fh3NZM5eX7yV03obx9DzI2Ap7e3vhcP+NLJs3odt6IS13W8ymI/7EQpxVI7dSRHG9LuumS0eitHA2AcrcVqaYjW0dNBw5mCODRYNTQIBM0CBEEgVG5WJL4siaZXULyp6xOltBWmA5I859bA/Lt6Zw21I69szC9f2WfMM1gEJCvX1u42IlvgyUAmdjoMEyEItmSldIdI/OB9YNfyEYhC2JUxkpqBTTX5AYSEIVPVOpsoTOwDTc/uAiXFziTvtBwubCBFdFTKTd3go7OwdGeKJh0dCPj3cTDMdJX88UGlnXSjwqVGXiunQoGl4O1KMsiuAZ6g3zdhi7YTklCRzqj8KYMmCj522PG5U1TgZYTHShsqeRrxpxkw0gbEqBU2ITqPxPf/nvS06yBoo0+cm0b1oiA7jX/ZNw3vs+XPR+J+3zONRbaJrLBu4DtApPmmi7I8tmwqBuM9Srh2Fv+5fhYPc7aaL7ut/Vc5gyMJfoncW5vjc/D6MxEwR7ode7sr1rJhNWfJ6HVqNjYwCd9nboSqttN3dMo4UBMXCMd5NvP4ywcesKGMNJwncngTQDIv7JvQxsglndZTkVfXNdq2vddBR9r+ge86OOz/4+/Pj2b5Tl1+Gbb74LL/b/SMXwIoQpkzObgZUD8DhkJQHfeE0vVoZhNGMriTMpGu/DYHSmspcCoutWTjNXLGzMpimFY/uVLVvUae8o3CP7dhY2UY4lilFUP76E8qiSiDwqsR7cpZT8k+Cob9ue/83GXqgyt0XMWrlr/1BOY14zuxuh4+dUPLyNzkJ/+DEMhidhJgZUqYmB2CoBvTCZnYfh5DwM9My5mMzHkx/NoqErjbGAep2xmnbY3XkRdrd+Ebrtl9JssWrc2rI9bKxyIzg4RkrBtOKYljTyhU2JB0Blz5hfq83adc0wGo1VBwa67vOnhuNLCZuefrON9FgCh+vUk0sJqt+pHvyk+nIWxpP+cvyP1cFnqoeqe53WoerECx0P9Ju60E0+XKLE06D2p3/2b/88Mr00lVgfaJ627L/4N2so4i3GMvF0b0xmfV2ni0O8POHvCBhfbHEqDYCBXiyQuiwQfwath/k49M2PJj1ZMCxJc2HUF11enkvQSBDpeVyx22JYW93dsL2zF7a32DDtIHFeIFx3f9WTIsra51xQ5nwnalgPqQM/R/3ZxDefOh02V4ouscm16spQgoJS6khZ2baxwEp1HOqNuW1RMK+MbbxnOKIuHIfzq+9tdXLCoEuO+lJTubKfUjXIwm0xZnNkbvDt9q6N3WDlshpGHn6OciyRjy+hPCr/7j/8VcL2biLNfErcRmHeiBlMJ9xXg69J+MyuwtX123B5fRxOL/86eVf5KwEDczCBoz+z6bUJHGZ9zybMHG9IE+366r/1jtkf1u0lYTaZuJsrWixdJayH1Wq3bN4Gy9Q3G00xppruyaqabbvtYn9gMnwjusGKgdVwnY1dam69PKRyb6Jh3FUXi765bj1eNx1F3yu6x/jbYHQarvrvbBWI0Whk1vFO93XodmUptxUnCRK6PVmKqD/ohf71tQTNRRjN31nZmVWjMiXuRJ+dPLuNP1C92JISsh/aLQkb1ZfJRHVJCkqjnm/lbKIcSxSjqH58CeVRCpw1UchUWK9M7R4nAYQJv0cTxlmuwsfzv1ZDlyY7xeKRVTJnUFeCB2lg54kwmDcCk/F8aXn2yqGyQVhAYiaLJUsqYbvz2iyZljhSp92WoHHnBPNym0p44VJr7/KX8Om2k8asSzxTCpxsrJuOwrpRFJeKlIg5Quck9K4/ii7DaEAhtUKjWQvNto+vmTPAbCSh48R4TaV+RQC6Sfm6lVyvNUKzuRWO9v6Zjf80Gp1Qx7Jht1YpLbPpzK7lYRPlWKIYRfXjSyiPyl/81V/mpnDdhvo1oChvmP/CUiE2Sc8Qvc3G4Xr4Qxgz30LaKds3j2xXULrDJrJKaqxsorAlqsQgmDSKW+twOJGF4wyEayxPghXDUiX1Wj006y9Co7YjIYIg8a4y4gdjsi4TmyhIZfUKS8WNlRdvplLgZGPddBR9r/genolsSzCQEOmH4agfrnuD0LsaWncZK3zzvikSrCSh54kjYzmhyrYSvrIF82ywijudndBp7YRu8xd6PilvCRt7R4qHKzf5aVw3/SXWR1H9+BLKo/RS2wBc4LBSNN1iulDB1RWvImmm4TxMZN3QJcJs8NGk75aOBA7ezggYVTsxDawjnxND91mrvS0tl3WwcG2tm9Cxfn1ZQ9WwpXelueqfXrA4xEJF073ZT+93qLuEDbmQ8t/PFXc1tnXjvm4jLvpeUZhF71mXmJSTSo1N1yREJFBQTkZSOAZDus6u9L6UArQS1SSrMAK7gkpnsLrBOngsVcOqEXSXsd1ErbJn3+Vp6iPxWy7g6VbTp+K5Mb91y+O5YRP16udIf158SoGzAaCl3pgNbowBySNmEQaUhp5hYie7beK+LAuIbrWpKkbCRJbw33UxD+9GU3jWbUIlcqbhCzdy7zZ8b530PbdgIooq6nPCXY1m3XSs2xg3wRiW87AQJlGomMYiJWZiign3qSuxHHmHr1HG1l1q9Y6VA1j9mXKvSUHJ7zYLqn/r4OdgYkVYtzyeGzZRr36O9OfFpxQ4G4AzBBVyFDggESS2RpqpmTAMBv31256fW/eYjeUswLnTjNnmFhbaKfcQJBy54tez4EvOJ3GIwmYxv0b/bWzo+eOuRlPU4IqwbmPcBGNYChxAGF4vXPjont6dU48sDF8CycsUSzipazp6dy5lztFXil7glkJTCpznhE3Uq58j/XnxiZyoxKOCAoaU6TRwa+ROzuDRRhEuLOzJOEzHaD6thdkUd+hIy9+2tAmOBDYmw1FMBKcCGE38VgZR8EvSlTTpiRLPCZQIgsUFh6+bRnmzzpnqge15w7ieE/NrZqL5rKWGvCVLV6T6RB0xi0eMxnvOFO5KPVxSiRJPh1LgbAIIlYXlcLOBszqAU+K6GoWPdX8k7y1oKVR4MmoqdojhVMWgsFjSTGWFbgkceFpCJZ4RKC+rJ7HsJWxM0VgqJyyVhGMAY3PMsanpt63wTReaKTFu+TKuU61OjdwKihS/EalEiadDKXA2gpitNHAa/LLR21pZCyHhRFcKgoCJeiwzs6R6QtJYFeTyXbyTFKbR+Eb4twkQn0hg9XeJ5wHKCyGgcjELByXElQ6EiXuh+eZpVi84N/d2LGE9ZhpEqo7gfCC6WR9WqUSJp0PJcZ4YaJ+M0zhxjjarE5EdOGaQg5P4g7cTuMmTQzxfMpjPA1EJUDlFhYLyUzFiobJSBZN98WZjHo3NpWE1aFzZUV70LP84ej2z2qUTwkioRImfERtxGqBxPDZ+joGvTaBSkDczGMKiK+4mbqR/hXFYkIVZng7z5oNPna9F39tEvXkI1o3r2mmM5Zo4hyzBdYhree+v3EvVEXcq+bKxbnl8KdhE+nkr700WBs7/Yv43SwvnOSFH2NzCjXEeKLmeCx6IVOLZIpanlVO0SN1ycRSV38q9dP0oUeKZoBQ4JUqUKFHiSVAKnBIlSpQo8SQoBU6JEiVKlHgSlAKnRIkSJUo8CZ6Vl9rX4E1SJOEZHs7DunkKivK16N4myvEh6VgX68ZnE+8VYVNlXIRNpOMhyIsPcSmKT1zlPAtF7z239BfhqeNKiHmhEpP82OTHtbRwSpQoUaLEk6AUOCVKlHj2QGMuohKfB0qB85Ujq/FGKlHiOSGrjkYq8XmgFDhfObIab6QSJZ4T4jhOFpX4PFAKnBIlSjx7ZAmZNJX4PFD5izW91NbWf4s05w1UnLtCLEpH0bvrvleEooZTZHGsXRbCumlcF5vK03XjWhjumvWxqKwewhzz3uRr61qk68ZnU2n8GvCc8u6uuBTVuSLkhVslwE+lhyArvEibQta3oCJkPZ+mImQ9H4liyKOs5+9L6yArnDRtAlnfSVMRsp6HHoKs8CI9J2TFL00lSmwCWXwKWhdll1qJEiVKlHgSlAKnRIkSJUo8CUqBU6JEiRIlngSlwClRokSJEk+CUuCUKFGiRIknQeXfreEWfZenQpGrXZGEK1q8cl13waItncE8J9y7vH+K4rpuGteV/neVRx4eksZ1UZTGonRU73DRZMvbdbBuWT01isqqKN+eG34Ol+kifrQJ3JXG5+QWXYSHxDPXLTo5lihRokSJEhtFKXBKlChRosSToBQ4JUqUKFHiSVAKnBIlSpQo8SQoBU6JEiVKlHgSFG4x/dTeHUUo8oooukca1k3HJjxGiiT8c/KKKlFiE1jXuwlsoj1ugjc8hG9uItynztMilBZOiRIlSpR4EpQCp0SJEiVKPAm+CIGDyVhEJUqUKFHi58cXL3BKlChRosTzQNmlVqJEiRIlngSlwClRokSJEk+CUuCsiazuu0gl8pGVX/ehEl8Gsso2TUXIev6htC6ywor0EGSFF+lLQClwSpQoUaLEEyCE/z+o26imkWh++QAAAABJRU5ErkJggg==;fontColor=#FFFF00;" parent="1" vertex="1">
          <mxGeometry x="47.28" y="65" width="245.45" height="140" as="geometry" />
        </mxCell>
        <mxCell id="iHLhnHPvlaSQ4wRw5yS0-25" value="Ja" style="text;html=1;align=right;verticalAlign=middle;whiteSpace=wrap;rounded=0;fontSize=35;fontColor=#FFFF00;" parent="1" vertex="1">
          <mxGeometry x="610" y="180" width="60" height="30" as="geometry" />
        </mxCell>
        <mxCell id="iHLhnHPvlaSQ4wRw5yS0-26" value="Nein" style="text;html=1;align=right;verticalAlign=middle;whiteSpace=wrap;rounded=0;fontSize=35;fontColor=#FFFF00;" parent="1" vertex="1">
          <mxGeometry x="610" y="230" width="60" height="30" as="geometry" />
        </mxCell>
        <mxCell id="iHLhnHPvlaSQ4wRw5yS0-27" value="123" style="text;html=1;align=center;verticalAlign=middle;whiteSpace=wrap;rounded=0;fontSize=50;fontColor=#FFFF00;" parent="1" vertex="1">
          <mxGeometry x="410" y="145" width="60" height="30" as="geometry" />
        </mxCell>
        <mxCell id="iHLhnHPvlaSQ4wRw5yS0-28" value="richtig kalibriert?" style="text;html=1;align=left;verticalAlign=middle;whiteSpace=wrap;rounded=0;fontSize=35;fontColor=#FFFF00;" parent="1" vertex="1">
          <mxGeometry x="390" y="60" width="280" height="30" as="geometry" />
        </mxCell>
        <mxCell id="iHLhnHPvlaSQ4wRw5yS0-38" value="111" style="text;html=1;align=center;verticalAlign=middle;whiteSpace=wrap;rounded=0;fontSize=50;fontColor=#FFFF00;" parent="1" vertex="1">
          <mxGeometry x="770" y="145" width="60" height="30" as="geometry" />
        </mxCell>
        <mxCell id="iHLhnHPvlaSQ4wRw5yS0-40" value="123" style="text;html=1;align=center;verticalAlign=middle;whiteSpace=wrap;rounded=0;fontSize=19;fontColor=#999999;" parent="1" vertex="1">
          <mxGeometry x="770" y="90" width="60" height="30" as="geometry" />
        </mxCell>
        <mxCell id="iHLhnHPvlaSQ4wRw5yS0-43" value="auf" style="text;html=1;align=right;verticalAlign=middle;whiteSpace=wrap;rounded=0;fontSize=35;fontColor=#FFFF00;" parent="1" vertex="1">
          <mxGeometry x="250" y="350" width="60" height="30" as="geometry" />
        </mxCell>
        <mxCell id="iHLhnHPvlaSQ4wRw5yS0-44" value="zu" style="text;html=1;align=right;verticalAlign=middle;whiteSpace=wrap;rounded=0;fontSize=35;fontColor=#FFFF00;" parent="1" vertex="1">
          <mxGeometry x="250" y="400" width="60" height="30" as="geometry" />
        </mxCell>
        <mxCell id="iHLhnHPvlaSQ4wRw5yS0-45" value="L/R" style="text;html=1;align=right;verticalAlign=middle;whiteSpace=wrap;rounded=0;fontSize=35;fontColor=#FFFF00;" parent="1" vertex="1">
          <mxGeometry x="250" y="520" width="60" height="30" as="geometry" />
        </mxCell>
        <mxCell id="iHLhnHPvlaSQ4wRw5yS0-47" value="11%" style="text;html=1;align=center;verticalAlign=middle;whiteSpace=wrap;rounded=0;fontSize=50;fontColor=#FFFF00;" parent="1" vertex="1">
          <mxGeometry x="50" y="435" width="60" height="30" as="geometry" />
        </mxCell>
        <mxCell id="iHLhnHPvlaSQ4wRw5yS0-48" value="22%" style="text;html=1;align=center;verticalAlign=middle;whiteSpace=wrap;rounded=0;fontSize=50;fontColor=#999999;" parent="1" vertex="1">
          <mxGeometry x="180" y="435" width="60" height="30" as="geometry" />
        </mxCell>
        <mxCell id="iHLhnHPvlaSQ4wRw5yS0-51" value="auf" style="text;html=1;align=right;verticalAlign=middle;whiteSpace=wrap;rounded=0;fontSize=35;fontColor=#FFFF00;" parent="1" vertex="1">
          <mxGeometry x="1690" y="60" width="60" height="30" as="geometry" />
        </mxCell>
        <mxCell id="iHLhnHPvlaSQ4wRw5yS0-53" value="zu" style="text;html=1;align=right;verticalAlign=middle;whiteSpace=wrap;rounded=0;fontSize=35;fontColor=#FFFF00;" parent="1" vertex="1">
          <mxGeometry x="1690" y="109" width="60" height="30" as="geometry" />
        </mxCell>
        <mxCell id="iHLhnHPvlaSQ4wRw5yS0-67" value="auf" style="text;html=1;align=right;verticalAlign=middle;whiteSpace=wrap;rounded=0;fontSize=35;fontColor=#FFFF00;" parent="1" vertex="1">
          <mxGeometry x="970" y="350" width="60" height="30" as="geometry" />
        </mxCell>
        <mxCell id="iHLhnHPvlaSQ4wRw5yS0-68" value="zu" style="text;html=1;align=right;verticalAlign=middle;whiteSpace=wrap;rounded=0;fontSize=35;fontColor=#FFFF00;" parent="1" vertex="1">
          <mxGeometry x="970" y="400" width="60" height="30" as="geometry" />
        </mxCell>
        <mxCell id="iHLhnHPvlaSQ4wRw5yS0-69" value="L/R" style="text;html=1;align=right;verticalAlign=middle;whiteSpace=wrap;rounded=0;fontSize=35;fontColor=#FFFF00;" parent="1" vertex="1">
          <mxGeometry x="970" y="520" width="60" height="30" as="geometry" />
        </mxCell>
        <mxCell id="iHLhnHPvlaSQ4wRw5yS0-95" value="quittieren" style="text;html=1;align=right;verticalAlign=middle;whiteSpace=wrap;rounded=0;fontSize=35;fontColor=#FFFF00;" parent="1" vertex="1">
          <mxGeometry x="1330" y="230" width="60" height="30" as="geometry" />
        </mxCell>
        <mxCell id="iHLhnHPvlaSQ4wRw5yS0-103" value="123" style="text;html=1;align=center;verticalAlign=middle;whiteSpace=wrap;rounded=0;fontSize=19;fontColor=#999999;" parent="1" vertex="1">
          <mxGeometry x="50" y="380" width="60" height="30" as="geometry" />
        </mxCell>
        <mxCell id="iHLhnHPvlaSQ4wRw5yS0-104" value="123" style="text;html=1;align=center;verticalAlign=middle;whiteSpace=wrap;rounded=0;fontSize=19;fontColor=#999999;" parent="1" vertex="1">
          <mxGeometry x="180" y="380" width="60" height="30" as="geometry" />
        </mxCell>
        <mxCell id="iHLhnHPvlaSQ4wRw5yS0-108" value="" style="rounded=0;whiteSpace=wrap;html=1;fontColor=#FFFF00;fillColor=#000000;" parent="1" vertex="1">
          <mxGeometry x="1090" y="330" width="320" height="240" as="geometry" />
        </mxCell>
        <mxCell id="iHLhnHPvlaSQ4wRw5yS0-109" value="EDGE_R" style="text;html=1;align=center;verticalAlign=middle;whiteSpace=wrap;rounded=0;fontColor=#000000;" parent="1" vertex="1">
          <mxGeometry x="1090" y="300" width="60" height="30" as="geometry" />
        </mxCell>
        <mxCell id="iHLhnHPvlaSQ4wRw5yS0-110" value="auf" style="text;html=1;align=right;verticalAlign=middle;whiteSpace=wrap;rounded=0;fontSize=35;fontColor=#FFFF00;" parent="1" vertex="1">
          <mxGeometry x="1330" y="350" width="60" height="30" as="geometry" />
        </mxCell>
        <mxCell id="iHLhnHPvlaSQ4wRw5yS0-111" value="zu" style="text;html=1;align=right;verticalAlign=middle;whiteSpace=wrap;rounded=0;fontSize=35;fontColor=#FFFF00;" parent="1" vertex="1">
          <mxGeometry x="1330" y="400" width="60" height="30" as="geometry" />
        </mxCell>
        <mxCell id="iHLhnHPvlaSQ4wRw5yS0-112" value="L/R" style="text;html=1;align=right;verticalAlign=middle;whiteSpace=wrap;rounded=0;fontSize=35;fontColor=#FFFF00;" parent="1" vertex="1">
          <mxGeometry x="1330" y="520" width="60" height="30" as="geometry" />
        </mxCell>
        <mxCell id="iHLhnHPvlaSQ4wRw5yS0-121" value="25 km/h" style="text;html=1;align=left;verticalAlign=middle;whiteSpace=wrap;rounded=0;fontSize=20;fontColor=#FFFF00;" parent="1" vertex="1">
          <mxGeometry x="1460" y="530" width="90" height="30" as="geometry" />
        </mxCell>
        <mxCell id="iHLhnHPvlaSQ4wRw5yS0-122" value="25 km/h" style="text;html=1;align=left;verticalAlign=middle;whiteSpace=wrap;rounded=0;fontSize=20;fontColor=#FFFF00;" parent="1" vertex="1">
          <mxGeometry x="740" y="530" width="90" height="30" as="geometry" />
        </mxCell>
        <mxCell id="iHLhnHPvlaSQ4wRw5yS0-123" value="25 km/h" style="text;html=1;align=left;verticalAlign=middle;whiteSpace=wrap;rounded=0;fontSize=20;fontColor=#FFFF00;" parent="1" vertex="1">
          <mxGeometry x="1100" y="530" width="90" height="30" as="geometry" />
        </mxCell>
        <mxCell id="iHLhnHPvlaSQ4wRw5yS0-125" value="Feldname" style="text;html=1;align=left;verticalAlign=middle;whiteSpace=wrap;rounded=0;fontSize=20;fontColor=#FFFF00;" parent="1" vertex="1">
          <mxGeometry x="740" y="340" width="90" height="30" as="geometry" />
        </mxCell>
        <mxCell id="iHLhnHPvlaSQ4wRw5yS0-126" value="Feldname" style="text;html=1;align=left;verticalAlign=middle;whiteSpace=wrap;rounded=0;fontSize=20;fontColor=#FFFF00;" parent="1" vertex="1">
          <mxGeometry x="1460" y="340" width="90" height="30" as="geometry" />
        </mxCell>
        <mxCell id="iHLhnHPvlaSQ4wRw5yS0-129" value="Feldname" style="text;html=1;align=left;verticalAlign=middle;whiteSpace=wrap;rounded=0;fontSize=20;fontColor=#FFFF00;" parent="1" vertex="1">
          <mxGeometry x="1100" y="340" width="90" height="30" as="geometry" />
        </mxCell>
        <mxCell id="iHLhnHPvlaSQ4wRw5yS0-131" value="GPS: ok" style="text;html=1;align=right;verticalAlign=middle;whiteSpace=wrap;rounded=0;fontSize=20;fontColor=#FFFF00;" parent="1" vertex="1">
          <mxGeometry x="870" y="530" width="90" height="30" as="geometry" />
        </mxCell>
        <mxCell id="iHLhnHPvlaSQ4wRw5yS0-132" value="GPS: ok" style="text;html=1;align=right;verticalAlign=middle;whiteSpace=wrap;rounded=0;fontSize=20;fontColor=#FFFF00;" parent="1" vertex="1">
          <mxGeometry x="1230" y="530" width="90" height="30" as="geometry" />
        </mxCell>
        <mxCell id="iHLhnHPvlaSQ4wRw5yS0-134" value="GPS: ok" style="text;html=1;align=right;verticalAlign=middle;whiteSpace=wrap;rounded=0;fontSize=20;fontColor=#FFFF00;" parent="1" vertex="1">
          <mxGeometry x="1590" y="530" width="90" height="30" as="geometry" />
        </mxCell>
        <mxCell id="iHLhnHPvlaSQ4wRw5yS0-139" value="Fehlercode: 0x01" style="text;html=1;align=left;verticalAlign=middle;whiteSpace=wrap;rounded=0;fontSize=35;fontColor=#FF0000;" parent="1" vertex="1">
          <mxGeometry x="1110" y="60" width="280" height="30" as="geometry" />
        </mxCell>
        <mxCell id="iHLhnHPvlaSQ4wRw5yS0-140" value="CAN-Bus Timeout beim ControllerNano festgestellt" style="text;html=1;align=left;verticalAlign=top;whiteSpace=wrap;rounded=0;fontSize=20;fontColor=#FF0000;" parent="1" vertex="1">
          <mxGeometry x="1110" y="100" width="280" height="30" as="geometry" />
        </mxCell>
        <mxCell id="iHLhnHPvlaSQ4wRw5yS0-149" value="" style="rounded=0;whiteSpace=wrap;html=1;fontColor=#FFFF00;fillColor=#000000;" parent="1" vertex="1">
          <mxGeometry x="370" y="330" width="320" height="240" as="geometry" />
        </mxCell>
        <mxCell id="iHLhnHPvlaSQ4wRw5yS0-150" value="MANUAL_R" style="text;html=1;align=center;verticalAlign=middle;whiteSpace=wrap;rounded=0;fontColor=#000000;" parent="1" vertex="1">
          <mxGeometry x="370" y="300" width="60" height="30" as="geometry" />
        </mxCell>
        <mxCell id="iHLhnHPvlaSQ4wRw5yS0-151" value="auf" style="text;html=1;align=right;verticalAlign=middle;whiteSpace=wrap;rounded=0;fontSize=35;fontColor=#FFFF00;" parent="1" vertex="1">
          <mxGeometry x="610" y="350" width="60" height="30" as="geometry" />
        </mxCell>
        <mxCell id="iHLhnHPvlaSQ4wRw5yS0-152" value="zu" style="text;html=1;align=right;verticalAlign=middle;whiteSpace=wrap;rounded=0;fontSize=35;fontColor=#FFFF00;" parent="1" vertex="1">
          <mxGeometry x="610" y="400" width="60" height="30" as="geometry" />
        </mxCell>
        <mxCell id="iHLhnHPvlaSQ4wRw5yS0-153" value="L/R" style="text;html=1;align=right;verticalAlign=middle;whiteSpace=wrap;rounded=0;fontSize=35;fontColor=#FFFF00;" parent="1" vertex="1">
          <mxGeometry x="610" y="520" width="60" height="30" as="geometry" />
        </mxCell>
        <mxCell id="iHLhnHPvlaSQ4wRw5yS0-161" value="11%" style="text;html=1;align=center;verticalAlign=middle;whiteSpace=wrap;rounded=0;fontSize=50;fontColor=#999999;" parent="1" vertex="1">
          <mxGeometry x="410" y="435" width="60" height="30" as="geometry" />
        </mxCell>
        <mxCell id="iHLhnHPvlaSQ4wRw5yS0-162" value="22%" style="text;html=1;align=center;verticalAlign=middle;whiteSpace=wrap;rounded=0;fontSize=50;fontColor=#FFFF00;" parent="1" vertex="1">
          <mxGeometry x="540" y="435" width="60" height="30" as="geometry" />
        </mxCell>
        <mxCell id="iHLhnHPvlaSQ4wRw5yS0-163" value="123" style="text;html=1;align=center;verticalAlign=middle;whiteSpace=wrap;rounded=0;fontSize=19;fontColor=#999999;" parent="1" vertex="1">
          <mxGeometry x="410" y="380" width="60" height="30" as="geometry" />
        </mxCell>
        <mxCell id="iHLhnHPvlaSQ4wRw5yS0-164" value="123" style="text;html=1;align=center;verticalAlign=middle;whiteSpace=wrap;rounded=0;fontSize=19;fontColor=#999999;" parent="1" vertex="1">
          <mxGeometry x="540" y="380" width="60" height="30" as="geometry" />
        </mxCell>
        <mxCell id="iHLhnHPvlaSQ4wRw5yS0-167" value="11%" style="text;html=1;align=center;verticalAlign=middle;whiteSpace=wrap;rounded=0;fontSize=50;fontColor=#FFFF00;" parent="1" vertex="1">
          <mxGeometry x="770" y="435" width="60" height="30" as="geometry" />
        </mxCell>
        <mxCell id="iHLhnHPvlaSQ4wRw5yS0-168" value="22%" style="text;html=1;align=center;verticalAlign=middle;whiteSpace=wrap;rounded=0;fontSize=50;fontColor=#999999;" parent="1" vertex="1">
          <mxGeometry x="900" y="435" width="60" height="30" as="geometry" />
        </mxCell>
        <mxCell id="iHLhnHPvlaSQ4wRw5yS0-169" value="123" style="text;html=1;align=center;verticalAlign=middle;whiteSpace=wrap;rounded=0;fontSize=19;fontColor=#999999;" parent="1" vertex="1">
          <mxGeometry x="770" y="380" width="60" height="30" as="geometry" />
        </mxCell>
        <mxCell id="iHLhnHPvlaSQ4wRw5yS0-170" value="123" style="text;html=1;align=center;verticalAlign=middle;whiteSpace=wrap;rounded=0;fontSize=19;fontColor=#999999;" parent="1" vertex="1">
          <mxGeometry x="900" y="380" width="60" height="30" as="geometry" />
        </mxCell>
        <mxCell id="iHLhnHPvlaSQ4wRw5yS0-171" value="33%" style="text;html=1;align=center;verticalAlign=middle;whiteSpace=wrap;rounded=0;fontSize=19;fontColor=#FFFF00;" parent="1" vertex="1">
          <mxGeometry x="770" y="490" width="60" height="30" as="geometry" />
        </mxCell>
        <mxCell id="iHLhnHPvlaSQ4wRw5yS0-172" value="44%" style="text;html=1;align=center;verticalAlign=middle;whiteSpace=wrap;rounded=0;fontSize=19;fontColor=#999999;" parent="1" vertex="1">
          <mxGeometry x="900" y="490" width="60" height="30" as="geometry" />
        </mxCell>
        <mxCell id="iHLhnHPvlaSQ4wRw5yS0-173" value="11%" style="text;html=1;align=center;verticalAlign=middle;whiteSpace=wrap;rounded=0;fontSize=50;fontColor=#999999;" parent="1" vertex="1">
          <mxGeometry x="1130" y="435" width="60" height="30" as="geometry" />
        </mxCell>
        <mxCell id="iHLhnHPvlaSQ4wRw5yS0-174" value="22%" style="text;html=1;align=center;verticalAlign=middle;whiteSpace=wrap;rounded=0;fontSize=50;fontColor=#FFFF00;" parent="1" vertex="1">
          <mxGeometry x="1260" y="435" width="60" height="30" as="geometry" />
        </mxCell>
        <mxCell id="iHLhnHPvlaSQ4wRw5yS0-175" value="123" style="text;html=1;align=center;verticalAlign=middle;whiteSpace=wrap;rounded=0;fontSize=19;fontColor=#999999;" parent="1" vertex="1">
          <mxGeometry x="1130" y="380" width="60" height="30" as="geometry" />
        </mxCell>
        <mxCell id="iHLhnHPvlaSQ4wRw5yS0-176" value="123" style="text;html=1;align=center;verticalAlign=middle;whiteSpace=wrap;rounded=0;fontSize=19;fontColor=#999999;" parent="1" vertex="1">
          <mxGeometry x="1260" y="380" width="60" height="30" as="geometry" />
        </mxCell>
        <mxCell id="iHLhnHPvlaSQ4wRw5yS0-177" value="33%" style="text;html=1;align=center;verticalAlign=middle;whiteSpace=wrap;rounded=0;fontSize=19;fontColor=#999999;" parent="1" vertex="1">
          <mxGeometry x="1130" y="490" width="60" height="30" as="geometry" />
        </mxCell>
        <mxCell id="iHLhnHPvlaSQ4wRw5yS0-178" value="44%" style="text;html=1;align=center;verticalAlign=middle;whiteSpace=wrap;rounded=0;fontSize=19;fontColor=#FFFF00;" parent="1" vertex="1">
          <mxGeometry x="1260" y="490" width="60" height="30" as="geometry" />
        </mxCell>
        <mxCell id="iHLhnHPvlaSQ4wRw5yS0-179" value="11%" style="text;html=1;align=center;verticalAlign=middle;whiteSpace=wrap;rounded=0;fontSize=50;fontColor=#FFFF00;" parent="1" vertex="1">
          <mxGeometry x="1490" y="435" width="60" height="30" as="geometry" />
        </mxCell>
        <mxCell id="iHLhnHPvlaSQ4wRw5yS0-180" value="22%" style="text;html=1;align=center;verticalAlign=middle;whiteSpace=wrap;rounded=0;fontSize=50;fontColor=#FFFF00;" parent="1" vertex="1">
          <mxGeometry x="1620" y="435" width="60" height="30" as="geometry" />
        </mxCell>
        <mxCell id="iHLhnHPvlaSQ4wRw5yS0-181" value="123" style="text;html=1;align=center;verticalAlign=middle;whiteSpace=wrap;rounded=0;fontSize=19;fontColor=#999999;" parent="1" vertex="1">
          <mxGeometry x="1490" y="380" width="60" height="30" as="geometry" />
        </mxCell>
        <mxCell id="iHLhnHPvlaSQ4wRw5yS0-182" value="123" style="text;html=1;align=center;verticalAlign=middle;whiteSpace=wrap;rounded=0;fontSize=19;fontColor=#999999;" parent="1" vertex="1">
          <mxGeometry x="1620" y="380" width="60" height="30" as="geometry" />
        </mxCell>
        <mxCell id="iHLhnHPvlaSQ4wRw5yS0-183" value="33%" style="text;html=1;align=center;verticalAlign=middle;whiteSpace=wrap;rounded=0;fontSize=19;fontColor=#FFFF00;" parent="1" vertex="1">
          <mxGeometry x="1490" y="490" width="60" height="30" as="geometry" />
        </mxCell>
        <mxCell id="iHLhnHPvlaSQ4wRw5yS0-184" value="44%" style="text;html=1;align=center;verticalAlign=middle;whiteSpace=wrap;rounded=0;fontSize=19;fontColor=#FFFF00;" parent="1" vertex="1">
          <mxGeometry x="1620" y="490" width="60" height="30" as="geometry" />
        </mxCell>
        <mxCell id="iHLhnHPvlaSQ4wRw5yS0-185" value="11%" style="text;html=1;align=center;verticalAlign=middle;whiteSpace=wrap;rounded=0;fontSize=50;fontColor=#FFFF00;" parent="1" vertex="1">
          <mxGeometry x="1490" y="145" width="60" height="30" as="geometry" />
        </mxCell>
        <mxCell id="iHLhnHPvlaSQ4wRw5yS0-186" value="22%" style="text;html=1;align=center;verticalAlign=middle;whiteSpace=wrap;rounded=0;fontSize=50;fontColor=#FFFF00;" parent="1" vertex="1">
          <mxGeometry x="1620" y="145" width="60" height="30" as="geometry" />
        </mxCell>
        <mxCell id="iHLhnHPvlaSQ4wRw5yS0-187" value="123" style="text;html=1;align=center;verticalAlign=middle;whiteSpace=wrap;rounded=0;fontSize=20;fontColor=#999999;" parent="1" vertex="1">
          <mxGeometry x="1490" y="90" width="60" height="30" as="geometry" />
        </mxCell>
        <mxCell id="iHLhnHPvlaSQ4wRw5yS0-188" value="123" style="text;html=1;align=center;verticalAlign=middle;whiteSpace=wrap;rounded=0;fontSize=20;fontColor=#999999;" parent="1" vertex="1">
          <mxGeometry x="1620" y="90" width="60" height="30" as="geometry" />
        </mxCell>
        <mxCell id="iHLhnHPvlaSQ4wRw5yS0-189" value="33%" style="text;html=1;align=center;verticalAlign=middle;whiteSpace=wrap;rounded=0;fontSize=20;fontColor=#FFFF00;" parent="1" vertex="1">
          <mxGeometry x="1490" y="200" width="60" height="30" as="geometry" />
        </mxCell>
        <mxCell id="iHLhnHPvlaSQ4wRw5yS0-190" value="44%" style="text;html=1;align=center;verticalAlign=middle;whiteSpace=wrap;rounded=0;fontSize=20;fontColor=#FFFF00;" parent="1" vertex="1">
          <mxGeometry x="1620" y="200" width="60" height="30" as="geometry" />
        </mxCell>
      </root>
    </mxGraphModel>
  </diagram>
</mxfile>
